<?xml version="1.0" encoding="utf-8" standalone="no"?>
<!DOCTYPE svg PUBLIC "-//W3C//DTD SVG 1.1//EN"
  "http://www.w3.org/Graphics/SVG/1.1/DTD/svg11.dtd">
<!-- Created with matplotlib (https://matplotlib.org/) -->
<svg height="350.750625pt" version="1.1" viewBox="0 0 887.98125 350.750625" width="887.98125pt" xmlns="http://www.w3.org/2000/svg" xmlns:xlink="http://www.w3.org/1999/xlink">
 <defs>
  <style type="text/css">
*{stroke-linecap:butt;stroke-linejoin:round;}
  </style>
 </defs>
 <g id="figure_1">
  <g id="patch_1">
   <path d="M 0 350.750625 
L 887.98125 350.750625 
L 887.98125 0 
L 0 0 
z
" style="fill:none;"/>
  </g>
  <g id="axes_1">
   <g id="patch_2">
    <path d="M 43.78125 313.194375 
L 424.235795 313.194375 
L 424.235795 41.394375 
L 43.78125 41.394375 
z
" style="fill:#ffffff;"/>
   </g>
   <g id="patch_3">
    <path clip-path="url(#pa6a3aa4bd8)" d="M 86.984732 313.194375 
L 89.925208 313.194375 
L 89.925208 312.512274 
L 86.984732 312.512274 
z
" style="fill:#1f77b4;opacity:0.4;"/>
   </g>
   <g id="patch_4">
    <path clip-path="url(#pa6a3aa4bd8)" d="M 89.925208 313.194375 
L 92.865684 313.194375 
L 92.865684 313.194375 
L 89.925208 313.194375 
z
" style="fill:#1f77b4;opacity:0.4;"/>
   </g>
   <g id="patch_5">
    <path clip-path="url(#pa6a3aa4bd8)" d="M 92.865684 313.194375 
L 95.806159 313.194375 
L 95.806159 313.194375 
L 92.865684 313.194375 
z
" style="fill:#1f77b4;opacity:0.4;"/>
   </g>
   <g id="patch_6">
    <path clip-path="url(#pa6a3aa4bd8)" d="M 95.806159 313.194375 
L 98.746635 313.194375 
L 98.746635 311.830174 
L 95.806159 311.830174 
z
" style="fill:#1f77b4;opacity:0.4;"/>
   </g>
   <g id="patch_7">
    <path clip-path="url(#pa6a3aa4bd8)" d="M 98.746635 313.194375 
L 101.687111 313.194375 
L 101.687111 313.194375 
L 98.746635 313.194375 
z
" style="fill:#1f77b4;opacity:0.4;"/>
   </g>
   <g id="patch_8">
    <path clip-path="url(#pa6a3aa4bd8)" d="M 101.687111 313.194375 
L 104.627587 313.194375 
L 104.627587 313.194375 
L 101.687111 313.194375 
z
" style="fill:#1f77b4;opacity:0.4;"/>
   </g>
   <g id="patch_9">
    <path clip-path="url(#pa6a3aa4bd8)" d="M 104.627587 313.194375 
L 107.568063 313.194375 
L 107.568063 313.194375 
L 104.627587 313.194375 
z
" style="fill:#1f77b4;opacity:0.4;"/>
   </g>
   <g id="patch_10">
    <path clip-path="url(#pa6a3aa4bd8)" d="M 107.568063 313.194375 
L 110.508539 313.194375 
L 110.508539 313.194375 
L 107.568063 313.194375 
z
" style="fill:#1f77b4;opacity:0.4;"/>
   </g>
   <g id="patch_11">
    <path clip-path="url(#pa6a3aa4bd8)" d="M 110.508539 313.194375 
L 113.449014 313.194375 
L 113.449014 313.194375 
L 110.508539 313.194375 
z
" style="fill:#1f77b4;opacity:0.4;"/>
   </g>
   <g id="patch_12">
    <path clip-path="url(#pa6a3aa4bd8)" d="M 113.449014 313.194375 
L 116.38949 313.194375 
L 116.38949 313.194375 
L 113.449014 313.194375 
z
" style="fill:#1f77b4;opacity:0.4;"/>
   </g>
   <g id="patch_13">
    <path clip-path="url(#pa6a3aa4bd8)" d="M 116.38949 313.194375 
L 119.329966 313.194375 
L 119.329966 311.489124 
L 116.38949 311.489124 
z
" style="fill:#1f77b4;opacity:0.4;"/>
   </g>
   <g id="patch_14">
    <path clip-path="url(#pa6a3aa4bd8)" d="M 119.329966 313.194375 
L 122.270442 313.194375 
L 122.270442 312.853325 
L 119.329966 312.853325 
z
" style="fill:#1f77b4;opacity:0.4;"/>
   </g>
   <g id="patch_15">
    <path clip-path="url(#pa6a3aa4bd8)" d="M 122.270442 313.194375 
L 125.210918 313.194375 
L 125.210918 312.853325 
L 122.270442 312.853325 
z
" style="fill:#1f77b4;opacity:0.4;"/>
   </g>
   <g id="patch_16">
    <path clip-path="url(#pa6a3aa4bd8)" d="M 125.210918 313.194375 
L 128.151393 313.194375 
L 128.151393 305.350219 
L 125.210918 305.350219 
z
" style="fill:#1f77b4;opacity:0.4;"/>
   </g>
   <g id="patch_17">
    <path clip-path="url(#pa6a3aa4bd8)" d="M 128.151393 313.194375 
L 131.091869 313.194375 
L 131.091869 313.194375 
L 128.151393 313.194375 
z
" style="fill:#1f77b4;opacity:0.4;"/>
   </g>
   <g id="patch_18">
    <path clip-path="url(#pa6a3aa4bd8)" d="M 131.091869 313.194375 
L 134.032345 313.194375 
L 134.032345 302.962867 
L 131.091869 302.962867 
z
" style="fill:#1f77b4;opacity:0.4;"/>
   </g>
   <g id="patch_19">
    <path clip-path="url(#pa6a3aa4bd8)" d="M 134.032345 313.194375 
L 136.972821 313.194375 
L 136.972821 311.489124 
L 134.032345 311.489124 
z
" style="fill:#1f77b4;opacity:0.4;"/>
   </g>
   <g id="patch_20">
    <path clip-path="url(#pa6a3aa4bd8)" d="M 136.972821 313.194375 
L 139.913297 313.194375 
L 139.913297 311.830174 
L 136.972821 311.830174 
z
" style="fill:#1f77b4;opacity:0.4;"/>
   </g>
   <g id="patch_21">
    <path clip-path="url(#pa6a3aa4bd8)" d="M 139.913297 313.194375 
L 142.853772 313.194375 
L 142.853772 311.830174 
L 139.913297 311.830174 
z
" style="fill:#1f77b4;opacity:0.4;"/>
   </g>
   <g id="patch_22">
    <path clip-path="url(#pa6a3aa4bd8)" d="M 142.853772 313.194375 
L 145.794248 313.194375 
L 145.794248 285.228254 
L 142.853772 285.228254 
z
" style="fill:#1f77b4;opacity:0.4;"/>
   </g>
   <g id="patch_23">
    <path clip-path="url(#pa6a3aa4bd8)" d="M 145.794248 313.194375 
L 148.734724 313.194375 
L 148.734724 311.830174 
L 145.794248 311.830174 
z
" style="fill:#1f77b4;opacity:0.4;"/>
   </g>
   <g id="patch_24">
    <path clip-path="url(#pa6a3aa4bd8)" d="M 148.734724 313.194375 
L 151.6752 313.194375 
L 151.6752 272.950445 
L 148.734724 272.950445 
z
" style="fill:#1f77b4;opacity:0.4;"/>
   </g>
   <g id="patch_25">
    <path clip-path="url(#pa6a3aa4bd8)" d="M 151.6752 313.194375 
L 154.615676 313.194375 
L 154.615676 302.962867 
L 151.6752 302.962867 
z
" style="fill:#1f77b4;opacity:0.4;"/>
   </g>
   <g id="patch_26">
    <path clip-path="url(#pa6a3aa4bd8)" d="M 154.615676 313.194375 
L 157.556152 313.194375 
L 157.556152 313.194375 
L 154.615676 313.194375 
z
" style="fill:#1f77b4;opacity:0.4;"/>
   </g>
   <g id="patch_27">
    <path clip-path="url(#pa6a3aa4bd8)" d="M 157.556152 313.194375 
L 160.496627 313.194375 
L 160.496627 301.598666 
L 157.556152 301.598666 
z
" style="fill:#1f77b4;opacity:0.4;"/>
   </g>
   <g id="patch_28">
    <path clip-path="url(#pa6a3aa4bd8)" d="M 160.496627 313.194375 
L 163.437103 313.194375 
L 163.437103 312.512274 
L 160.496627 312.512274 
z
" style="fill:#1f77b4;opacity:0.4;"/>
   </g>
   <g id="patch_29">
    <path clip-path="url(#pa6a3aa4bd8)" d="M 163.437103 313.194375 
L 166.377579 313.194375 
L 166.377579 244.984324 
L 163.437103 244.984324 
z
" style="fill:#1f77b4;opacity:0.4;"/>
   </g>
   <g id="patch_30">
    <path clip-path="url(#pa6a3aa4bd8)" d="M 166.377579 313.194375 
L 169.318055 313.194375 
L 169.318055 303.986018 
L 166.377579 303.986018 
z
" style="fill:#1f77b4;opacity:0.4;"/>
   </g>
   <g id="patch_31">
    <path clip-path="url(#pa6a3aa4bd8)" d="M 169.318055 313.194375 
L 172.258531 313.194375 
L 172.258531 303.644968 
L 169.318055 303.644968 
z
" style="fill:#1f77b4;opacity:0.4;"/>
   </g>
   <g id="patch_32">
    <path clip-path="url(#pa6a3aa4bd8)" d="M 172.258531 313.194375 
L 175.199006 313.194375 
L 175.199006 313.194375 
L 172.258531 313.194375 
z
" style="fill:#1f77b4;opacity:0.4;"/>
   </g>
   <g id="patch_33">
    <path clip-path="url(#pa6a3aa4bd8)" d="M 175.199006 313.194375 
L 178.139482 313.194375 
L 178.139482 313.194375 
L 175.199006 313.194375 
z
" style="fill:#1f77b4;opacity:0.4;"/>
   </g>
   <g id="patch_34">
    <path clip-path="url(#pa6a3aa4bd8)" d="M 178.139482 313.194375 
L 181.079958 313.194375 
L 181.079958 218.382404 
L 178.139482 218.382404 
z
" style="fill:#1f77b4;opacity:0.4;"/>
   </g>
   <g id="patch_35">
    <path clip-path="url(#pa6a3aa4bd8)" d="M 181.079958 313.194375 
L 184.020434 313.194375 
L 184.020434 237.140168 
L 181.079958 237.140168 
z
" style="fill:#1f77b4;opacity:0.4;"/>
   </g>
   <g id="patch_36">
    <path clip-path="url(#pa6a3aa4bd8)" d="M 184.020434 313.194375 
L 186.96091 313.194375 
L 186.96091 284.887204 
L 184.020434 284.887204 
z
" style="fill:#1f77b4;opacity:0.4;"/>
   </g>
   <g id="patch_37">
    <path clip-path="url(#pa6a3aa4bd8)" d="M 186.96091 313.194375 
L 189.901386 313.194375 
L 189.901386 291.708209 
L 186.96091 291.708209 
z
" style="fill:#1f77b4;opacity:0.4;"/>
   </g>
   <g id="patch_38">
    <path clip-path="url(#pa6a3aa4bd8)" d="M 189.901386 313.194375 
L 192.841861 313.194375 
L 192.841861 312.512274 
L 189.901386 312.512274 
z
" style="fill:#1f77b4;opacity:0.4;"/>
   </g>
   <g id="patch_39">
    <path clip-path="url(#pa6a3aa4bd8)" d="M 192.841861 313.194375 
L 195.782337 313.194375 
L 195.782337 219.746605 
L 192.841861 219.746605 
z
" style="fill:#1f77b4;opacity:0.4;"/>
   </g>
   <g id="patch_40">
    <path clip-path="url(#pa6a3aa4bd8)" d="M 195.782337 313.194375 
L 198.722813 313.194375 
L 198.722813 312.853325 
L 195.782337 312.853325 
z
" style="fill:#1f77b4;opacity:0.4;"/>
   </g>
   <g id="patch_41">
    <path clip-path="url(#pa6a3aa4bd8)" d="M 198.722813 313.194375 
L 201.663289 313.194375 
L 201.663289 269.198892 
L 198.722813 269.198892 
z
" style="fill:#1f77b4;opacity:0.4;"/>
   </g>
   <g id="patch_42">
    <path clip-path="url(#pa6a3aa4bd8)" d="M 201.663289 313.194375 
L 204.603765 313.194375 
L 204.603765 263.742088 
L 201.663289 263.742088 
z
" style="fill:#1f77b4;opacity:0.4;"/>
   </g>
   <g id="patch_43">
    <path clip-path="url(#pa6a3aa4bd8)" d="M 204.603765 313.194375 
L 207.54424 313.194375 
L 207.54424 54.337232 
L 204.603765 54.337232 
z
" style="fill:#1f77b4;opacity:0.4;"/>
   </g>
   <g id="patch_44">
    <path clip-path="url(#pa6a3aa4bd8)" d="M 207.54424 313.194375 
L 210.484716 313.194375 
L 210.484716 169.953268 
L 207.54424 169.953268 
z
" style="fill:#1f77b4;opacity:0.4;"/>
   </g>
   <g id="patch_45">
    <path clip-path="url(#pa6a3aa4bd8)" d="M 210.484716 313.194375 
L 213.425192 313.194375 
L 213.425192 272.950445 
L 210.484716 272.950445 
z
" style="fill:#1f77b4;opacity:0.4;"/>
   </g>
   <g id="patch_46">
    <path clip-path="url(#pa6a3aa4bd8)" d="M 213.425192 313.194375 
L 216.365668 313.194375 
L 216.365668 287.956656 
L 213.425192 287.956656 
z
" style="fill:#1f77b4;opacity:0.4;"/>
   </g>
   <g id="patch_47">
    <path clip-path="url(#pa6a3aa4bd8)" d="M 216.365668 313.194375 
L 219.306144 313.194375 
L 219.306144 253.851631 
L 216.365668 253.851631 
z
" style="fill:#1f77b4;opacity:0.4;"/>
   </g>
   <g id="patch_48">
    <path clip-path="url(#pa6a3aa4bd8)" d="M 219.306144 313.194375 
L 222.246619 313.194375 
L 222.246619 313.194375 
L 219.306144 313.194375 
z
" style="fill:#1f77b4;opacity:0.4;"/>
   </g>
   <g id="patch_49">
    <path clip-path="url(#pa6a3aa4bd8)" d="M 222.246619 313.194375 
L 225.187095 313.194375 
L 225.187095 204.058294 
L 222.246619 204.058294 
z
" style="fill:#1f77b4;opacity:0.4;"/>
   </g>
   <g id="patch_50">
    <path clip-path="url(#pa6a3aa4bd8)" d="M 225.187095 313.194375 
L 228.127571 313.194375 
L 228.127571 233.047565 
L 225.187095 233.047565 
z
" style="fill:#1f77b4;opacity:0.4;"/>
   </g>
   <g id="patch_51">
    <path clip-path="url(#pa6a3aa4bd8)" d="M 228.127571 313.194375 
L 231.068047 313.194375 
L 231.068047 270.222043 
L 228.127571 270.222043 
z
" style="fill:#1f77b4;opacity:0.4;"/>
   </g>
   <g id="patch_52">
    <path clip-path="url(#pa6a3aa4bd8)" d="M 231.068047 313.194375 
L 234.008523 313.194375 
L 234.008523 281.476701 
L 231.068047 281.476701 
z
" style="fill:#1f77b4;opacity:0.4;"/>
   </g>
   <g id="patch_53">
    <path clip-path="url(#pa6a3aa4bd8)" d="M 234.008523 313.194375 
L 236.948999 313.194375 
L 236.948999 236.799118 
L 234.008523 236.799118 
z
" style="fill:#1f77b4;opacity:0.4;"/>
   </g>
   <g id="patch_54">
    <path clip-path="url(#pa6a3aa4bd8)" d="M 236.948999 313.194375 
L 239.889474 313.194375 
L 239.889474 270.904143 
L 236.948999 270.904143 
z
" style="fill:#1f77b4;opacity:0.4;"/>
   </g>
   <g id="patch_55">
    <path clip-path="url(#pa6a3aa4bd8)" d="M 239.889474 313.194375 
L 242.82995 313.194375 
L 242.82995 188.711032 
L 239.889474 188.711032 
z
" style="fill:#1f77b4;opacity:0.4;"/>
   </g>
   <g id="patch_56">
    <path clip-path="url(#pa6a3aa4bd8)" d="M 242.82995 313.194375 
L 245.770426 313.194375 
L 245.770426 79.574951 
L 242.82995 79.574951 
z
" style="fill:#1f77b4;opacity:0.4;"/>
   </g>
   <g id="patch_57">
    <path clip-path="url(#pa6a3aa4bd8)" d="M 245.770426 313.194375 
L 248.710902 313.194375 
L 248.710902 299.552365 
L 245.770426 299.552365 
z
" style="fill:#1f77b4;opacity:0.4;"/>
   </g>
   <g id="patch_58">
    <path clip-path="url(#pa6a3aa4bd8)" d="M 248.710902 313.194375 
L 251.651378 313.194375 
L 251.651378 257.262133 
L 248.710902 257.262133 
z
" style="fill:#1f77b4;opacity:0.4;"/>
   </g>
   <g id="patch_59">
    <path clip-path="url(#pa6a3aa4bd8)" d="M 251.651378 313.194375 
L 254.591853 313.194375 
L 254.591853 291.367159 
L 251.651378 291.367159 
z
" style="fill:#1f77b4;opacity:0.4;"/>
   </g>
   <g id="patch_60">
    <path clip-path="url(#pa6a3aa4bd8)" d="M 254.591853 313.194375 
L 257.532329 313.194375 
L 257.532329 237.822269 
L 254.591853 237.822269 
z
" style="fill:#1f77b4;opacity:0.4;"/>
   </g>
   <g id="patch_61">
    <path clip-path="url(#pa6a3aa4bd8)" d="M 257.532329 313.194375 
L 260.472805 313.194375 
L 260.472805 301.598666 
L 257.532329 301.598666 
z
" style="fill:#1f77b4;opacity:0.4;"/>
   </g>
   <g id="patch_62">
    <path clip-path="url(#pa6a3aa4bd8)" d="M 260.472805 313.194375 
L 263.413281 313.194375 
L 263.413281 297.506063 
L 260.472805 297.506063 
z
" style="fill:#1f77b4;opacity:0.4;"/>
   </g>
   <g id="patch_63">
    <path clip-path="url(#pa6a3aa4bd8)" d="M 263.413281 313.194375 
L 266.353757 313.194375 
L 266.353757 297.506063 
L 263.413281 297.506063 
z
" style="fill:#1f77b4;opacity:0.4;"/>
   </g>
   <g id="patch_64">
    <path clip-path="url(#pa6a3aa4bd8)" d="M 266.353757 313.194375 
L 269.294233 313.194375 
L 269.294233 303.303918 
L 266.353757 303.303918 
z
" style="fill:#1f77b4;opacity:0.4;"/>
   </g>
   <g id="patch_65">
    <path clip-path="url(#pa6a3aa4bd8)" d="M 269.294233 313.194375 
L 272.234708 313.194375 
L 272.234708 179.843726 
L 269.294233 179.843726 
z
" style="fill:#1f77b4;opacity:0.4;"/>
   </g>
   <g id="patch_66">
    <path clip-path="url(#pa6a3aa4bd8)" d="M 272.234708 313.194375 
L 275.175184 313.194375 
L 275.175184 274.996747 
L 272.234708 274.996747 
z
" style="fill:#1f77b4;opacity:0.4;"/>
   </g>
   <g id="patch_67">
    <path clip-path="url(#pa6a3aa4bd8)" d="M 275.175184 313.194375 
L 278.11566 313.194375 
L 278.11566 287.274556 
L 275.175184 287.274556 
z
" style="fill:#1f77b4;opacity:0.4;"/>
   </g>
   <g id="patch_68">
    <path clip-path="url(#pa6a3aa4bd8)" d="M 278.11566 313.194375 
L 281.056136 313.194375 
L 281.056136 302.962867 
L 278.11566 302.962867 
z
" style="fill:#1f77b4;opacity:0.4;"/>
   </g>
   <g id="patch_69">
    <path clip-path="url(#pa6a3aa4bd8)" d="M 281.056136 313.194375 
L 283.996612 313.194375 
L 283.996612 255.215832 
L 281.056136 255.215832 
z
" style="fill:#1f77b4;opacity:0.4;"/>
   </g>
   <g id="patch_70">
    <path clip-path="url(#pa6a3aa4bd8)" d="M 283.996612 313.194375 
L 286.937087 313.194375 
L 286.937087 281.476701 
L 283.996612 281.476701 
z
" style="fill:#1f77b4;opacity:0.4;"/>
   </g>
   <g id="patch_71">
    <path clip-path="url(#pa6a3aa4bd8)" d="M 286.937087 313.194375 
L 289.877563 313.194375 
L 289.877563 299.211315 
L 286.937087 299.211315 
z
" style="fill:#1f77b4;opacity:0.4;"/>
   </g>
   <g id="patch_72">
    <path clip-path="url(#pa6a3aa4bd8)" d="M 289.877563 313.194375 
L 292.818039 313.194375 
L 292.818039 298.188164 
L 289.877563 298.188164 
z
" style="fill:#1f77b4;opacity:0.4;"/>
   </g>
   <g id="patch_73">
    <path clip-path="url(#pa6a3aa4bd8)" d="M 292.818039 313.194375 
L 295.758515 313.194375 
L 295.758515 306.03232 
L 292.818039 306.03232 
z
" style="fill:#1f77b4;opacity:0.4;"/>
   </g>
   <g id="patch_74">
    <path clip-path="url(#pa6a3aa4bd8)" d="M 295.758515 313.194375 
L 298.698991 313.194375 
L 298.698991 270.222043 
L 295.758515 270.222043 
z
" style="fill:#1f77b4;opacity:0.4;"/>
   </g>
   <g id="patch_75">
    <path clip-path="url(#pa6a3aa4bd8)" d="M 298.698991 313.194375 
L 301.639466 313.194375 
L 301.639466 297.506063 
L 298.698991 297.506063 
z
" style="fill:#1f77b4;opacity:0.4;"/>
   </g>
   <g id="patch_76">
    <path clip-path="url(#pa6a3aa4bd8)" d="M 301.639466 313.194375 
L 304.579942 313.194375 
L 304.579942 283.523003 
L 301.639466 283.523003 
z
" style="fill:#1f77b4;opacity:0.4;"/>
   </g>
   <g id="patch_77">
    <path clip-path="url(#pa6a3aa4bd8)" d="M 304.579942 313.194375 
L 307.520418 313.194375 
L 307.520418 300.916566 
L 304.579942 300.916566 
z
" style="fill:#1f77b4;opacity:0.4;"/>
   </g>
   <g id="patch_78">
    <path clip-path="url(#pa6a3aa4bd8)" d="M 307.520418 313.194375 
L 310.460894 313.194375 
L 310.460894 271.927294 
L 307.520418 271.927294 
z
" style="fill:#1f77b4;opacity:0.4;"/>
   </g>
   <g id="patch_79">
    <path clip-path="url(#pa6a3aa4bd8)" d="M 310.460894 313.194375 
L 313.40137 313.194375 
L 313.40137 313.194375 
L 310.460894 313.194375 
z
" style="fill:#1f77b4;opacity:0.4;"/>
   </g>
   <g id="patch_80">
    <path clip-path="url(#pa6a3aa4bd8)" d="M 313.40137 313.194375 
L 316.341846 313.194375 
L 316.341846 298.529214 
L 313.40137 298.529214 
z
" style="fill:#1f77b4;opacity:0.4;"/>
   </g>
   <g id="patch_81">
    <path clip-path="url(#pa6a3aa4bd8)" d="M 316.341846 313.194375 
L 319.282321 313.194375 
L 319.282321 288.297706 
L 316.341846 288.297706 
z
" style="fill:#1f77b4;opacity:0.4;"/>
   </g>
   <g id="patch_82">
    <path clip-path="url(#pa6a3aa4bd8)" d="M 319.282321 313.194375 
L 322.222797 313.194375 
L 322.222797 310.807023 
L 319.282321 310.807023 
z
" style="fill:#1f77b4;opacity:0.4;"/>
   </g>
   <g id="patch_83">
    <path clip-path="url(#pa6a3aa4bd8)" d="M 322.222797 313.194375 
L 325.163273 313.194375 
L 325.163273 267.493641 
L 322.222797 267.493641 
z
" style="fill:#1f77b4;opacity:0.4;"/>
   </g>
   <g id="patch_84">
    <path clip-path="url(#pa6a3aa4bd8)" d="M 325.163273 313.194375 
L 328.103749 313.194375 
L 328.103749 311.148073 
L 325.163273 311.148073 
z
" style="fill:#1f77b4;opacity:0.4;"/>
   </g>
   <g id="patch_85">
    <path clip-path="url(#pa6a3aa4bd8)" d="M 328.103749 313.194375 
L 331.044225 313.194375 
L 331.044225 301.257616 
L 328.103749 301.257616 
z
" style="fill:#1f77b4;opacity:0.4;"/>
   </g>
   <g id="patch_86">
    <path clip-path="url(#pa6a3aa4bd8)" d="M 331.044225 313.194375 
L 333.9847 313.194375 
L 333.9847 311.489124 
L 331.044225 311.489124 
z
" style="fill:#1f77b4;opacity:0.4;"/>
   </g>
   <g id="patch_87">
    <path clip-path="url(#pa6a3aa4bd8)" d="M 333.9847 313.194375 
L 336.925176 313.194375 
L 336.925176 305.009169 
L 333.9847 305.009169 
z
" style="fill:#1f77b4;opacity:0.4;"/>
   </g>
   <g id="patch_88">
    <path clip-path="url(#pa6a3aa4bd8)" d="M 336.925176 313.194375 
L 339.865652 313.194375 
L 339.865652 296.823963 
L 336.925176 296.823963 
z
" style="fill:#1f77b4;opacity:0.4;"/>
   </g>
   <g id="patch_89">
    <path clip-path="url(#pa6a3aa4bd8)" d="M 339.865652 313.194375 
L 342.806128 313.194375 
L 342.806128 309.442822 
L 339.865652 309.442822 
z
" style="fill:#1f77b4;opacity:0.4;"/>
   </g>
   <g id="patch_90">
    <path clip-path="url(#pa6a3aa4bd8)" d="M 342.806128 313.194375 
L 345.746604 313.194375 
L 345.746604 302.962867 
L 342.806128 302.962867 
z
" style="fill:#1f77b4;opacity:0.4;"/>
   </g>
   <g id="patch_91">
    <path clip-path="url(#pa6a3aa4bd8)" d="M 345.746604 313.194375 
L 348.68708 313.194375 
L 348.68708 304.327068 
L 345.746604 304.327068 
z
" style="fill:#1f77b4;opacity:0.4;"/>
   </g>
   <g id="patch_92">
    <path clip-path="url(#pa6a3aa4bd8)" d="M 348.68708 313.194375 
L 351.627555 313.194375 
L 351.627555 279.77145 
L 348.68708 279.77145 
z
" style="fill:#1f77b4;opacity:0.4;"/>
   </g>
   <g id="patch_93">
    <path clip-path="url(#pa6a3aa4bd8)" d="M 351.627555 313.194375 
L 354.568031 313.194375 
L 354.568031 297.847114 
L 351.627555 297.847114 
z
" style="fill:#1f77b4;opacity:0.4;"/>
   </g>
   <g id="patch_94">
    <path clip-path="url(#pa6a3aa4bd8)" d="M 354.568031 313.194375 
L 357.508507 313.194375 
L 357.508507 265.447339 
L 354.568031 265.447339 
z
" style="fill:#1f77b4;opacity:0.4;"/>
   </g>
   <g id="patch_95">
    <path clip-path="url(#pa6a3aa4bd8)" d="M 357.508507 313.194375 
L 360.448983 313.194375 
L 360.448983 312.853325 
L 357.508507 312.853325 
z
" style="fill:#1f77b4;opacity:0.4;"/>
   </g>
   <g id="patch_96">
    <path clip-path="url(#pa6a3aa4bd8)" d="M 360.448983 313.194375 
L 363.389459 313.194375 
L 363.389459 297.165013 
L 360.448983 297.165013 
z
" style="fill:#1f77b4;opacity:0.4;"/>
   </g>
   <g id="patch_97">
    <path clip-path="url(#pa6a3aa4bd8)" d="M 363.389459 313.194375 
L 366.329934 313.194375 
L 366.329934 307.737571 
L 363.389459 307.737571 
z
" style="fill:#1f77b4;opacity:0.4;"/>
   </g>
   <g id="patch_98">
    <path clip-path="url(#pa6a3aa4bd8)" d="M 366.329934 313.194375 
L 369.27041 313.194375 
L 369.27041 311.148073 
L 366.329934 311.148073 
z
" style="fill:#1f77b4;opacity:0.4;"/>
   </g>
   <g id="patch_99">
    <path clip-path="url(#pa6a3aa4bd8)" d="M 369.27041 313.194375 
L 372.210886 313.194375 
L 372.210886 313.194375 
L 369.27041 313.194375 
z
" style="fill:#1f77b4;opacity:0.4;"/>
   </g>
   <g id="patch_100">
    <path clip-path="url(#pa6a3aa4bd8)" d="M 372.210886 313.194375 
L 375.151362 313.194375 
L 375.151362 313.194375 
L 372.210886 313.194375 
z
" style="fill:#1f77b4;opacity:0.4;"/>
   </g>
   <g id="patch_101">
    <path clip-path="url(#pa6a3aa4bd8)" d="M 375.151362 313.194375 
L 378.091838 313.194375 
L 378.091838 313.194375 
L 375.151362 313.194375 
z
" style="fill:#1f77b4;opacity:0.4;"/>
   </g>
   <g id="patch_102">
    <path clip-path="url(#pa6a3aa4bd8)" d="M 378.091838 313.194375 
L 381.032313 313.194375 
L 381.032313 312.853325 
L 378.091838 312.853325 
z
" style="fill:#1f77b4;opacity:0.4;"/>
   </g>
   <g id="matplotlib.axis_1">
    <g id="xtick_1">
     <g id="line2d_1">
      <defs>
       <path d="M 0 0 
L 0 3.5 
" id="m8818c77f37" style="stroke:#000000;stroke-width:0.8;"/>
      </defs>
      <g>
       <use style="stroke:#000000;stroke-width:0.8;" x="45.188109" xlink:href="#m8818c77f37" y="313.194375"/>
      </g>
     </g>
     <g id="text_1">
      <!-- 4.0 -->
      <defs>
       <path d="M 37.796875 64.3125 
L 12.890625 25.390625 
L 37.796875 25.390625 
z
M 35.203125 72.90625 
L 47.609375 72.90625 
L 47.609375 25.390625 
L 58.015625 25.390625 
L 58.015625 17.1875 
L 47.609375 17.1875 
L 47.609375 0 
L 37.796875 0 
L 37.796875 17.1875 
L 4.890625 17.1875 
L 4.890625 26.703125 
z
" id="DejaVuSans-52"/>
       <path d="M 10.6875 12.40625 
L 21 12.40625 
L 21 0 
L 10.6875 0 
z
" id="DejaVuSans-46"/>
       <path d="M 31.78125 66.40625 
Q 24.171875 66.40625 20.328125 58.90625 
Q 16.5 51.421875 16.5 36.375 
Q 16.5 21.390625 20.328125 13.890625 
Q 24.171875 6.390625 31.78125 6.390625 
Q 39.453125 6.390625 43.28125 13.890625 
Q 47.125 21.390625 47.125 36.375 
Q 47.125 51.421875 43.28125 58.90625 
Q 39.453125 66.40625 31.78125 66.40625 
z
M 31.78125 74.21875 
Q 44.046875 74.21875 50.515625 64.515625 
Q 56.984375 54.828125 56.984375 36.375 
Q 56.984375 17.96875 50.515625 8.265625 
Q 44.046875 -1.421875 31.78125 -1.421875 
Q 19.53125 -1.421875 13.0625 8.265625 
Q 6.59375 17.96875 6.59375 36.375 
Q 6.59375 54.828125 13.0625 64.515625 
Q 19.53125 74.21875 31.78125 74.21875 
z
" id="DejaVuSans-48"/>
      </defs>
      <g transform="translate(37.236547 327.792812)scale(0.1 -0.1)">
       <use xlink:href="#DejaVuSans-52"/>
       <use x="63.623047" xlink:href="#DejaVuSans-46"/>
       <use x="95.410156" xlink:href="#DejaVuSans-48"/>
      </g>
     </g>
    </g>
    <g id="xtick_2">
     <g id="line2d_2">
      <g>
       <use style="stroke:#000000;stroke-width:0.8;" x="111.012027" xlink:href="#m8818c77f37" y="313.194375"/>
      </g>
     </g>
     <g id="text_2">
      <!-- 4.5 -->
      <defs>
       <path d="M 10.796875 72.90625 
L 49.515625 72.90625 
L 49.515625 64.59375 
L 19.828125 64.59375 
L 19.828125 46.734375 
Q 21.96875 47.46875 24.109375 47.828125 
Q 26.265625 48.1875 28.421875 48.1875 
Q 40.625 48.1875 47.75 41.5 
Q 54.890625 34.8125 54.890625 23.390625 
Q 54.890625 11.625 47.5625 5.09375 
Q 40.234375 -1.421875 26.90625 -1.421875 
Q 22.3125 -1.421875 17.546875 -0.640625 
Q 12.796875 0.140625 7.71875 1.703125 
L 7.71875 11.625 
Q 12.109375 9.234375 16.796875 8.0625 
Q 21.484375 6.890625 26.703125 6.890625 
Q 35.15625 6.890625 40.078125 11.328125 
Q 45.015625 15.765625 45.015625 23.390625 
Q 45.015625 31 40.078125 35.4375 
Q 35.15625 39.890625 26.703125 39.890625 
Q 22.75 39.890625 18.8125 39.015625 
Q 14.890625 38.140625 10.796875 36.28125 
z
" id="DejaVuSans-53"/>
      </defs>
      <g transform="translate(103.060464 327.792812)scale(0.1 -0.1)">
       <use xlink:href="#DejaVuSans-52"/>
       <use x="63.623047" xlink:href="#DejaVuSans-46"/>
       <use x="95.410156" xlink:href="#DejaVuSans-53"/>
      </g>
     </g>
    </g>
    <g id="xtick_3">
     <g id="line2d_3">
      <g>
       <use style="stroke:#000000;stroke-width:0.8;" x="176.835945" xlink:href="#m8818c77f37" y="313.194375"/>
      </g>
     </g>
     <g id="text_3">
      <!-- 5.0 -->
      <g transform="translate(168.884382 327.792812)scale(0.1 -0.1)">
       <use xlink:href="#DejaVuSans-53"/>
       <use x="63.623047" xlink:href="#DejaVuSans-46"/>
       <use x="95.410156" xlink:href="#DejaVuSans-48"/>
      </g>
     </g>
    </g>
    <g id="xtick_4">
     <g id="line2d_4">
      <g>
       <use style="stroke:#000000;stroke-width:0.8;" x="242.659862" xlink:href="#m8818c77f37" y="313.194375"/>
      </g>
     </g>
     <g id="text_4">
      <!-- 5.5 -->
      <g transform="translate(234.7083 327.792812)scale(0.1 -0.1)">
       <use xlink:href="#DejaVuSans-53"/>
       <use x="63.623047" xlink:href="#DejaVuSans-46"/>
       <use x="95.410156" xlink:href="#DejaVuSans-53"/>
      </g>
     </g>
    </g>
    <g id="xtick_5">
     <g id="line2d_5">
      <g>
       <use style="stroke:#000000;stroke-width:0.8;" x="308.48378" xlink:href="#m8818c77f37" y="313.194375"/>
      </g>
     </g>
     <g id="text_5">
      <!-- 6.0 -->
      <defs>
       <path d="M 33.015625 40.375 
Q 26.375 40.375 22.484375 35.828125 
Q 18.609375 31.296875 18.609375 23.390625 
Q 18.609375 15.53125 22.484375 10.953125 
Q 26.375 6.390625 33.015625 6.390625 
Q 39.65625 6.390625 43.53125 10.953125 
Q 47.40625 15.53125 47.40625 23.390625 
Q 47.40625 31.296875 43.53125 35.828125 
Q 39.65625 40.375 33.015625 40.375 
z
M 52.59375 71.296875 
L 52.59375 62.3125 
Q 48.875 64.0625 45.09375 64.984375 
Q 41.3125 65.921875 37.59375 65.921875 
Q 27.828125 65.921875 22.671875 59.328125 
Q 17.53125 52.734375 16.796875 39.40625 
Q 19.671875 43.65625 24.015625 45.921875 
Q 28.375 48.1875 33.59375 48.1875 
Q 44.578125 48.1875 50.953125 41.515625 
Q 57.328125 34.859375 57.328125 23.390625 
Q 57.328125 12.15625 50.6875 5.359375 
Q 44.046875 -1.421875 33.015625 -1.421875 
Q 20.359375 -1.421875 13.671875 8.265625 
Q 6.984375 17.96875 6.984375 36.375 
Q 6.984375 53.65625 15.1875 63.9375 
Q 23.390625 74.21875 37.203125 74.21875 
Q 40.921875 74.21875 44.703125 73.484375 
Q 48.484375 72.75 52.59375 71.296875 
z
" id="DejaVuSans-54"/>
      </defs>
      <g transform="translate(300.532218 327.792812)scale(0.1 -0.1)">
       <use xlink:href="#DejaVuSans-54"/>
       <use x="63.623047" xlink:href="#DejaVuSans-46"/>
       <use x="95.410156" xlink:href="#DejaVuSans-48"/>
      </g>
     </g>
    </g>
    <g id="xtick_6">
     <g id="line2d_6">
      <g>
       <use style="stroke:#000000;stroke-width:0.8;" x="374.307698" xlink:href="#m8818c77f37" y="313.194375"/>
      </g>
     </g>
     <g id="text_6">
      <!-- 6.5 -->
      <g transform="translate(366.356135 327.792812)scale(0.1 -0.1)">
       <use xlink:href="#DejaVuSans-54"/>
       <use x="63.623047" xlink:href="#DejaVuSans-46"/>
       <use x="95.410156" xlink:href="#DejaVuSans-53"/>
      </g>
     </g>
    </g>
    <g id="text_7">
     <!-- Engine power -->
     <defs>
      <path d="M 9.8125 72.90625 
L 55.90625 72.90625 
L 55.90625 64.59375 
L 19.671875 64.59375 
L 19.671875 43.015625 
L 54.390625 43.015625 
L 54.390625 34.71875 
L 19.671875 34.71875 
L 19.671875 8.296875 
L 56.78125 8.296875 
L 56.78125 0 
L 9.8125 0 
z
" id="DejaVuSans-69"/>
      <path d="M 54.890625 33.015625 
L 54.890625 0 
L 45.90625 0 
L 45.90625 32.71875 
Q 45.90625 40.484375 42.875 44.328125 
Q 39.84375 48.1875 33.796875 48.1875 
Q 26.515625 48.1875 22.3125 43.546875 
Q 18.109375 38.921875 18.109375 30.90625 
L 18.109375 0 
L 9.078125 0 
L 9.078125 54.6875 
L 18.109375 54.6875 
L 18.109375 46.1875 
Q 21.34375 51.125 25.703125 53.5625 
Q 30.078125 56 35.796875 56 
Q 45.21875 56 50.046875 50.171875 
Q 54.890625 44.34375 54.890625 33.015625 
z
" id="DejaVuSans-110"/>
      <path d="M 45.40625 27.984375 
Q 45.40625 37.75 41.375 43.109375 
Q 37.359375 48.484375 30.078125 48.484375 
Q 22.859375 48.484375 18.828125 43.109375 
Q 14.796875 37.75 14.796875 27.984375 
Q 14.796875 18.265625 18.828125 12.890625 
Q 22.859375 7.515625 30.078125 7.515625 
Q 37.359375 7.515625 41.375 12.890625 
Q 45.40625 18.265625 45.40625 27.984375 
z
M 54.390625 6.78125 
Q 54.390625 -7.171875 48.1875 -13.984375 
Q 42 -20.796875 29.203125 -20.796875 
Q 24.46875 -20.796875 20.265625 -20.09375 
Q 16.0625 -19.390625 12.109375 -17.921875 
L 12.109375 -9.1875 
Q 16.0625 -11.328125 19.921875 -12.34375 
Q 23.78125 -13.375 27.78125 -13.375 
Q 36.625 -13.375 41.015625 -8.765625 
Q 45.40625 -4.15625 45.40625 5.171875 
L 45.40625 9.625 
Q 42.625 4.78125 38.28125 2.390625 
Q 33.9375 0 27.875 0 
Q 17.828125 0 11.671875 7.65625 
Q 5.515625 15.328125 5.515625 27.984375 
Q 5.515625 40.671875 11.671875 48.328125 
Q 17.828125 56 27.875 56 
Q 33.9375 56 38.28125 53.609375 
Q 42.625 51.21875 45.40625 46.390625 
L 45.40625 54.6875 
L 54.390625 54.6875 
z
" id="DejaVuSans-103"/>
      <path d="M 9.421875 54.6875 
L 18.40625 54.6875 
L 18.40625 0 
L 9.421875 0 
z
M 9.421875 75.984375 
L 18.40625 75.984375 
L 18.40625 64.59375 
L 9.421875 64.59375 
z
" id="DejaVuSans-105"/>
      <path d="M 56.203125 29.59375 
L 56.203125 25.203125 
L 14.890625 25.203125 
Q 15.484375 15.921875 20.484375 11.0625 
Q 25.484375 6.203125 34.421875 6.203125 
Q 39.59375 6.203125 44.453125 7.46875 
Q 49.3125 8.734375 54.109375 11.28125 
L 54.109375 2.78125 
Q 49.265625 0.734375 44.1875 -0.34375 
Q 39.109375 -1.421875 33.890625 -1.421875 
Q 20.796875 -1.421875 13.15625 6.1875 
Q 5.515625 13.8125 5.515625 26.8125 
Q 5.515625 40.234375 12.765625 48.109375 
Q 20.015625 56 32.328125 56 
Q 43.359375 56 49.78125 48.890625 
Q 56.203125 41.796875 56.203125 29.59375 
z
M 47.21875 32.234375 
Q 47.125 39.59375 43.09375 43.984375 
Q 39.0625 48.390625 32.421875 48.390625 
Q 24.90625 48.390625 20.390625 44.140625 
Q 15.875 39.890625 15.1875 32.171875 
z
" id="DejaVuSans-101"/>
      <path id="DejaVuSans-32"/>
      <path d="M 18.109375 8.203125 
L 18.109375 -20.796875 
L 9.078125 -20.796875 
L 9.078125 54.6875 
L 18.109375 54.6875 
L 18.109375 46.390625 
Q 20.953125 51.265625 25.265625 53.625 
Q 29.59375 56 35.59375 56 
Q 45.5625 56 51.78125 48.09375 
Q 58.015625 40.1875 58.015625 27.296875 
Q 58.015625 14.40625 51.78125 6.484375 
Q 45.5625 -1.421875 35.59375 -1.421875 
Q 29.59375 -1.421875 25.265625 0.953125 
Q 20.953125 3.328125 18.109375 8.203125 
z
M 48.6875 27.296875 
Q 48.6875 37.203125 44.609375 42.84375 
Q 40.53125 48.484375 33.40625 48.484375 
Q 26.265625 48.484375 22.1875 42.84375 
Q 18.109375 37.203125 18.109375 27.296875 
Q 18.109375 17.390625 22.1875 11.75 
Q 26.265625 6.109375 33.40625 6.109375 
Q 40.53125 6.109375 44.609375 11.75 
Q 48.6875 17.390625 48.6875 27.296875 
z
" id="DejaVuSans-112"/>
      <path d="M 30.609375 48.390625 
Q 23.390625 48.390625 19.1875 42.75 
Q 14.984375 37.109375 14.984375 27.296875 
Q 14.984375 17.484375 19.15625 11.84375 
Q 23.34375 6.203125 30.609375 6.203125 
Q 37.796875 6.203125 41.984375 11.859375 
Q 46.1875 17.53125 46.1875 27.296875 
Q 46.1875 37.015625 41.984375 42.703125 
Q 37.796875 48.390625 30.609375 48.390625 
z
M 30.609375 56 
Q 42.328125 56 49.015625 48.375 
Q 55.71875 40.765625 55.71875 27.296875 
Q 55.71875 13.875 49.015625 6.21875 
Q 42.328125 -1.421875 30.609375 -1.421875 
Q 18.84375 -1.421875 12.171875 6.21875 
Q 5.515625 13.875 5.515625 27.296875 
Q 5.515625 40.765625 12.171875 48.375 
Q 18.84375 56 30.609375 56 
z
" id="DejaVuSans-111"/>
      <path d="M 4.203125 54.6875 
L 13.1875 54.6875 
L 24.421875 12.015625 
L 35.59375 54.6875 
L 46.1875 54.6875 
L 57.421875 12.015625 
L 68.609375 54.6875 
L 77.59375 54.6875 
L 63.28125 0 
L 52.6875 0 
L 40.921875 44.828125 
L 29.109375 0 
L 18.5 0 
z
" id="DejaVuSans-119"/>
      <path d="M 41.109375 46.296875 
Q 39.59375 47.171875 37.8125 47.578125 
Q 36.03125 48 33.890625 48 
Q 26.265625 48 22.1875 43.046875 
Q 18.109375 38.09375 18.109375 28.8125 
L 18.109375 0 
L 9.078125 0 
L 9.078125 54.6875 
L 18.109375 54.6875 
L 18.109375 46.1875 
Q 20.953125 51.171875 25.484375 53.578125 
Q 30.03125 56 36.53125 56 
Q 37.453125 56 38.578125 55.875 
Q 39.703125 55.765625 41.0625 55.515625 
z
" id="DejaVuSans-114"/>
     </defs>
     <g transform="translate(199.828054 341.470937)scale(0.1 -0.1)">
      <use xlink:href="#DejaVuSans-69"/>
      <use x="63.183594" xlink:href="#DejaVuSans-110"/>
      <use x="126.5625" xlink:href="#DejaVuSans-103"/>
      <use x="190.039062" xlink:href="#DejaVuSans-105"/>
      <use x="217.822266" xlink:href="#DejaVuSans-110"/>
      <use x="281.201172" xlink:href="#DejaVuSans-101"/>
      <use x="342.724609" xlink:href="#DejaVuSans-32"/>
      <use x="374.511719" xlink:href="#DejaVuSans-112"/>
      <use x="437.988281" xlink:href="#DejaVuSans-111"/>
      <use x="499.169922" xlink:href="#DejaVuSans-119"/>
      <use x="580.957031" xlink:href="#DejaVuSans-101"/>
      <use x="642.480469" xlink:href="#DejaVuSans-114"/>
     </g>
    </g>
   </g>
   <g id="matplotlib.axis_2">
    <g id="ytick_1">
     <g id="line2d_7">
      <defs>
       <path d="M 0 0 
L -3.5 0 
" id="mf9446a7eed" style="stroke:#000000;stroke-width:0.8;"/>
      </defs>
      <g>
       <use style="stroke:#000000;stroke-width:0.8;" x="43.78125" xlink:href="#mf9446a7eed" y="313.194375"/>
      </g>
     </g>
     <g id="text_8">
      <!-- 0.0 -->
      <g transform="translate(20.878125 316.993594)scale(0.1 -0.1)">
       <use xlink:href="#DejaVuSans-48"/>
       <use x="63.623047" xlink:href="#DejaVuSans-46"/>
       <use x="95.410156" xlink:href="#DejaVuSans-48"/>
      </g>
     </g>
    </g>
    <g id="ytick_2">
     <g id="line2d_8">
      <g>
       <use style="stroke:#000000;stroke-width:0.8;" x="43.78125" xlink:href="#mf9446a7eed" y="281.379168"/>
      </g>
     </g>
     <g id="text_9">
      <!-- 0.5 -->
      <g transform="translate(20.878125 285.178387)scale(0.1 -0.1)">
       <use xlink:href="#DejaVuSans-48"/>
       <use x="63.623047" xlink:href="#DejaVuSans-46"/>
       <use x="95.410156" xlink:href="#DejaVuSans-53"/>
      </g>
     </g>
    </g>
    <g id="ytick_3">
     <g id="line2d_9">
      <g>
       <use style="stroke:#000000;stroke-width:0.8;" x="43.78125" xlink:href="#mf9446a7eed" y="249.563961"/>
      </g>
     </g>
     <g id="text_10">
      <!-- 1.0 -->
      <defs>
       <path d="M 12.40625 8.296875 
L 28.515625 8.296875 
L 28.515625 63.921875 
L 10.984375 60.40625 
L 10.984375 69.390625 
L 28.421875 72.90625 
L 38.28125 72.90625 
L 38.28125 8.296875 
L 54.390625 8.296875 
L 54.390625 0 
L 12.40625 0 
z
" id="DejaVuSans-49"/>
      </defs>
      <g transform="translate(20.878125 253.36318)scale(0.1 -0.1)">
       <use xlink:href="#DejaVuSans-49"/>
       <use x="63.623047" xlink:href="#DejaVuSans-46"/>
       <use x="95.410156" xlink:href="#DejaVuSans-48"/>
      </g>
     </g>
    </g>
    <g id="ytick_4">
     <g id="line2d_10">
      <g>
       <use style="stroke:#000000;stroke-width:0.8;" x="43.78125" xlink:href="#mf9446a7eed" y="217.748754"/>
      </g>
     </g>
     <g id="text_11">
      <!-- 1.5 -->
      <g transform="translate(20.878125 221.547973)scale(0.1 -0.1)">
       <use xlink:href="#DejaVuSans-49"/>
       <use x="63.623047" xlink:href="#DejaVuSans-46"/>
       <use x="95.410156" xlink:href="#DejaVuSans-53"/>
      </g>
     </g>
    </g>
    <g id="ytick_5">
     <g id="line2d_11">
      <g>
       <use style="stroke:#000000;stroke-width:0.8;" x="43.78125" xlink:href="#mf9446a7eed" y="185.933547"/>
      </g>
     </g>
     <g id="text_12">
      <!-- 2.0 -->
      <defs>
       <path d="M 19.1875 8.296875 
L 53.609375 8.296875 
L 53.609375 0 
L 7.328125 0 
L 7.328125 8.296875 
Q 12.9375 14.109375 22.625 23.890625 
Q 32.328125 33.6875 34.8125 36.53125 
Q 39.546875 41.84375 41.421875 45.53125 
Q 43.3125 49.21875 43.3125 52.78125 
Q 43.3125 58.59375 39.234375 62.25 
Q 35.15625 65.921875 28.609375 65.921875 
Q 23.96875 65.921875 18.8125 64.3125 
Q 13.671875 62.703125 7.8125 59.421875 
L 7.8125 69.390625 
Q 13.765625 71.78125 18.9375 73 
Q 24.125 74.21875 28.421875 74.21875 
Q 39.75 74.21875 46.484375 68.546875 
Q 53.21875 62.890625 53.21875 53.421875 
Q 53.21875 48.921875 51.53125 44.890625 
Q 49.859375 40.875 45.40625 35.40625 
Q 44.1875 33.984375 37.640625 27.21875 
Q 31.109375 20.453125 19.1875 8.296875 
z
" id="DejaVuSans-50"/>
      </defs>
      <g transform="translate(20.878125 189.732766)scale(0.1 -0.1)">
       <use xlink:href="#DejaVuSans-50"/>
       <use x="63.623047" xlink:href="#DejaVuSans-46"/>
       <use x="95.410156" xlink:href="#DejaVuSans-48"/>
      </g>
     </g>
    </g>
    <g id="ytick_6">
     <g id="line2d_12">
      <g>
       <use style="stroke:#000000;stroke-width:0.8;" x="43.78125" xlink:href="#mf9446a7eed" y="154.118341"/>
      </g>
     </g>
     <g id="text_13">
      <!-- 2.5 -->
      <g transform="translate(20.878125 157.917559)scale(0.1 -0.1)">
       <use xlink:href="#DejaVuSans-50"/>
       <use x="63.623047" xlink:href="#DejaVuSans-46"/>
       <use x="95.410156" xlink:href="#DejaVuSans-53"/>
      </g>
     </g>
    </g>
    <g id="ytick_7">
     <g id="line2d_13">
      <g>
       <use style="stroke:#000000;stroke-width:0.8;" x="43.78125" xlink:href="#mf9446a7eed" y="122.303134"/>
      </g>
     </g>
     <g id="text_14">
      <!-- 3.0 -->
      <defs>
       <path d="M 40.578125 39.3125 
Q 47.65625 37.796875 51.625 33 
Q 55.609375 28.21875 55.609375 21.1875 
Q 55.609375 10.40625 48.1875 4.484375 
Q 40.765625 -1.421875 27.09375 -1.421875 
Q 22.515625 -1.421875 17.65625 -0.515625 
Q 12.796875 0.390625 7.625 2.203125 
L 7.625 11.71875 
Q 11.71875 9.328125 16.59375 8.109375 
Q 21.484375 6.890625 26.8125 6.890625 
Q 36.078125 6.890625 40.9375 10.546875 
Q 45.796875 14.203125 45.796875 21.1875 
Q 45.796875 27.640625 41.28125 31.265625 
Q 36.765625 34.90625 28.71875 34.90625 
L 20.21875 34.90625 
L 20.21875 43.015625 
L 29.109375 43.015625 
Q 36.375 43.015625 40.234375 45.921875 
Q 44.09375 48.828125 44.09375 54.296875 
Q 44.09375 59.90625 40.109375 62.90625 
Q 36.140625 65.921875 28.71875 65.921875 
Q 24.65625 65.921875 20.015625 65.03125 
Q 15.375 64.15625 9.8125 62.3125 
L 9.8125 71.09375 
Q 15.4375 72.65625 20.34375 73.4375 
Q 25.25 74.21875 29.59375 74.21875 
Q 40.828125 74.21875 47.359375 69.109375 
Q 53.90625 64.015625 53.90625 55.328125 
Q 53.90625 49.265625 50.4375 45.09375 
Q 46.96875 40.921875 40.578125 39.3125 
z
" id="DejaVuSans-51"/>
      </defs>
      <g transform="translate(20.878125 126.102352)scale(0.1 -0.1)">
       <use xlink:href="#DejaVuSans-51"/>
       <use x="63.623047" xlink:href="#DejaVuSans-46"/>
       <use x="95.410156" xlink:href="#DejaVuSans-48"/>
      </g>
     </g>
    </g>
    <g id="ytick_8">
     <g id="line2d_14">
      <g>
       <use style="stroke:#000000;stroke-width:0.8;" x="43.78125" xlink:href="#mf9446a7eed" y="90.487927"/>
      </g>
     </g>
     <g id="text_15">
      <!-- 3.5 -->
      <g transform="translate(20.878125 94.287146)scale(0.1 -0.1)">
       <use xlink:href="#DejaVuSans-51"/>
       <use x="63.623047" xlink:href="#DejaVuSans-46"/>
       <use x="95.410156" xlink:href="#DejaVuSans-53"/>
      </g>
     </g>
    </g>
    <g id="ytick_9">
     <g id="line2d_15">
      <g>
       <use style="stroke:#000000;stroke-width:0.8;" x="43.78125" xlink:href="#mf9446a7eed" y="58.67272"/>
      </g>
     </g>
     <g id="text_16">
      <!-- 4.0 -->
      <g transform="translate(20.878125 62.471939)scale(0.1 -0.1)">
       <use xlink:href="#DejaVuSans-52"/>
       <use x="63.623047" xlink:href="#DejaVuSans-46"/>
       <use x="95.410156" xlink:href="#DejaVuSans-48"/>
      </g>
     </g>
    </g>
    <g id="text_17">
     <!-- Quantity (frequency) -->
     <defs>
      <path d="M 39.40625 66.21875 
Q 28.65625 66.21875 22.328125 58.203125 
Q 16.015625 50.203125 16.015625 36.375 
Q 16.015625 22.609375 22.328125 14.59375 
Q 28.65625 6.59375 39.40625 6.59375 
Q 50.140625 6.59375 56.421875 14.59375 
Q 62.703125 22.609375 62.703125 36.375 
Q 62.703125 50.203125 56.421875 58.203125 
Q 50.140625 66.21875 39.40625 66.21875 
z
M 53.21875 1.3125 
L 66.21875 -12.890625 
L 54.296875 -12.890625 
L 43.5 -1.21875 
Q 41.890625 -1.3125 41.03125 -1.359375 
Q 40.1875 -1.421875 39.40625 -1.421875 
Q 24.03125 -1.421875 14.8125 8.859375 
Q 5.609375 19.140625 5.609375 36.375 
Q 5.609375 53.65625 14.8125 63.9375 
Q 24.03125 74.21875 39.40625 74.21875 
Q 54.734375 74.21875 63.90625 63.9375 
Q 73.09375 53.65625 73.09375 36.375 
Q 73.09375 23.6875 67.984375 14.640625 
Q 62.890625 5.609375 53.21875 1.3125 
z
" id="DejaVuSans-81"/>
      <path d="M 8.5 21.578125 
L 8.5 54.6875 
L 17.484375 54.6875 
L 17.484375 21.921875 
Q 17.484375 14.15625 20.5 10.265625 
Q 23.53125 6.390625 29.59375 6.390625 
Q 36.859375 6.390625 41.078125 11.03125 
Q 45.3125 15.671875 45.3125 23.6875 
L 45.3125 54.6875 
L 54.296875 54.6875 
L 54.296875 0 
L 45.3125 0 
L 45.3125 8.40625 
Q 42.046875 3.421875 37.71875 1 
Q 33.40625 -1.421875 27.6875 -1.421875 
Q 18.265625 -1.421875 13.375 4.4375 
Q 8.5 10.296875 8.5 21.578125 
z
M 31.109375 56 
z
" id="DejaVuSans-117"/>
      <path d="M 34.28125 27.484375 
Q 23.390625 27.484375 19.1875 25 
Q 14.984375 22.515625 14.984375 16.5 
Q 14.984375 11.71875 18.140625 8.90625 
Q 21.296875 6.109375 26.703125 6.109375 
Q 34.1875 6.109375 38.703125 11.40625 
Q 43.21875 16.703125 43.21875 25.484375 
L 43.21875 27.484375 
z
M 52.203125 31.203125 
L 52.203125 0 
L 43.21875 0 
L 43.21875 8.296875 
Q 40.140625 3.328125 35.546875 0.953125 
Q 30.953125 -1.421875 24.3125 -1.421875 
Q 15.921875 -1.421875 10.953125 3.296875 
Q 6 8.015625 6 15.921875 
Q 6 25.140625 12.171875 29.828125 
Q 18.359375 34.515625 30.609375 34.515625 
L 43.21875 34.515625 
L 43.21875 35.40625 
Q 43.21875 41.609375 39.140625 45 
Q 35.0625 48.390625 27.6875 48.390625 
Q 23 48.390625 18.546875 47.265625 
Q 14.109375 46.140625 10.015625 43.890625 
L 10.015625 52.203125 
Q 14.9375 54.109375 19.578125 55.046875 
Q 24.21875 56 28.609375 56 
Q 40.484375 56 46.34375 49.84375 
Q 52.203125 43.703125 52.203125 31.203125 
z
" id="DejaVuSans-97"/>
      <path d="M 18.3125 70.21875 
L 18.3125 54.6875 
L 36.8125 54.6875 
L 36.8125 47.703125 
L 18.3125 47.703125 
L 18.3125 18.015625 
Q 18.3125 11.328125 20.140625 9.421875 
Q 21.96875 7.515625 27.59375 7.515625 
L 36.8125 7.515625 
L 36.8125 0 
L 27.59375 0 
Q 17.1875 0 13.234375 3.875 
Q 9.28125 7.765625 9.28125 18.015625 
L 9.28125 47.703125 
L 2.6875 47.703125 
L 2.6875 54.6875 
L 9.28125 54.6875 
L 9.28125 70.21875 
z
" id="DejaVuSans-116"/>
      <path d="M 32.171875 -5.078125 
Q 28.375 -14.84375 24.75 -17.8125 
Q 21.140625 -20.796875 15.09375 -20.796875 
L 7.90625 -20.796875 
L 7.90625 -13.28125 
L 13.1875 -13.28125 
Q 16.890625 -13.28125 18.9375 -11.515625 
Q 21 -9.765625 23.484375 -3.21875 
L 25.09375 0.875 
L 2.984375 54.6875 
L 12.5 54.6875 
L 29.59375 11.921875 
L 46.6875 54.6875 
L 56.203125 54.6875 
z
" id="DejaVuSans-121"/>
      <path d="M 31 75.875 
Q 24.46875 64.65625 21.28125 53.65625 
Q 18.109375 42.671875 18.109375 31.390625 
Q 18.109375 20.125 21.3125 9.0625 
Q 24.515625 -2 31 -13.1875 
L 23.1875 -13.1875 
Q 15.875 -1.703125 12.234375 9.375 
Q 8.59375 20.453125 8.59375 31.390625 
Q 8.59375 42.28125 12.203125 53.3125 
Q 15.828125 64.359375 23.1875 75.875 
z
" id="DejaVuSans-40"/>
      <path d="M 37.109375 75.984375 
L 37.109375 68.5 
L 28.515625 68.5 
Q 23.6875 68.5 21.796875 66.546875 
Q 19.921875 64.59375 19.921875 59.515625 
L 19.921875 54.6875 
L 34.71875 54.6875 
L 34.71875 47.703125 
L 19.921875 47.703125 
L 19.921875 0 
L 10.890625 0 
L 10.890625 47.703125 
L 2.296875 47.703125 
L 2.296875 54.6875 
L 10.890625 54.6875 
L 10.890625 58.5 
Q 10.890625 67.625 15.140625 71.796875 
Q 19.390625 75.984375 28.609375 75.984375 
z
" id="DejaVuSans-102"/>
      <path d="M 14.796875 27.296875 
Q 14.796875 17.390625 18.875 11.75 
Q 22.953125 6.109375 30.078125 6.109375 
Q 37.203125 6.109375 41.296875 11.75 
Q 45.40625 17.390625 45.40625 27.296875 
Q 45.40625 37.203125 41.296875 42.84375 
Q 37.203125 48.484375 30.078125 48.484375 
Q 22.953125 48.484375 18.875 42.84375 
Q 14.796875 37.203125 14.796875 27.296875 
z
M 45.40625 8.203125 
Q 42.578125 3.328125 38.25 0.953125 
Q 33.9375 -1.421875 27.875 -1.421875 
Q 17.96875 -1.421875 11.734375 6.484375 
Q 5.515625 14.40625 5.515625 27.296875 
Q 5.515625 40.1875 11.734375 48.09375 
Q 17.96875 56 27.875 56 
Q 33.9375 56 38.25 53.625 
Q 42.578125 51.265625 45.40625 46.390625 
L 45.40625 54.6875 
L 54.390625 54.6875 
L 54.390625 -20.796875 
L 45.40625 -20.796875 
z
" id="DejaVuSans-113"/>
      <path d="M 48.78125 52.59375 
L 48.78125 44.1875 
Q 44.96875 46.296875 41.140625 47.34375 
Q 37.3125 48.390625 33.40625 48.390625 
Q 24.65625 48.390625 19.8125 42.84375 
Q 14.984375 37.3125 14.984375 27.296875 
Q 14.984375 17.28125 19.8125 11.734375 
Q 24.65625 6.203125 33.40625 6.203125 
Q 37.3125 6.203125 41.140625 7.25 
Q 44.96875 8.296875 48.78125 10.40625 
L 48.78125 2.09375 
Q 45.015625 0.34375 40.984375 -0.53125 
Q 36.96875 -1.421875 32.421875 -1.421875 
Q 20.0625 -1.421875 12.78125 6.34375 
Q 5.515625 14.109375 5.515625 27.296875 
Q 5.515625 40.671875 12.859375 48.328125 
Q 20.21875 56 33.015625 56 
Q 37.15625 56 41.109375 55.140625 
Q 45.0625 54.296875 48.78125 52.59375 
z
" id="DejaVuSans-99"/>
      <path d="M 8.015625 75.875 
L 15.828125 75.875 
Q 23.140625 64.359375 26.78125 53.3125 
Q 30.421875 42.28125 30.421875 31.390625 
Q 30.421875 20.453125 26.78125 9.375 
Q 23.140625 -1.703125 15.828125 -13.1875 
L 8.015625 -13.1875 
Q 14.5 -2 17.703125 9.0625 
Q 20.90625 20.125 20.90625 31.390625 
Q 20.90625 42.671875 17.703125 53.65625 
Q 14.5 64.65625 8.015625 75.875 
z
" id="DejaVuSans-41"/>
     </defs>
     <g transform="translate(14.798438 229.467812)rotate(-90)scale(0.1 -0.1)">
      <use xlink:href="#DejaVuSans-81"/>
      <use x="78.710938" xlink:href="#DejaVuSans-117"/>
      <use x="142.089844" xlink:href="#DejaVuSans-97"/>
      <use x="203.369141" xlink:href="#DejaVuSans-110"/>
      <use x="266.748047" xlink:href="#DejaVuSans-116"/>
      <use x="305.957031" xlink:href="#DejaVuSans-105"/>
      <use x="333.740234" xlink:href="#DejaVuSans-116"/>
      <use x="372.949219" xlink:href="#DejaVuSans-121"/>
      <use x="432.128906" xlink:href="#DejaVuSans-32"/>
      <use x="463.916016" xlink:href="#DejaVuSans-40"/>
      <use x="502.929688" xlink:href="#DejaVuSans-102"/>
      <use x="538.134766" xlink:href="#DejaVuSans-114"/>
      <use x="576.998047" xlink:href="#DejaVuSans-101"/>
      <use x="638.521484" xlink:href="#DejaVuSans-113"/>
      <use x="701.998047" xlink:href="#DejaVuSans-117"/>
      <use x="765.376953" xlink:href="#DejaVuSans-101"/>
      <use x="826.900391" xlink:href="#DejaVuSans-110"/>
      <use x="890.279297" xlink:href="#DejaVuSans-99"/>
      <use x="945.259766" xlink:href="#DejaVuSans-121"/>
      <use x="1004.439453" xlink:href="#DejaVuSans-41"/>
     </g>
    </g>
   </g>
   <g id="line2d_16">
    <path clip-path="url(#pa6a3aa4bd8)" d="M 61.074638 313.193006 
L 82.861584 313.077613 
L 110.095267 312.708026 
L 115.542004 312.148651 
L 120.98874 311.146646 
L 126.435477 309.798932 
L 131.882213 308.125735 
L 134.605581 307.088685 
L 137.32895 305.882738 
L 145.499054 301.826569 
L 148.222423 300.660025 
L 159.115896 296.57772 
L 161.839264 295.14893 
L 164.562632 293.403881 
L 167.286 291.302283 
L 170.009369 288.826528 
L 175.456105 283.094049 
L 178.179473 280.246836 
L 180.902842 277.6511 
L 183.62621 275.211248 
L 186.349578 272.498177 
L 189.072946 268.856664 
L 191.796315 263.692874 
L 194.519683 256.835568 
L 199.96642 240.813706 
L 202.689788 234.453793 
L 205.413156 231.100082 
L 208.136524 231.340282 
L 210.859893 234.705815 
L 216.306629 245.240281 
L 219.029997 249.502321 
L 221.753366 252.00145 
L 224.476734 252.658349 
L 227.200102 251.687712 
L 229.92347 249.344976 
L 232.646839 245.892556 
L 238.093575 237.780709 
L 240.816943 235.055413 
L 243.540312 234.736898 
L 246.26368 237.50064 
L 248.987048 243.203879 
L 251.710416 250.875073 
L 254.433785 259.051675 
L 257.157153 266.279044 
L 259.880521 271.538341 
L 262.603889 274.465319 
L 265.327258 275.343685 
L 268.050626 274.923668 
L 270.773994 274.137178 
L 273.497362 273.796981 
L 276.220731 274.378798 
L 278.944099 275.95702 
L 281.667467 278.291533 
L 287.114204 283.675802 
L 289.837572 286.055037 
L 292.56094 287.977233 
L 295.284309 289.416888 
L 298.007677 290.44963 
L 300.731045 291.210949 
L 311.624518 293.859251 
L 317.071255 295.473621 
L 319.794623 296.42678 
L 322.517991 297.527317 
L 327.964728 299.990655 
L 330.688096 301.057592 
L 333.411464 301.754553 
L 336.134832 301.934755 
L 338.858201 301.548672 
L 341.581569 300.65996 
L 347.028305 298.157982 
L 349.751674 297.12838 
L 352.475042 296.660747 
L 355.19841 296.970051 
L 357.921778 298.111172 
L 360.645147 299.9609 
L 368.815251 306.980216 
L 371.53862 308.923108 
L 374.261988 310.43372 
L 376.985356 311.51512 
L 379.708724 312.230723 
L 382.432093 312.669983 
L 385.155461 312.921362 
L 390.602197 313.126184 
L 404.219039 313.192722 
L 406.942407 313.193341 
L 406.942407 313.193341 
" style="fill:none;stroke:#1f77b4;stroke-linecap:square;stroke-width:1.5;"/>
   </g>
   <g id="patch_103">
    <path d="M 43.78125 313.194375 
L 43.78125 41.394375 
" style="fill:none;stroke:#000000;stroke-linecap:square;stroke-linejoin:miter;stroke-width:0.8;"/>
   </g>
   <g id="patch_104">
    <path d="M 424.235795 313.194375 
L 424.235795 41.394375 
" style="fill:none;stroke:#000000;stroke-linecap:square;stroke-linejoin:miter;stroke-width:0.8;"/>
   </g>
   <g id="patch_105">
    <path d="M 43.78125 313.194375 
L 424.235795 313.194375 
" style="fill:none;stroke:#000000;stroke-linecap:square;stroke-linejoin:miter;stroke-width:0.8;"/>
   </g>
   <g id="patch_106">
    <path d="M 43.78125 41.394375 
L 424.235795 41.394375 
" style="fill:none;stroke:#000000;stroke-linecap:square;stroke-linejoin:miter;stroke-width:0.8;"/>
   </g>
   <g id="text_18">
    <!-- EnginePower distribution after log -->
    <defs>
     <path d="M 19.671875 64.796875 
L 19.671875 37.40625 
L 32.078125 37.40625 
Q 38.96875 37.40625 42.71875 40.96875 
Q 46.484375 44.53125 46.484375 51.125 
Q 46.484375 57.671875 42.71875 61.234375 
Q 38.96875 64.796875 32.078125 64.796875 
z
M 9.8125 72.90625 
L 32.078125 72.90625 
Q 44.34375 72.90625 50.609375 67.359375 
Q 56.890625 61.8125 56.890625 51.125 
Q 56.890625 40.328125 50.609375 34.8125 
Q 44.34375 29.296875 32.078125 29.296875 
L 19.671875 29.296875 
L 19.671875 0 
L 9.8125 0 
z
" id="DejaVuSans-80"/>
     <path d="M 45.40625 46.390625 
L 45.40625 75.984375 
L 54.390625 75.984375 
L 54.390625 0 
L 45.40625 0 
L 45.40625 8.203125 
Q 42.578125 3.328125 38.25 0.953125 
Q 33.9375 -1.421875 27.875 -1.421875 
Q 17.96875 -1.421875 11.734375 6.484375 
Q 5.515625 14.40625 5.515625 27.296875 
Q 5.515625 40.1875 11.734375 48.09375 
Q 17.96875 56 27.875 56 
Q 33.9375 56 38.25 53.625 
Q 42.578125 51.265625 45.40625 46.390625 
z
M 14.796875 27.296875 
Q 14.796875 17.390625 18.875 11.75 
Q 22.953125 6.109375 30.078125 6.109375 
Q 37.203125 6.109375 41.296875 11.75 
Q 45.40625 17.390625 45.40625 27.296875 
Q 45.40625 37.203125 41.296875 42.84375 
Q 37.203125 48.484375 30.078125 48.484375 
Q 22.953125 48.484375 18.875 42.84375 
Q 14.796875 37.203125 14.796875 27.296875 
z
" id="DejaVuSans-100"/>
     <path d="M 44.28125 53.078125 
L 44.28125 44.578125 
Q 40.484375 46.53125 36.375 47.5 
Q 32.28125 48.484375 27.875 48.484375 
Q 21.1875 48.484375 17.84375 46.4375 
Q 14.5 44.390625 14.5 40.28125 
Q 14.5 37.15625 16.890625 35.375 
Q 19.28125 33.59375 26.515625 31.984375 
L 29.59375 31.296875 
Q 39.15625 29.25 43.1875 25.515625 
Q 47.21875 21.78125 47.21875 15.09375 
Q 47.21875 7.46875 41.1875 3.015625 
Q 35.15625 -1.421875 24.609375 -1.421875 
Q 20.21875 -1.421875 15.453125 -0.5625 
Q 10.6875 0.296875 5.421875 2 
L 5.421875 11.28125 
Q 10.40625 8.6875 15.234375 7.390625 
Q 20.0625 6.109375 24.8125 6.109375 
Q 31.15625 6.109375 34.5625 8.28125 
Q 37.984375 10.453125 37.984375 14.40625 
Q 37.984375 18.0625 35.515625 20.015625 
Q 33.0625 21.96875 24.703125 23.78125 
L 21.578125 24.515625 
Q 13.234375 26.265625 9.515625 29.90625 
Q 5.8125 33.546875 5.8125 39.890625 
Q 5.8125 47.609375 11.28125 51.796875 
Q 16.75 56 26.8125 56 
Q 31.78125 56 36.171875 55.265625 
Q 40.578125 54.546875 44.28125 53.078125 
z
" id="DejaVuSans-115"/>
     <path d="M 48.6875 27.296875 
Q 48.6875 37.203125 44.609375 42.84375 
Q 40.53125 48.484375 33.40625 48.484375 
Q 26.265625 48.484375 22.1875 42.84375 
Q 18.109375 37.203125 18.109375 27.296875 
Q 18.109375 17.390625 22.1875 11.75 
Q 26.265625 6.109375 33.40625 6.109375 
Q 40.53125 6.109375 44.609375 11.75 
Q 48.6875 17.390625 48.6875 27.296875 
z
M 18.109375 46.390625 
Q 20.953125 51.265625 25.265625 53.625 
Q 29.59375 56 35.59375 56 
Q 45.5625 56 51.78125 48.09375 
Q 58.015625 40.1875 58.015625 27.296875 
Q 58.015625 14.40625 51.78125 6.484375 
Q 45.5625 -1.421875 35.59375 -1.421875 
Q 29.59375 -1.421875 25.265625 0.953125 
Q 20.953125 3.328125 18.109375 8.203125 
L 18.109375 0 
L 9.078125 0 
L 9.078125 75.984375 
L 18.109375 75.984375 
z
" id="DejaVuSans-98"/>
     <path d="M 9.421875 75.984375 
L 18.40625 75.984375 
L 18.40625 0 
L 9.421875 0 
z
" id="DejaVuSans-108"/>
    </defs>
    <g transform="translate(106.564773 18.597656)scale(0.15 -0.15)">
     <use xlink:href="#DejaVuSans-69"/>
     <use x="63.183594" xlink:href="#DejaVuSans-110"/>
     <use x="126.5625" xlink:href="#DejaVuSans-103"/>
     <use x="190.039062" xlink:href="#DejaVuSans-105"/>
     <use x="217.822266" xlink:href="#DejaVuSans-110"/>
     <use x="281.201172" xlink:href="#DejaVuSans-101"/>
     <use x="342.724609" xlink:href="#DejaVuSans-80"/>
     <use x="399.402344" xlink:href="#DejaVuSans-111"/>
     <use x="460.583984" xlink:href="#DejaVuSans-119"/>
     <use x="542.371094" xlink:href="#DejaVuSans-101"/>
     <use x="603.894531" xlink:href="#DejaVuSans-114"/>
     <use x="645.007812" xlink:href="#DejaVuSans-32"/>
     <use x="676.794922" xlink:href="#DejaVuSans-100"/>
     <use x="740.271484" xlink:href="#DejaVuSans-105"/>
     <use x="768.054688" xlink:href="#DejaVuSans-115"/>
     <use x="820.154297" xlink:href="#DejaVuSans-116"/>
     <use x="859.363281" xlink:href="#DejaVuSans-114"/>
     <use x="900.476562" xlink:href="#DejaVuSans-105"/>
     <use x="928.259766" xlink:href="#DejaVuSans-98"/>
     <use x="991.736328" xlink:href="#DejaVuSans-117"/>
     <use x="1055.115234" xlink:href="#DejaVuSans-116"/>
     <use x="1094.324219" xlink:href="#DejaVuSans-105"/>
     <use x="1122.107422" xlink:href="#DejaVuSans-111"/>
     <use x="1183.289062" xlink:href="#DejaVuSans-110"/>
     <use x="1246.667969" xlink:href="#DejaVuSans-32"/>
     <use x="1278.455078" xlink:href="#DejaVuSans-97"/>
     <use x="1339.734375" xlink:href="#DejaVuSans-102"/>
     <use x="1373.189453" xlink:href="#DejaVuSans-116"/>
     <use x="1412.398438" xlink:href="#DejaVuSans-101"/>
     <use x="1473.921875" xlink:href="#DejaVuSans-114"/>
     <use x="1515.035156" xlink:href="#DejaVuSans-32"/>
     <use x="1546.822266" xlink:href="#DejaVuSans-108"/>
     <use x="1574.605469" xlink:href="#DejaVuSans-111"/>
     <use x="1635.787109" xlink:href="#DejaVuSans-103"/>
    </g>
    <!--  -->
    <g transform="translate(234.008523 35.394375)scale(0.15 -0.15)"/>
   </g>
  </g>
  <g id="axes_2">
   <g id="patch_107">
    <path d="M 500.326705 313.194375 
L 880.78125 313.194375 
L 880.78125 41.394375 
L 500.326705 41.394375 
z
" style="fill:#ffffff;"/>
   </g>
   <g id="patch_108">
    <path clip-path="url(#p1c71110bd9)" d="M 656.588259 68.574375 
L 656.588259 286.014375 
L 735.351702 286.014375 
L 735.351702 68.574375 
L 656.588259 68.574375 
z
" style="fill:#3274a1;stroke:#3f3f3f;stroke-linejoin:miter;stroke-width:1.5;"/>
   </g>
   <g id="matplotlib.axis_3">
    <g id="xtick_7">
     <g id="line2d_17">
      <g>
       <use style="stroke:#000000;stroke-width:0.8;" x="545.881733" xlink:href="#m8818c77f37" y="313.194375"/>
      </g>
     </g>
     <g id="text_19">
      <!-- 4.5 -->
      <g transform="translate(537.93017 327.792812)scale(0.1 -0.1)">
       <use xlink:href="#DejaVuSans-52"/>
       <use x="63.623047" xlink:href="#DejaVuSans-46"/>
       <use x="95.410156" xlink:href="#DejaVuSans-53"/>
      </g>
     </g>
    </g>
    <g id="xtick_8">
     <g id="line2d_18">
      <g>
       <use style="stroke:#000000;stroke-width:0.8;" x="623.30584" xlink:href="#m8818c77f37" y="313.194375"/>
      </g>
     </g>
     <g id="text_20">
      <!-- 5.0 -->
      <g transform="translate(615.354278 327.792812)scale(0.1 -0.1)">
       <use xlink:href="#DejaVuSans-53"/>
       <use x="63.623047" xlink:href="#DejaVuSans-46"/>
       <use x="95.410156" xlink:href="#DejaVuSans-48"/>
      </g>
     </g>
    </g>
    <g id="xtick_9">
     <g id="line2d_19">
      <g>
       <use style="stroke:#000000;stroke-width:0.8;" x="700.729948" xlink:href="#m8818c77f37" y="313.194375"/>
      </g>
     </g>
     <g id="text_21">
      <!-- 5.5 -->
      <g transform="translate(692.778385 327.792812)scale(0.1 -0.1)">
       <use xlink:href="#DejaVuSans-53"/>
       <use x="63.623047" xlink:href="#DejaVuSans-46"/>
       <use x="95.410156" xlink:href="#DejaVuSans-53"/>
      </g>
     </g>
    </g>
    <g id="xtick_10">
     <g id="line2d_20">
      <g>
       <use style="stroke:#000000;stroke-width:0.8;" x="778.154055" xlink:href="#m8818c77f37" y="313.194375"/>
      </g>
     </g>
     <g id="text_22">
      <!-- 6.0 -->
      <g transform="translate(770.202493 327.792812)scale(0.1 -0.1)">
       <use xlink:href="#DejaVuSans-54"/>
       <use x="63.623047" xlink:href="#DejaVuSans-46"/>
       <use x="95.410156" xlink:href="#DejaVuSans-48"/>
      </g>
     </g>
    </g>
    <g id="xtick_11">
     <g id="line2d_21">
      <g>
       <use style="stroke:#000000;stroke-width:0.8;" x="855.578163" xlink:href="#m8818c77f37" y="313.194375"/>
      </g>
     </g>
     <g id="text_23">
      <!-- 6.5 -->
      <g transform="translate(847.6266 327.792812)scale(0.1 -0.1)">
       <use xlink:href="#DejaVuSans-54"/>
       <use x="63.623047" xlink:href="#DejaVuSans-46"/>
       <use x="95.410156" xlink:href="#DejaVuSans-53"/>
      </g>
     </g>
    </g>
    <g id="text_24">
     <!-- Engine power -->
     <g transform="translate(656.373509 341.470937)scale(0.1 -0.1)">
      <use xlink:href="#DejaVuSans-69"/>
      <use x="63.183594" xlink:href="#DejaVuSans-110"/>
      <use x="126.5625" xlink:href="#DejaVuSans-103"/>
      <use x="190.039062" xlink:href="#DejaVuSans-105"/>
      <use x="217.822266" xlink:href="#DejaVuSans-110"/>
      <use x="281.201172" xlink:href="#DejaVuSans-101"/>
      <use x="342.724609" xlink:href="#DejaVuSans-32"/>
      <use x="374.511719" xlink:href="#DejaVuSans-112"/>
      <use x="437.988281" xlink:href="#DejaVuSans-111"/>
      <use x="499.169922" xlink:href="#DejaVuSans-119"/>
      <use x="580.957031" xlink:href="#DejaVuSans-101"/>
      <use x="642.480469" xlink:href="#DejaVuSans-114"/>
     </g>
    </g>
   </g>
   <g id="matplotlib.axis_4">
    <g id="ytick_10">
     <g id="line2d_22">
      <g>
       <use style="stroke:#000000;stroke-width:0.8;" x="500.326705" xlink:href="#mf9446a7eed" y="177.294375"/>
      </g>
     </g>
    </g>
   </g>
   <g id="line2d_23">
    <path clip-path="url(#p1c71110bd9)" d="M 656.588259 177.294375 
L 554.224473 177.294375 
" style="fill:none;stroke:#3f3f3f;stroke-linecap:square;stroke-width:1.5;"/>
   </g>
   <g id="line2d_24">
    <path clip-path="url(#p1c71110bd9)" d="M 735.351702 177.294375 
L 849.369439 177.294375 
" style="fill:none;stroke:#3f3f3f;stroke-linecap:square;stroke-width:1.5;"/>
   </g>
   <g id="line2d_25">
    <path clip-path="url(#p1c71110bd9)" d="M 554.224473 122.934375 
L 554.224473 231.654375 
" style="fill:none;stroke:#3f3f3f;stroke-linecap:square;stroke-width:1.5;"/>
   </g>
   <g id="line2d_26">
    <path clip-path="url(#p1c71110bd9)" d="M 849.369439 122.934375 
L 849.369439 231.654375 
" style="fill:none;stroke:#3f3f3f;stroke-linecap:square;stroke-width:1.5;"/>
   </g>
   <g id="line2d_27">
    <defs>
     <path d="M -0 3.535534 
L 2.12132 0 
L -0 -3.535534 
L -2.12132 -0 
z
" id="maa6642591f" style="stroke:#3f3f3f;stroke-linejoin:miter;"/>
    </defs>
    <g clip-path="url(#p1c71110bd9)">
     <use style="fill:#3f3f3f;stroke:#3f3f3f;stroke-linejoin:miter;" x="531.437375" xlink:href="#maa6642591f" y="177.294375"/>
     <use style="fill:#3f3f3f;stroke:#3f3f3f;stroke-linejoin:miter;" x="517.620093" xlink:href="#maa6642591f" y="177.294375"/>
     <use style="fill:#3f3f3f;stroke:#3f3f3f;stroke-linejoin:miter;" x="531.437375" xlink:href="#maa6642591f" y="177.294375"/>
     <use style="fill:#3f3f3f;stroke:#3f3f3f;stroke-linejoin:miter;" x="531.437375" xlink:href="#maa6642591f" y="177.294375"/>
     <use style="fill:#3f3f3f;stroke:#3f3f3f;stroke-linejoin:miter;" x="531.437375" xlink:href="#maa6642591f" y="177.294375"/>
     <use style="fill:#3f3f3f;stroke:#3f3f3f;stroke-linejoin:miter;" x="517.620093" xlink:href="#maa6642591f" y="177.294375"/>
     <use style="fill:#3f3f3f;stroke:#3f3f3f;stroke-linejoin:miter;" x="863.487862" xlink:href="#maa6642591f" y="177.294375"/>
    </g>
   </g>
   <g id="line2d_28">
    <path clip-path="url(#p1c71110bd9)" d="M 691.813433 68.574375 
L 691.813433 286.014375 
" style="fill:none;stroke:#3f3f3f;stroke-linecap:square;stroke-width:1.5;"/>
   </g>
   <g id="patch_109">
    <path d="M 500.326705 313.194375 
L 500.326705 41.394375 
" style="fill:none;stroke:#000000;stroke-linecap:square;stroke-linejoin:miter;stroke-width:0.8;"/>
   </g>
   <g id="patch_110">
    <path d="M 880.78125 313.194375 
L 880.78125 41.394375 
" style="fill:none;stroke:#000000;stroke-linecap:square;stroke-linejoin:miter;stroke-width:0.8;"/>
   </g>
   <g id="patch_111">
    <path d="M 500.326705 313.194375 
L 880.78125 313.194375 
" style="fill:none;stroke:#000000;stroke-linecap:square;stroke-linejoin:miter;stroke-width:0.8;"/>
   </g>
   <g id="patch_112">
    <path d="M 500.326705 41.394375 
L 880.78125 41.394375 
" style="fill:none;stroke:#000000;stroke-linecap:square;stroke-linejoin:miter;stroke-width:0.8;"/>
   </g>
   <g id="text_25">
    <!-- Box Plot for engine power after log -->
    <defs>
     <path d="M 19.671875 34.8125 
L 19.671875 8.109375 
L 35.5 8.109375 
Q 43.453125 8.109375 47.28125 11.40625 
Q 51.125 14.703125 51.125 21.484375 
Q 51.125 28.328125 47.28125 31.5625 
Q 43.453125 34.8125 35.5 34.8125 
z
M 19.671875 64.796875 
L 19.671875 42.828125 
L 34.28125 42.828125 
Q 41.5 42.828125 45.03125 45.53125 
Q 48.578125 48.25 48.578125 53.8125 
Q 48.578125 59.328125 45.03125 62.0625 
Q 41.5 64.796875 34.28125 64.796875 
z
M 9.8125 72.90625 
L 35.015625 72.90625 
Q 46.296875 72.90625 52.390625 68.21875 
Q 58.5 63.53125 58.5 54.890625 
Q 58.5 48.1875 55.375 44.234375 
Q 52.25 40.28125 46.1875 39.3125 
Q 53.46875 37.75 57.5 32.78125 
Q 61.53125 27.828125 61.53125 20.40625 
Q 61.53125 10.640625 54.890625 5.3125 
Q 48.25 0 35.984375 0 
L 9.8125 0 
z
" id="DejaVuSans-66"/>
     <path d="M 54.890625 54.6875 
L 35.109375 28.078125 
L 55.90625 0 
L 45.3125 0 
L 29.390625 21.484375 
L 13.484375 0 
L 2.875 0 
L 24.125 28.609375 
L 4.6875 54.6875 
L 15.28125 54.6875 
L 29.78125 35.203125 
L 44.28125 54.6875 
z
" id="DejaVuSans-120"/>
    </defs>
    <g transform="translate(559.925071 18.597656)scale(0.15 -0.15)">
     <use xlink:href="#DejaVuSans-66"/>
     <use x="68.603516" xlink:href="#DejaVuSans-111"/>
     <use x="126.660156" xlink:href="#DejaVuSans-120"/>
     <use x="185.839844" xlink:href="#DejaVuSans-32"/>
     <use x="217.626953" xlink:href="#DejaVuSans-80"/>
     <use x="277.929688" xlink:href="#DejaVuSans-108"/>
     <use x="305.712891" xlink:href="#DejaVuSans-111"/>
     <use x="366.894531" xlink:href="#DejaVuSans-116"/>
     <use x="406.103516" xlink:href="#DejaVuSans-32"/>
     <use x="437.890625" xlink:href="#DejaVuSans-102"/>
     <use x="473.095703" xlink:href="#DejaVuSans-111"/>
     <use x="534.277344" xlink:href="#DejaVuSans-114"/>
     <use x="575.390625" xlink:href="#DejaVuSans-32"/>
     <use x="607.177734" xlink:href="#DejaVuSans-101"/>
     <use x="668.701172" xlink:href="#DejaVuSans-110"/>
     <use x="732.080078" xlink:href="#DejaVuSans-103"/>
     <use x="795.556641" xlink:href="#DejaVuSans-105"/>
     <use x="823.339844" xlink:href="#DejaVuSans-110"/>
     <use x="886.71875" xlink:href="#DejaVuSans-101"/>
     <use x="948.242188" xlink:href="#DejaVuSans-32"/>
     <use x="980.029297" xlink:href="#DejaVuSans-112"/>
     <use x="1043.505859" xlink:href="#DejaVuSans-111"/>
     <use x="1104.6875" xlink:href="#DejaVuSans-119"/>
     <use x="1186.474609" xlink:href="#DejaVuSans-101"/>
     <use x="1247.998047" xlink:href="#DejaVuSans-114"/>
     <use x="1289.111328" xlink:href="#DejaVuSans-32"/>
     <use x="1320.898438" xlink:href="#DejaVuSans-97"/>
     <use x="1382.177734" xlink:href="#DejaVuSans-102"/>
     <use x="1415.632812" xlink:href="#DejaVuSans-116"/>
     <use x="1454.841797" xlink:href="#DejaVuSans-101"/>
     <use x="1516.365234" xlink:href="#DejaVuSans-114"/>
     <use x="1557.478516" xlink:href="#DejaVuSans-32"/>
     <use x="1589.265625" xlink:href="#DejaVuSans-108"/>
     <use x="1617.048828" xlink:href="#DejaVuSans-111"/>
     <use x="1678.230469" xlink:href="#DejaVuSans-103"/>
    </g>
    <!--  -->
    <g transform="translate(690.553977 35.394375)scale(0.15 -0.15)"/>
   </g>
  </g>
 </g>
 <defs>
  <clipPath id="pa6a3aa4bd8">
   <rect height="271.8" width="380.454545" x="43.78125" y="41.394375"/>
  </clipPath>
  <clipPath id="p1c71110bd9">
   <rect height="271.8" width="380.454545" x="500.326705" y="41.394375"/>
  </clipPath>
 </defs>
</svg>
