<?xml version="1.0" encoding="utf-8" standalone="no"?>
<!DOCTYPE svg PUBLIC "-//W3C//DTD SVG 1.1//EN"
  "http://www.w3.org/Graphics/SVG/1.1/DTD/svg11.dtd">
<!-- Created with matplotlib (https://matplotlib.org/) -->
<svg height="350.750625pt" version="1.1" viewBox="0 0 891.165625 350.750625" width="891.165625pt" xmlns="http://www.w3.org/2000/svg" xmlns:xlink="http://www.w3.org/1999/xlink">
 <defs>
  <style type="text/css">
*{stroke-linecap:butt;stroke-linejoin:round;}
  </style>
 </defs>
 <g id="figure_1">
  <g id="patch_1">
   <path d="M 0 350.750625 
L 891.165625 350.750625 
L 891.165625 0 
L 0 0 
z
" style="fill:none;"/>
  </g>
  <g id="axes_1">
   <g id="patch_2">
    <path d="M 46.965625 313.194375 
L 427.42017 313.194375 
L 427.42017 41.394375 
L 46.965625 41.394375 
z
" style="fill:#ffffff;"/>
   </g>
   <g id="patch_3">
    <path clip-path="url(#p7a58f1a91a)" d="M 81.674069 313.194375 
L 84.784445 313.194375 
L 84.784445 312.882499 
L 81.674069 312.882499 
z
" style="fill:#1f77b4;opacity:0.4;"/>
   </g>
   <g id="patch_4">
    <path clip-path="url(#p7a58f1a91a)" d="M 84.784445 313.194375 
L 87.894822 313.194375 
L 87.894822 313.194375 
L 84.784445 313.194375 
z
" style="fill:#1f77b4;opacity:0.4;"/>
   </g>
   <g id="patch_5">
    <path clip-path="url(#p7a58f1a91a)" d="M 87.894822 313.194375 
L 91.005198 313.194375 
L 91.005198 313.194375 
L 87.894822 313.194375 
z
" style="fill:#1f77b4;opacity:0.4;"/>
   </g>
   <g id="patch_6">
    <path clip-path="url(#p7a58f1a91a)" d="M 91.005198 313.194375 
L 94.115575 313.194375 
L 94.115575 313.194375 
L 91.005198 313.194375 
z
" style="fill:#1f77b4;opacity:0.4;"/>
   </g>
   <g id="patch_7">
    <path clip-path="url(#p7a58f1a91a)" d="M 94.115575 313.194375 
L 97.225952 313.194375 
L 97.225952 313.194375 
L 94.115575 313.194375 
z
" style="fill:#1f77b4;opacity:0.4;"/>
   </g>
   <g id="patch_8">
    <path clip-path="url(#p7a58f1a91a)" d="M 97.225952 313.194375 
L 100.336328 313.194375 
L 100.336328 313.194375 
L 97.225952 313.194375 
z
" style="fill:#1f77b4;opacity:0.4;"/>
   </g>
   <g id="patch_9">
    <path clip-path="url(#p7a58f1a91a)" d="M 100.336328 313.194375 
L 103.446705 313.194375 
L 103.446705 313.194375 
L 100.336328 313.194375 
z
" style="fill:#1f77b4;opacity:0.4;"/>
   </g>
   <g id="patch_10">
    <path clip-path="url(#p7a58f1a91a)" d="M 103.446705 313.194375 
L 106.557081 313.194375 
L 106.557081 313.194375 
L 103.446705 313.194375 
z
" style="fill:#1f77b4;opacity:0.4;"/>
   </g>
   <g id="patch_11">
    <path clip-path="url(#p7a58f1a91a)" d="M 106.557081 313.194375 
L 109.667458 313.194375 
L 109.667458 312.570623 
L 106.557081 312.570623 
z
" style="fill:#1f77b4;opacity:0.4;"/>
   </g>
   <g id="patch_12">
    <path clip-path="url(#p7a58f1a91a)" d="M 109.667458 313.194375 
L 112.777834 313.194375 
L 112.777834 313.194375 
L 109.667458 313.194375 
z
" style="fill:#1f77b4;opacity:0.4;"/>
   </g>
   <g id="patch_13">
    <path clip-path="url(#p7a58f1a91a)" d="M 112.777834 313.194375 
L 115.888211 313.194375 
L 115.888211 312.882499 
L 112.777834 312.882499 
z
" style="fill:#1f77b4;opacity:0.4;"/>
   </g>
   <g id="patch_14">
    <path clip-path="url(#p7a58f1a91a)" d="M 115.888211 313.194375 
L 118.998588 313.194375 
L 118.998588 313.194375 
L 115.888211 313.194375 
z
" style="fill:#1f77b4;opacity:0.4;"/>
   </g>
   <g id="patch_15">
    <path clip-path="url(#p7a58f1a91a)" d="M 118.998588 313.194375 
L 122.108964 313.194375 
L 122.108964 312.570623 
L 118.998588 312.570623 
z
" style="fill:#1f77b4;opacity:0.4;"/>
   </g>
   <g id="patch_16">
    <path clip-path="url(#p7a58f1a91a)" d="M 122.108964 313.194375 
L 125.219341 313.194375 
L 125.219341 313.194375 
L 122.108964 313.194375 
z
" style="fill:#1f77b4;opacity:0.4;"/>
   </g>
   <g id="patch_17">
    <path clip-path="url(#p7a58f1a91a)" d="M 125.219341 313.194375 
L 128.329717 313.194375 
L 128.329717 313.194375 
L 125.219341 313.194375 
z
" style="fill:#1f77b4;opacity:0.4;"/>
   </g>
   <g id="patch_18">
    <path clip-path="url(#p7a58f1a91a)" d="M 128.329717 313.194375 
L 131.440094 313.194375 
L 131.440094 313.194375 
L 128.329717 313.194375 
z
" style="fill:#1f77b4;opacity:0.4;"/>
   </g>
   <g id="patch_19">
    <path clip-path="url(#p7a58f1a91a)" d="M 131.440094 313.194375 
L 134.55047 313.194375 
L 134.55047 311.946871 
L 131.440094 311.946871 
z
" style="fill:#1f77b4;opacity:0.4;"/>
   </g>
   <g id="patch_20">
    <path clip-path="url(#p7a58f1a91a)" d="M 134.55047 313.194375 
L 137.660847 313.194375 
L 137.660847 313.194375 
L 134.55047 313.194375 
z
" style="fill:#1f77b4;opacity:0.4;"/>
   </g>
   <g id="patch_21">
    <path clip-path="url(#p7a58f1a91a)" d="M 137.660847 313.194375 
L 140.771224 313.194375 
L 140.771224 313.194375 
L 137.660847 313.194375 
z
" style="fill:#1f77b4;opacity:0.4;"/>
   </g>
   <g id="patch_22">
    <path clip-path="url(#p7a58f1a91a)" d="M 140.771224 313.194375 
L 143.8816 313.194375 
L 143.8816 313.194375 
L 140.771224 313.194375 
z
" style="fill:#1f77b4;opacity:0.4;"/>
   </g>
   <g id="patch_23">
    <path clip-path="url(#p7a58f1a91a)" d="M 143.8816 313.194375 
L 146.991977 313.194375 
L 146.991977 313.194375 
L 143.8816 313.194375 
z
" style="fill:#1f77b4;opacity:0.4;"/>
   </g>
   <g id="patch_24">
    <path clip-path="url(#p7a58f1a91a)" d="M 146.991977 313.194375 
L 150.102353 313.194375 
L 150.102353 312.570623 
L 146.991977 312.570623 
z
" style="fill:#1f77b4;opacity:0.4;"/>
   </g>
   <g id="patch_25">
    <path clip-path="url(#p7a58f1a91a)" d="M 150.102353 313.194375 
L 153.21273 313.194375 
L 153.21273 313.194375 
L 150.102353 313.194375 
z
" style="fill:#1f77b4;opacity:0.4;"/>
   </g>
   <g id="patch_26">
    <path clip-path="url(#p7a58f1a91a)" d="M 153.21273 313.194375 
L 156.323107 313.194375 
L 156.323107 311.634995 
L 153.21273 311.634995 
z
" style="fill:#1f77b4;opacity:0.4;"/>
   </g>
   <g id="patch_27">
    <path clip-path="url(#p7a58f1a91a)" d="M 156.323107 313.194375 
L 159.433483 313.194375 
L 159.433483 313.194375 
L 156.323107 313.194375 
z
" style="fill:#1f77b4;opacity:0.4;"/>
   </g>
   <g id="patch_28">
    <path clip-path="url(#p7a58f1a91a)" d="M 159.433483 313.194375 
L 162.54386 313.194375 
L 162.54386 313.194375 
L 159.433483 313.194375 
z
" style="fill:#1f77b4;opacity:0.4;"/>
   </g>
   <g id="patch_29">
    <path clip-path="url(#p7a58f1a91a)" d="M 162.54386 313.194375 
L 165.654236 313.194375 
L 165.654236 313.194375 
L 162.54386 313.194375 
z
" style="fill:#1f77b4;opacity:0.4;"/>
   </g>
   <g id="patch_30">
    <path clip-path="url(#p7a58f1a91a)" d="M 165.654236 313.194375 
L 168.764613 313.194375 
L 168.764613 310.075614 
L 165.654236 310.075614 
z
" style="fill:#1f77b4;opacity:0.4;"/>
   </g>
   <g id="patch_31">
    <path clip-path="url(#p7a58f1a91a)" d="M 168.764613 313.194375 
L 171.874989 313.194375 
L 171.874989 313.194375 
L 168.764613 313.194375 
z
" style="fill:#1f77b4;opacity:0.4;"/>
   </g>
   <g id="patch_32">
    <path clip-path="url(#p7a58f1a91a)" d="M 171.874989 313.194375 
L 174.985366 313.194375 
L 174.985366 311.011242 
L 171.874989 311.011242 
z
" style="fill:#1f77b4;opacity:0.4;"/>
   </g>
   <g id="patch_33">
    <path clip-path="url(#p7a58f1a91a)" d="M 174.985366 313.194375 
L 178.095743 313.194375 
L 178.095743 313.194375 
L 174.985366 313.194375 
z
" style="fill:#1f77b4;opacity:0.4;"/>
   </g>
   <g id="patch_34">
    <path clip-path="url(#p7a58f1a91a)" d="M 178.095743 313.194375 
L 181.206119 313.194375 
L 181.206119 312.882499 
L 178.095743 312.882499 
z
" style="fill:#1f77b4;opacity:0.4;"/>
   </g>
   <g id="patch_35">
    <path clip-path="url(#p7a58f1a91a)" d="M 181.206119 313.194375 
L 184.316496 313.194375 
L 184.316496 313.194375 
L 181.206119 313.194375 
z
" style="fill:#1f77b4;opacity:0.4;"/>
   </g>
   <g id="patch_36">
    <path clip-path="url(#p7a58f1a91a)" d="M 184.316496 313.194375 
L 187.426872 313.194375 
L 187.426872 309.763738 
L 184.316496 309.763738 
z
" style="fill:#1f77b4;opacity:0.4;"/>
   </g>
   <g id="patch_37">
    <path clip-path="url(#p7a58f1a91a)" d="M 187.426872 313.194375 
L 190.537249 313.194375 
L 190.537249 313.194375 
L 187.426872 313.194375 
z
" style="fill:#1f77b4;opacity:0.4;"/>
   </g>
   <g id="patch_38">
    <path clip-path="url(#p7a58f1a91a)" d="M 190.537249 313.194375 
L 193.647626 313.194375 
L 193.647626 312.570623 
L 190.537249 312.570623 
z
" style="fill:#1f77b4;opacity:0.4;"/>
   </g>
   <g id="patch_39">
    <path clip-path="url(#p7a58f1a91a)" d="M 193.647626 313.194375 
L 196.758002 313.194375 
L 196.758002 313.194375 
L 193.647626 313.194375 
z
" style="fill:#1f77b4;opacity:0.4;"/>
   </g>
   <g id="patch_40">
    <path clip-path="url(#p7a58f1a91a)" d="M 196.758002 313.194375 
L 199.868379 313.194375 
L 199.868379 311.634995 
L 196.758002 311.634995 
z
" style="fill:#1f77b4;opacity:0.4;"/>
   </g>
   <g id="patch_41">
    <path clip-path="url(#p7a58f1a91a)" d="M 199.868379 313.194375 
L 202.978755 313.194375 
L 202.978755 313.194375 
L 199.868379 313.194375 
z
" style="fill:#1f77b4;opacity:0.4;"/>
   </g>
   <g id="patch_42">
    <path clip-path="url(#p7a58f1a91a)" d="M 202.978755 313.194375 
L 206.089132 313.194375 
L 206.089132 298.224323 
L 202.978755 298.224323 
z
" style="fill:#1f77b4;opacity:0.4;"/>
   </g>
   <g id="patch_43">
    <path clip-path="url(#p7a58f1a91a)" d="M 206.089132 313.194375 
L 209.199508 313.194375 
L 209.199508 313.194375 
L 206.089132 313.194375 
z
" style="fill:#1f77b4;opacity:0.4;"/>
   </g>
   <g id="patch_44">
    <path clip-path="url(#p7a58f1a91a)" d="M 209.199508 313.194375 
L 212.309885 313.194375 
L 212.309885 311.946871 
L 209.199508 311.946871 
z
" style="fill:#1f77b4;opacity:0.4;"/>
   </g>
   <g id="patch_45">
    <path clip-path="url(#p7a58f1a91a)" d="M 212.309885 313.194375 
L 215.420262 313.194375 
L 215.420262 313.194375 
L 212.309885 313.194375 
z
" style="fill:#1f77b4;opacity:0.4;"/>
   </g>
   <g id="patch_46">
    <path clip-path="url(#p7a58f1a91a)" d="M 215.420262 313.194375 
L 218.530638 313.194375 
L 218.530638 313.194375 
L 215.420262 313.194375 
z
" style="fill:#1f77b4;opacity:0.4;"/>
   </g>
   <g id="patch_47">
    <path clip-path="url(#p7a58f1a91a)" d="M 218.530638 313.194375 
L 221.641015 313.194375 
L 221.641015 308.82811 
L 218.530638 308.82811 
z
" style="fill:#1f77b4;opacity:0.4;"/>
   </g>
   <g id="patch_48">
    <path clip-path="url(#p7a58f1a91a)" d="M 221.641015 313.194375 
L 224.751391 313.194375 
L 224.751391 313.194375 
L 221.641015 313.194375 
z
" style="fill:#1f77b4;opacity:0.4;"/>
   </g>
   <g id="patch_49">
    <path clip-path="url(#p7a58f1a91a)" d="M 224.751391 313.194375 
L 227.861768 313.194375 
L 227.861768 312.882499 
L 224.751391 312.882499 
z
" style="fill:#1f77b4;opacity:0.4;"/>
   </g>
   <g id="patch_50">
    <path clip-path="url(#p7a58f1a91a)" d="M 227.861768 313.194375 
L 230.972145 313.194375 
L 230.972145 313.194375 
L 227.861768 313.194375 
z
" style="fill:#1f77b4;opacity:0.4;"/>
   </g>
   <g id="patch_51">
    <path clip-path="url(#p7a58f1a91a)" d="M 230.972145 313.194375 
L 234.082521 313.194375 
L 234.082521 303.526217 
L 230.972145 303.526217 
z
" style="fill:#1f77b4;opacity:0.4;"/>
   </g>
   <g id="patch_52">
    <path clip-path="url(#p7a58f1a91a)" d="M 234.082521 313.194375 
L 237.192898 313.194375 
L 237.192898 313.194375 
L 234.082521 313.194375 
z
" style="fill:#1f77b4;opacity:0.4;"/>
   </g>
   <g id="patch_53">
    <path clip-path="url(#p7a58f1a91a)" d="M 237.192898 313.194375 
L 240.303274 313.194375 
L 240.303274 305.397473 
L 237.192898 305.397473 
z
" style="fill:#1f77b4;opacity:0.4;"/>
   </g>
   <g id="patch_54">
    <path clip-path="url(#p7a58f1a91a)" d="M 240.303274 313.194375 
L 243.413651 313.194375 
L 243.413651 313.194375 
L 240.303274 313.194375 
z
" style="fill:#1f77b4;opacity:0.4;"/>
   </g>
   <g id="patch_55">
    <path clip-path="url(#p7a58f1a91a)" d="M 243.413651 313.194375 
L 246.524027 313.194375 
L 246.524027 308.516234 
L 243.413651 308.516234 
z
" style="fill:#1f77b4;opacity:0.4;"/>
   </g>
   <g id="patch_56">
    <path clip-path="url(#p7a58f1a91a)" d="M 246.524027 313.194375 
L 249.634404 313.194375 
L 249.634404 313.194375 
L 246.524027 313.194375 
z
" style="fill:#1f77b4;opacity:0.4;"/>
   </g>
   <g id="patch_57">
    <path clip-path="url(#p7a58f1a91a)" d="M 249.634404 313.194375 
L 252.744781 313.194375 
L 252.744781 308.204358 
L 249.634404 308.204358 
z
" style="fill:#1f77b4;opacity:0.4;"/>
   </g>
   <g id="patch_58">
    <path clip-path="url(#p7a58f1a91a)" d="M 252.744781 313.194375 
L 255.855157 313.194375 
L 255.855157 313.194375 
L 252.744781 313.194375 
z
" style="fill:#1f77b4;opacity:0.4;"/>
   </g>
   <g id="patch_59">
    <path clip-path="url(#p7a58f1a91a)" d="M 255.855157 313.194375 
L 258.965534 313.194375 
L 258.965534 295.729315 
L 255.855157 295.729315 
z
" style="fill:#1f77b4;opacity:0.4;"/>
   </g>
   <g id="patch_60">
    <path clip-path="url(#p7a58f1a91a)" d="M 258.965534 313.194375 
L 262.07591 313.194375 
L 262.07591 313.194375 
L 258.965534 313.194375 
z
" style="fill:#1f77b4;opacity:0.4;"/>
   </g>
   <g id="patch_61">
    <path clip-path="url(#p7a58f1a91a)" d="M 262.07591 313.194375 
L 265.186287 313.194375 
L 265.186287 295.105563 
L 262.07591 295.105563 
z
" style="fill:#1f77b4;opacity:0.4;"/>
   </g>
   <g id="patch_62">
    <path clip-path="url(#p7a58f1a91a)" d="M 265.186287 313.194375 
L 268.296664 313.194375 
L 268.296664 313.194375 
L 265.186287 313.194375 
z
" style="fill:#1f77b4;opacity:0.4;"/>
   </g>
   <g id="patch_63">
    <path clip-path="url(#p7a58f1a91a)" d="M 268.296664 313.194375 
L 271.40704 313.194375 
L 271.40704 288.244289 
L 268.296664 288.244289 
z
" style="fill:#1f77b4;opacity:0.4;"/>
   </g>
   <g id="patch_64">
    <path clip-path="url(#p7a58f1a91a)" d="M 271.40704 313.194375 
L 274.517417 313.194375 
L 274.517417 313.194375 
L 271.40704 313.194375 
z
" style="fill:#1f77b4;opacity:0.4;"/>
   </g>
   <g id="patch_65">
    <path clip-path="url(#p7a58f1a91a)" d="M 274.517417 313.194375 
L 277.627793 313.194375 
L 277.627793 289.491793 
L 274.517417 289.491793 
z
" style="fill:#1f77b4;opacity:0.4;"/>
   </g>
   <g id="patch_66">
    <path clip-path="url(#p7a58f1a91a)" d="M 277.627793 313.194375 
L 280.73817 313.194375 
L 280.73817 313.194375 
L 277.627793 313.194375 
z
" style="fill:#1f77b4;opacity:0.4;"/>
   </g>
   <g id="patch_67">
    <path clip-path="url(#p7a58f1a91a)" d="M 280.73817 313.194375 
L 283.848546 313.194375 
L 283.848546 271.091105 
L 280.73817 271.091105 
z
" style="fill:#1f77b4;opacity:0.4;"/>
   </g>
   <g id="patch_68">
    <path clip-path="url(#p7a58f1a91a)" d="M 283.848546 313.194375 
L 286.958923 313.194375 
L 286.958923 313.194375 
L 283.848546 313.194375 
z
" style="fill:#1f77b4;opacity:0.4;"/>
   </g>
   <g id="patch_69">
    <path clip-path="url(#p7a58f1a91a)" d="M 286.958923 313.194375 
L 290.0693 313.194375 
L 290.0693 267.660468 
L 286.958923 267.660468 
z
" style="fill:#1f77b4;opacity:0.4;"/>
   </g>
   <g id="patch_70">
    <path clip-path="url(#p7a58f1a91a)" d="M 290.0693 313.194375 
L 293.179676 313.194375 
L 293.179676 313.194375 
L 290.0693 313.194375 
z
" style="fill:#1f77b4;opacity:0.4;"/>
   </g>
   <g id="patch_71">
    <path clip-path="url(#p7a58f1a91a)" d="M 293.179676 313.194375 
L 296.290053 313.194375 
L 296.290053 313.194375 
L 293.179676 313.194375 
z
" style="fill:#1f77b4;opacity:0.4;"/>
   </g>
   <g id="patch_72">
    <path clip-path="url(#p7a58f1a91a)" d="M 296.290053 313.194375 
L 299.400429 313.194375 
L 299.400429 237.720365 
L 296.290053 237.720365 
z
" style="fill:#1f77b4;opacity:0.4;"/>
   </g>
   <g id="patch_73">
    <path clip-path="url(#p7a58f1a91a)" d="M 299.400429 313.194375 
L 302.510806 313.194375 
L 302.510806 313.194375 
L 299.400429 313.194375 
z
" style="fill:#1f77b4;opacity:0.4;"/>
   </g>
   <g id="patch_74">
    <path clip-path="url(#p7a58f1a91a)" d="M 302.510806 313.194375 
L 305.621183 313.194375 
L 305.621183 213.082155 
L 302.510806 213.082155 
z
" style="fill:#1f77b4;opacity:0.4;"/>
   </g>
   <g id="patch_75">
    <path clip-path="url(#p7a58f1a91a)" d="M 305.621183 313.194375 
L 308.731559 313.194375 
L 308.731559 313.194375 
L 305.621183 313.194375 
z
" style="fill:#1f77b4;opacity:0.4;"/>
   </g>
   <g id="patch_76">
    <path clip-path="url(#p7a58f1a91a)" d="M 308.731559 313.194375 
L 311.841936 313.194375 
L 311.841936 205.597129 
L 308.731559 205.597129 
z
" style="fill:#1f77b4;opacity:0.4;"/>
   </g>
   <g id="patch_77">
    <path clip-path="url(#p7a58f1a91a)" d="M 311.841936 313.194375 
L 314.952312 313.194375 
L 314.952312 313.194375 
L 311.841936 313.194375 
z
" style="fill:#1f77b4;opacity:0.4;"/>
   </g>
   <g id="patch_78">
    <path clip-path="url(#p7a58f1a91a)" d="M 314.952312 313.194375 
L 318.062689 313.194375 
L 318.062689 144.157542 
L 314.952312 144.157542 
z
" style="fill:#1f77b4;opacity:0.4;"/>
   </g>
   <g id="patch_79">
    <path clip-path="url(#p7a58f1a91a)" d="M 318.062689 313.194375 
L 321.173065 313.194375 
L 321.173065 313.194375 
L 318.062689 313.194375 
z
" style="fill:#1f77b4;opacity:0.4;"/>
   </g>
   <g id="patch_80">
    <path clip-path="url(#p7a58f1a91a)" d="M 321.173065 313.194375 
L 324.283442 313.194375 
L 324.283442 137.92002 
L 321.173065 137.92002 
z
" style="fill:#1f77b4;opacity:0.4;"/>
   </g>
   <g id="patch_81">
    <path clip-path="url(#p7a58f1a91a)" d="M 324.283442 313.194375 
L 327.393819 313.194375 
L 327.393819 313.194375 
L 324.283442 313.194375 
z
" style="fill:#1f77b4;opacity:0.4;"/>
   </g>
   <g id="patch_82">
    <path clip-path="url(#p7a58f1a91a)" d="M 327.393819 313.194375 
L 330.504195 313.194375 
L 330.504195 108.915545 
L 327.393819 108.915545 
z
" style="fill:#1f77b4;opacity:0.4;"/>
   </g>
   <g id="patch_83">
    <path clip-path="url(#p7a58f1a91a)" d="M 330.504195 313.194375 
L 333.614572 313.194375 
L 333.614572 313.194375 
L 330.504195 313.194375 
z
" style="fill:#1f77b4;opacity:0.4;"/>
   </g>
   <g id="patch_84">
    <path clip-path="url(#p7a58f1a91a)" d="M 333.614572 313.194375 
L 336.724948 313.194375 
L 336.724948 186.260812 
L 333.614572 186.260812 
z
" style="fill:#1f77b4;opacity:0.4;"/>
   </g>
   <g id="patch_85">
    <path clip-path="url(#p7a58f1a91a)" d="M 336.724948 313.194375 
L 339.835325 313.194375 
L 339.835325 313.194375 
L 336.724948 313.194375 
z
" style="fill:#1f77b4;opacity:0.4;"/>
   </g>
   <g id="patch_86">
    <path clip-path="url(#p7a58f1a91a)" d="M 339.835325 313.194375 
L 342.945702 313.194375 
L 342.945702 54.337232 
L 339.835325 54.337232 
z
" style="fill:#1f77b4;opacity:0.4;"/>
   </g>
   <g id="patch_87">
    <path clip-path="url(#p7a58f1a91a)" d="M 342.945702 313.194375 
L 346.056078 313.194375 
L 346.056078 313.194375 
L 342.945702 313.194375 
z
" style="fill:#1f77b4;opacity:0.4;"/>
   </g>
   <g id="patch_88">
    <path clip-path="url(#p7a58f1a91a)" d="M 346.056078 313.194375 
L 349.166455 313.194375 
L 349.166455 142.286285 
L 346.056078 142.286285 
z
" style="fill:#1f77b4;opacity:0.4;"/>
   </g>
   <g id="patch_89">
    <path clip-path="url(#p7a58f1a91a)" d="M 349.166455 313.194375 
L 352.276831 313.194375 
L 352.276831 313.194375 
L 349.166455 313.194375 
z
" style="fill:#1f77b4;opacity:0.4;"/>
   </g>
   <g id="patch_90">
    <path clip-path="url(#p7a58f1a91a)" d="M 352.276831 313.194375 
L 355.387208 313.194375 
L 355.387208 82.717955 
L 352.276831 82.717955 
z
" style="fill:#1f77b4;opacity:0.4;"/>
   </g>
   <g id="patch_91">
    <path clip-path="url(#p7a58f1a91a)" d="M 355.387208 313.194375 
L 358.497584 313.194375 
L 358.497584 313.194375 
L 355.387208 313.194375 
z
" style="fill:#1f77b4;opacity:0.4;"/>
   </g>
   <g id="patch_92">
    <path clip-path="url(#p7a58f1a91a)" d="M 358.497584 313.194375 
L 361.607961 313.194375 
L 361.607961 105.173032 
L 358.497584 105.173032 
z
" style="fill:#1f77b4;opacity:0.4;"/>
   </g>
   <g id="patch_93">
    <path clip-path="url(#p7a58f1a91a)" d="M 361.607961 313.194375 
L 364.718338 313.194375 
L 364.718338 313.194375 
L 361.607961 313.194375 
z
" style="fill:#1f77b4;opacity:0.4;"/>
   </g>
   <g id="patch_94">
    <path clip-path="url(#p7a58f1a91a)" d="M 364.718338 313.194375 
L 367.828714 313.194375 
L 367.828714 108.603669 
L 364.718338 108.603669 
z
" style="fill:#1f77b4;opacity:0.4;"/>
   </g>
   <g id="patch_95">
    <path clip-path="url(#p7a58f1a91a)" d="M 367.828714 313.194375 
L 370.939091 313.194375 
L 370.939091 313.194375 
L 367.828714 313.194375 
z
" style="fill:#1f77b4;opacity:0.4;"/>
   </g>
   <g id="patch_96">
    <path clip-path="url(#p7a58f1a91a)" d="M 370.939091 313.194375 
L 374.049467 313.194375 
L 374.049467 167.548248 
L 370.939091 167.548248 
z
" style="fill:#1f77b4;opacity:0.4;"/>
   </g>
   <g id="patch_97">
    <path clip-path="url(#p7a58f1a91a)" d="M 374.049467 313.194375 
L 377.159844 313.194375 
L 377.159844 313.194375 
L 374.049467 313.194375 
z
" style="fill:#1f77b4;opacity:0.4;"/>
   </g>
   <g id="patch_98">
    <path clip-path="url(#p7a58f1a91a)" d="M 377.159844 313.194375 
L 380.270221 313.194375 
L 380.270221 220.255304 
L 377.159844 220.255304 
z
" style="fill:#1f77b4;opacity:0.4;"/>
   </g>
   <g id="patch_99">
    <path clip-path="url(#p7a58f1a91a)" d="M 380.270221 313.194375 
L 383.380597 313.194375 
L 383.380597 313.194375 
L 380.270221 313.194375 
z
" style="fill:#1f77b4;opacity:0.4;"/>
   </g>
   <g id="patch_100">
    <path clip-path="url(#p7a58f1a91a)" d="M 383.380597 313.194375 
L 386.490974 313.194375 
L 386.490974 240.215373 
L 383.380597 240.215373 
z
" style="fill:#1f77b4;opacity:0.4;"/>
   </g>
   <g id="patch_101">
    <path clip-path="url(#p7a58f1a91a)" d="M 386.490974 313.194375 
L 389.60135 313.194375 
L 389.60135 313.194375 
L 386.490974 313.194375 
z
" style="fill:#1f77b4;opacity:0.4;"/>
   </g>
   <g id="patch_102">
    <path clip-path="url(#p7a58f1a91a)" d="M 389.60135 313.194375 
L 392.711727 313.194375 
L 392.711727 287.620537 
L 389.60135 287.620537 
z
" style="fill:#1f77b4;opacity:0.4;"/>
   </g>
   <g id="matplotlib.axis_1">
    <g id="xtick_1">
     <g id="line2d_1">
      <defs>
       <path d="M 0 0 
L 0 3.5 
" id="m79987508a0" style="stroke:#000000;stroke-width:0.8;"/>
      </defs>
      <g>
       <use style="stroke:#000000;stroke-width:0.8;" x="64.916863" xlink:href="#m79987508a0" y="313.194375"/>
      </g>
     </g>
     <g id="text_1">
      <!-- 7.585 -->
      <defs>
       <path d="M 8.203125 72.90625 
L 55.078125 72.90625 
L 55.078125 68.703125 
L 28.609375 0 
L 18.3125 0 
L 43.21875 64.59375 
L 8.203125 64.59375 
z
" id="DejaVuSans-55"/>
       <path d="M 10.6875 12.40625 
L 21 12.40625 
L 21 0 
L 10.6875 0 
z
" id="DejaVuSans-46"/>
       <path d="M 10.796875 72.90625 
L 49.515625 72.90625 
L 49.515625 64.59375 
L 19.828125 64.59375 
L 19.828125 46.734375 
Q 21.96875 47.46875 24.109375 47.828125 
Q 26.265625 48.1875 28.421875 48.1875 
Q 40.625 48.1875 47.75 41.5 
Q 54.890625 34.8125 54.890625 23.390625 
Q 54.890625 11.625 47.5625 5.09375 
Q 40.234375 -1.421875 26.90625 -1.421875 
Q 22.3125 -1.421875 17.546875 -0.640625 
Q 12.796875 0.140625 7.71875 1.703125 
L 7.71875 11.625 
Q 12.109375 9.234375 16.796875 8.0625 
Q 21.484375 6.890625 26.703125 6.890625 
Q 35.15625 6.890625 40.078125 11.328125 
Q 45.015625 15.765625 45.015625 23.390625 
Q 45.015625 31 40.078125 35.4375 
Q 35.15625 39.890625 26.703125 39.890625 
Q 22.75 39.890625 18.8125 39.015625 
Q 14.890625 38.140625 10.796875 36.28125 
z
" id="DejaVuSans-53"/>
       <path d="M 31.78125 34.625 
Q 24.75 34.625 20.71875 30.859375 
Q 16.703125 27.09375 16.703125 20.515625 
Q 16.703125 13.921875 20.71875 10.15625 
Q 24.75 6.390625 31.78125 6.390625 
Q 38.8125 6.390625 42.859375 10.171875 
Q 46.921875 13.96875 46.921875 20.515625 
Q 46.921875 27.09375 42.890625 30.859375 
Q 38.875 34.625 31.78125 34.625 
z
M 21.921875 38.8125 
Q 15.578125 40.375 12.03125 44.71875 
Q 8.5 49.078125 8.5 55.328125 
Q 8.5 64.0625 14.71875 69.140625 
Q 20.953125 74.21875 31.78125 74.21875 
Q 42.671875 74.21875 48.875 69.140625 
Q 55.078125 64.0625 55.078125 55.328125 
Q 55.078125 49.078125 51.53125 44.71875 
Q 48 40.375 41.703125 38.8125 
Q 48.828125 37.15625 52.796875 32.3125 
Q 56.78125 27.484375 56.78125 20.515625 
Q 56.78125 9.90625 50.3125 4.234375 
Q 43.84375 -1.421875 31.78125 -1.421875 
Q 19.734375 -1.421875 13.25 4.234375 
Q 6.78125 9.90625 6.78125 20.515625 
Q 6.78125 27.484375 10.78125 32.3125 
Q 14.796875 37.15625 21.921875 38.8125 
z
M 18.3125 54.390625 
Q 18.3125 48.734375 21.84375 45.5625 
Q 25.390625 42.390625 31.78125 42.390625 
Q 38.140625 42.390625 41.71875 45.5625 
Q 45.3125 48.734375 45.3125 54.390625 
Q 45.3125 60.0625 41.71875 63.234375 
Q 38.140625 66.40625 31.78125 66.40625 
Q 25.390625 66.40625 21.84375 63.234375 
Q 18.3125 60.0625 18.3125 54.390625 
z
" id="DejaVuSans-56"/>
      </defs>
      <g transform="translate(50.6028 327.792812)scale(0.1 -0.1)">
       <use xlink:href="#DejaVuSans-55"/>
       <use x="63.623047" xlink:href="#DejaVuSans-46"/>
       <use x="95.410156" xlink:href="#DejaVuSans-53"/>
       <use x="159.033203" xlink:href="#DejaVuSans-56"/>
       <use x="222.65625" xlink:href="#DejaVuSans-53"/>
      </g>
     </g>
    </g>
    <g id="xtick_2">
     <g id="line2d_2">
      <g>
       <use style="stroke:#000000;stroke-width:0.8;" x="129.551258" xlink:href="#m79987508a0" y="313.194375"/>
      </g>
     </g>
     <g id="text_2">
      <!-- 7.590 -->
      <defs>
       <path d="M 10.984375 1.515625 
L 10.984375 10.5 
Q 14.703125 8.734375 18.5 7.8125 
Q 22.3125 6.890625 25.984375 6.890625 
Q 35.75 6.890625 40.890625 13.453125 
Q 46.046875 20.015625 46.78125 33.40625 
Q 43.953125 29.203125 39.59375 26.953125 
Q 35.25 24.703125 29.984375 24.703125 
Q 19.046875 24.703125 12.671875 31.3125 
Q 6.296875 37.9375 6.296875 49.421875 
Q 6.296875 60.640625 12.9375 67.421875 
Q 19.578125 74.21875 30.609375 74.21875 
Q 43.265625 74.21875 49.921875 64.515625 
Q 56.59375 54.828125 56.59375 36.375 
Q 56.59375 19.140625 48.40625 8.859375 
Q 40.234375 -1.421875 26.421875 -1.421875 
Q 22.703125 -1.421875 18.890625 -0.6875 
Q 15.09375 0.046875 10.984375 1.515625 
z
M 30.609375 32.421875 
Q 37.25 32.421875 41.125 36.953125 
Q 45.015625 41.5 45.015625 49.421875 
Q 45.015625 57.28125 41.125 61.84375 
Q 37.25 66.40625 30.609375 66.40625 
Q 23.96875 66.40625 20.09375 61.84375 
Q 16.21875 57.28125 16.21875 49.421875 
Q 16.21875 41.5 20.09375 36.953125 
Q 23.96875 32.421875 30.609375 32.421875 
z
" id="DejaVuSans-57"/>
       <path d="M 31.78125 66.40625 
Q 24.171875 66.40625 20.328125 58.90625 
Q 16.5 51.421875 16.5 36.375 
Q 16.5 21.390625 20.328125 13.890625 
Q 24.171875 6.390625 31.78125 6.390625 
Q 39.453125 6.390625 43.28125 13.890625 
Q 47.125 21.390625 47.125 36.375 
Q 47.125 51.421875 43.28125 58.90625 
Q 39.453125 66.40625 31.78125 66.40625 
z
M 31.78125 74.21875 
Q 44.046875 74.21875 50.515625 64.515625 
Q 56.984375 54.828125 56.984375 36.375 
Q 56.984375 17.96875 50.515625 8.265625 
Q 44.046875 -1.421875 31.78125 -1.421875 
Q 19.53125 -1.421875 13.0625 8.265625 
Q 6.59375 17.96875 6.59375 36.375 
Q 6.59375 54.828125 13.0625 64.515625 
Q 19.53125 74.21875 31.78125 74.21875 
z
" id="DejaVuSans-48"/>
      </defs>
      <g transform="translate(115.237195 327.792812)scale(0.1 -0.1)">
       <use xlink:href="#DejaVuSans-55"/>
       <use x="63.623047" xlink:href="#DejaVuSans-46"/>
       <use x="95.410156" xlink:href="#DejaVuSans-53"/>
       <use x="159.033203" xlink:href="#DejaVuSans-57"/>
       <use x="222.65625" xlink:href="#DejaVuSans-48"/>
      </g>
     </g>
    </g>
    <g id="xtick_3">
     <g id="line2d_3">
      <g>
       <use style="stroke:#000000;stroke-width:0.8;" x="194.185653" xlink:href="#m79987508a0" y="313.194375"/>
      </g>
     </g>
     <g id="text_3">
      <!-- 7.595 -->
      <g transform="translate(179.87159 327.792812)scale(0.1 -0.1)">
       <use xlink:href="#DejaVuSans-55"/>
       <use x="63.623047" xlink:href="#DejaVuSans-46"/>
       <use x="95.410156" xlink:href="#DejaVuSans-53"/>
       <use x="159.033203" xlink:href="#DejaVuSans-57"/>
       <use x="222.65625" xlink:href="#DejaVuSans-53"/>
      </g>
     </g>
    </g>
    <g id="xtick_4">
     <g id="line2d_4">
      <g>
       <use style="stroke:#000000;stroke-width:0.8;" x="258.820048" xlink:href="#m79987508a0" y="313.194375"/>
      </g>
     </g>
     <g id="text_4">
      <!-- 7.600 -->
      <defs>
       <path d="M 33.015625 40.375 
Q 26.375 40.375 22.484375 35.828125 
Q 18.609375 31.296875 18.609375 23.390625 
Q 18.609375 15.53125 22.484375 10.953125 
Q 26.375 6.390625 33.015625 6.390625 
Q 39.65625 6.390625 43.53125 10.953125 
Q 47.40625 15.53125 47.40625 23.390625 
Q 47.40625 31.296875 43.53125 35.828125 
Q 39.65625 40.375 33.015625 40.375 
z
M 52.59375 71.296875 
L 52.59375 62.3125 
Q 48.875 64.0625 45.09375 64.984375 
Q 41.3125 65.921875 37.59375 65.921875 
Q 27.828125 65.921875 22.671875 59.328125 
Q 17.53125 52.734375 16.796875 39.40625 
Q 19.671875 43.65625 24.015625 45.921875 
Q 28.375 48.1875 33.59375 48.1875 
Q 44.578125 48.1875 50.953125 41.515625 
Q 57.328125 34.859375 57.328125 23.390625 
Q 57.328125 12.15625 50.6875 5.359375 
Q 44.046875 -1.421875 33.015625 -1.421875 
Q 20.359375 -1.421875 13.671875 8.265625 
Q 6.984375 17.96875 6.984375 36.375 
Q 6.984375 53.65625 15.1875 63.9375 
Q 23.390625 74.21875 37.203125 74.21875 
Q 40.921875 74.21875 44.703125 73.484375 
Q 48.484375 72.75 52.59375 71.296875 
z
" id="DejaVuSans-54"/>
      </defs>
      <g transform="translate(244.505986 327.792812)scale(0.1 -0.1)">
       <use xlink:href="#DejaVuSans-55"/>
       <use x="63.623047" xlink:href="#DejaVuSans-46"/>
       <use x="95.410156" xlink:href="#DejaVuSans-54"/>
       <use x="159.033203" xlink:href="#DejaVuSans-48"/>
       <use x="222.65625" xlink:href="#DejaVuSans-48"/>
      </g>
     </g>
    </g>
    <g id="xtick_5">
     <g id="line2d_5">
      <g>
       <use style="stroke:#000000;stroke-width:0.8;" x="323.454443" xlink:href="#m79987508a0" y="313.194375"/>
      </g>
     </g>
     <g id="text_5">
      <!-- 7.605 -->
      <g transform="translate(309.140381 327.792812)scale(0.1 -0.1)">
       <use xlink:href="#DejaVuSans-55"/>
       <use x="63.623047" xlink:href="#DejaVuSans-46"/>
       <use x="95.410156" xlink:href="#DejaVuSans-54"/>
       <use x="159.033203" xlink:href="#DejaVuSans-48"/>
       <use x="222.65625" xlink:href="#DejaVuSans-53"/>
      </g>
     </g>
    </g>
    <g id="xtick_6">
     <g id="line2d_6">
      <g>
       <use style="stroke:#000000;stroke-width:0.8;" x="388.088838" xlink:href="#m79987508a0" y="313.194375"/>
      </g>
     </g>
     <g id="text_6">
      <!-- 7.610 -->
      <defs>
       <path d="M 12.40625 8.296875 
L 28.515625 8.296875 
L 28.515625 63.921875 
L 10.984375 60.40625 
L 10.984375 69.390625 
L 28.421875 72.90625 
L 38.28125 72.90625 
L 38.28125 8.296875 
L 54.390625 8.296875 
L 54.390625 0 
L 12.40625 0 
z
" id="DejaVuSans-49"/>
      </defs>
      <g transform="translate(373.774776 327.792812)scale(0.1 -0.1)">
       <use xlink:href="#DejaVuSans-55"/>
       <use x="63.623047" xlink:href="#DejaVuSans-46"/>
       <use x="95.410156" xlink:href="#DejaVuSans-54"/>
       <use x="159.033203" xlink:href="#DejaVuSans-49"/>
       <use x="222.65625" xlink:href="#DejaVuSans-48"/>
      </g>
     </g>
    </g>
    <g id="text_7">
     <!-- Model date -->
     <defs>
      <path d="M 9.8125 72.90625 
L 24.515625 72.90625 
L 43.109375 23.296875 
L 61.8125 72.90625 
L 76.515625 72.90625 
L 76.515625 0 
L 66.890625 0 
L 66.890625 64.015625 
L 48.09375 14.015625 
L 38.1875 14.015625 
L 19.390625 64.015625 
L 19.390625 0 
L 9.8125 0 
z
" id="DejaVuSans-77"/>
      <path d="M 30.609375 48.390625 
Q 23.390625 48.390625 19.1875 42.75 
Q 14.984375 37.109375 14.984375 27.296875 
Q 14.984375 17.484375 19.15625 11.84375 
Q 23.34375 6.203125 30.609375 6.203125 
Q 37.796875 6.203125 41.984375 11.859375 
Q 46.1875 17.53125 46.1875 27.296875 
Q 46.1875 37.015625 41.984375 42.703125 
Q 37.796875 48.390625 30.609375 48.390625 
z
M 30.609375 56 
Q 42.328125 56 49.015625 48.375 
Q 55.71875 40.765625 55.71875 27.296875 
Q 55.71875 13.875 49.015625 6.21875 
Q 42.328125 -1.421875 30.609375 -1.421875 
Q 18.84375 -1.421875 12.171875 6.21875 
Q 5.515625 13.875 5.515625 27.296875 
Q 5.515625 40.765625 12.171875 48.375 
Q 18.84375 56 30.609375 56 
z
" id="DejaVuSans-111"/>
      <path d="M 45.40625 46.390625 
L 45.40625 75.984375 
L 54.390625 75.984375 
L 54.390625 0 
L 45.40625 0 
L 45.40625 8.203125 
Q 42.578125 3.328125 38.25 0.953125 
Q 33.9375 -1.421875 27.875 -1.421875 
Q 17.96875 -1.421875 11.734375 6.484375 
Q 5.515625 14.40625 5.515625 27.296875 
Q 5.515625 40.1875 11.734375 48.09375 
Q 17.96875 56 27.875 56 
Q 33.9375 56 38.25 53.625 
Q 42.578125 51.265625 45.40625 46.390625 
z
M 14.796875 27.296875 
Q 14.796875 17.390625 18.875 11.75 
Q 22.953125 6.109375 30.078125 6.109375 
Q 37.203125 6.109375 41.296875 11.75 
Q 45.40625 17.390625 45.40625 27.296875 
Q 45.40625 37.203125 41.296875 42.84375 
Q 37.203125 48.484375 30.078125 48.484375 
Q 22.953125 48.484375 18.875 42.84375 
Q 14.796875 37.203125 14.796875 27.296875 
z
" id="DejaVuSans-100"/>
      <path d="M 56.203125 29.59375 
L 56.203125 25.203125 
L 14.890625 25.203125 
Q 15.484375 15.921875 20.484375 11.0625 
Q 25.484375 6.203125 34.421875 6.203125 
Q 39.59375 6.203125 44.453125 7.46875 
Q 49.3125 8.734375 54.109375 11.28125 
L 54.109375 2.78125 
Q 49.265625 0.734375 44.1875 -0.34375 
Q 39.109375 -1.421875 33.890625 -1.421875 
Q 20.796875 -1.421875 13.15625 6.1875 
Q 5.515625 13.8125 5.515625 26.8125 
Q 5.515625 40.234375 12.765625 48.109375 
Q 20.015625 56 32.328125 56 
Q 43.359375 56 49.78125 48.890625 
Q 56.203125 41.796875 56.203125 29.59375 
z
M 47.21875 32.234375 
Q 47.125 39.59375 43.09375 43.984375 
Q 39.0625 48.390625 32.421875 48.390625 
Q 24.90625 48.390625 20.390625 44.140625 
Q 15.875 39.890625 15.1875 32.171875 
z
" id="DejaVuSans-101"/>
      <path d="M 9.421875 75.984375 
L 18.40625 75.984375 
L 18.40625 0 
L 9.421875 0 
z
" id="DejaVuSans-108"/>
      <path id="DejaVuSans-32"/>
      <path d="M 34.28125 27.484375 
Q 23.390625 27.484375 19.1875 25 
Q 14.984375 22.515625 14.984375 16.5 
Q 14.984375 11.71875 18.140625 8.90625 
Q 21.296875 6.109375 26.703125 6.109375 
Q 34.1875 6.109375 38.703125 11.40625 
Q 43.21875 16.703125 43.21875 25.484375 
L 43.21875 27.484375 
z
M 52.203125 31.203125 
L 52.203125 0 
L 43.21875 0 
L 43.21875 8.296875 
Q 40.140625 3.328125 35.546875 0.953125 
Q 30.953125 -1.421875 24.3125 -1.421875 
Q 15.921875 -1.421875 10.953125 3.296875 
Q 6 8.015625 6 15.921875 
Q 6 25.140625 12.171875 29.828125 
Q 18.359375 34.515625 30.609375 34.515625 
L 43.21875 34.515625 
L 43.21875 35.40625 
Q 43.21875 41.609375 39.140625 45 
Q 35.0625 48.390625 27.6875 48.390625 
Q 23 48.390625 18.546875 47.265625 
Q 14.109375 46.140625 10.015625 43.890625 
L 10.015625 52.203125 
Q 14.9375 54.109375 19.578125 55.046875 
Q 24.21875 56 28.609375 56 
Q 40.484375 56 46.34375 49.84375 
Q 52.203125 43.703125 52.203125 31.203125 
z
" id="DejaVuSans-97"/>
      <path d="M 18.3125 70.21875 
L 18.3125 54.6875 
L 36.8125 54.6875 
L 36.8125 47.703125 
L 18.3125 47.703125 
L 18.3125 18.015625 
Q 18.3125 11.328125 20.140625 9.421875 
Q 21.96875 7.515625 27.59375 7.515625 
L 36.8125 7.515625 
L 36.8125 0 
L 27.59375 0 
Q 17.1875 0 13.234375 3.875 
Q 9.28125 7.765625 9.28125 18.015625 
L 9.28125 47.703125 
L 2.6875 47.703125 
L 2.6875 54.6875 
L 9.28125 54.6875 
L 9.28125 70.21875 
z
" id="DejaVuSans-116"/>
     </defs>
     <g transform="translate(209.315554 341.470937)scale(0.1 -0.1)">
      <use xlink:href="#DejaVuSans-77"/>
      <use x="86.279297" xlink:href="#DejaVuSans-111"/>
      <use x="147.460938" xlink:href="#DejaVuSans-100"/>
      <use x="210.9375" xlink:href="#DejaVuSans-101"/>
      <use x="272.460938" xlink:href="#DejaVuSans-108"/>
      <use x="300.244141" xlink:href="#DejaVuSans-32"/>
      <use x="332.03125" xlink:href="#DejaVuSans-100"/>
      <use x="395.507812" xlink:href="#DejaVuSans-97"/>
      <use x="456.787109" xlink:href="#DejaVuSans-116"/>
      <use x="495.996094" xlink:href="#DejaVuSans-101"/>
     </g>
    </g>
   </g>
   <g id="matplotlib.axis_2">
    <g id="ytick_1">
     <g id="line2d_7">
      <defs>
       <path d="M 0 0 
L -3.5 0 
" id="m0fb22b9743" style="stroke:#000000;stroke-width:0.8;"/>
      </defs>
      <g>
       <use style="stroke:#000000;stroke-width:0.8;" x="46.965625" xlink:href="#m0fb22b9743" y="313.194375"/>
      </g>
     </g>
     <g id="text_8">
      <!-- 0 -->
      <g transform="translate(33.603125 316.993594)scale(0.1 -0.1)">
       <use xlink:href="#DejaVuSans-48"/>
      </g>
     </g>
    </g>
    <g id="ytick_2">
     <g id="line2d_8">
      <g>
       <use style="stroke:#000000;stroke-width:0.8;" x="46.965625" xlink:href="#m0fb22b9743" y="281.853304"/>
      </g>
     </g>
     <g id="text_9">
      <!-- 50 -->
      <g transform="translate(27.240625 285.652523)scale(0.1 -0.1)">
       <use xlink:href="#DejaVuSans-53"/>
       <use x="63.623047" xlink:href="#DejaVuSans-48"/>
      </g>
     </g>
    </g>
    <g id="ytick_3">
     <g id="line2d_9">
      <g>
       <use style="stroke:#000000;stroke-width:0.8;" x="46.965625" xlink:href="#m0fb22b9743" y="250.512233"/>
      </g>
     </g>
     <g id="text_10">
      <!-- 100 -->
      <g transform="translate(20.878125 254.311451)scale(0.1 -0.1)">
       <use xlink:href="#DejaVuSans-49"/>
       <use x="63.623047" xlink:href="#DejaVuSans-48"/>
       <use x="127.246094" xlink:href="#DejaVuSans-48"/>
      </g>
     </g>
    </g>
    <g id="ytick_4">
     <g id="line2d_10">
      <g>
       <use style="stroke:#000000;stroke-width:0.8;" x="46.965625" xlink:href="#m0fb22b9743" y="219.171161"/>
      </g>
     </g>
     <g id="text_11">
      <!-- 150 -->
      <g transform="translate(20.878125 222.97038)scale(0.1 -0.1)">
       <use xlink:href="#DejaVuSans-49"/>
       <use x="63.623047" xlink:href="#DejaVuSans-53"/>
       <use x="127.246094" xlink:href="#DejaVuSans-48"/>
      </g>
     </g>
    </g>
    <g id="ytick_5">
     <g id="line2d_11">
      <g>
       <use style="stroke:#000000;stroke-width:0.8;" x="46.965625" xlink:href="#m0fb22b9743" y="187.83009"/>
      </g>
     </g>
     <g id="text_12">
      <!-- 200 -->
      <defs>
       <path d="M 19.1875 8.296875 
L 53.609375 8.296875 
L 53.609375 0 
L 7.328125 0 
L 7.328125 8.296875 
Q 12.9375 14.109375 22.625 23.890625 
Q 32.328125 33.6875 34.8125 36.53125 
Q 39.546875 41.84375 41.421875 45.53125 
Q 43.3125 49.21875 43.3125 52.78125 
Q 43.3125 58.59375 39.234375 62.25 
Q 35.15625 65.921875 28.609375 65.921875 
Q 23.96875 65.921875 18.8125 64.3125 
Q 13.671875 62.703125 7.8125 59.421875 
L 7.8125 69.390625 
Q 13.765625 71.78125 18.9375 73 
Q 24.125 74.21875 28.421875 74.21875 
Q 39.75 74.21875 46.484375 68.546875 
Q 53.21875 62.890625 53.21875 53.421875 
Q 53.21875 48.921875 51.53125 44.890625 
Q 49.859375 40.875 45.40625 35.40625 
Q 44.1875 33.984375 37.640625 27.21875 
Q 31.109375 20.453125 19.1875 8.296875 
z
" id="DejaVuSans-50"/>
      </defs>
      <g transform="translate(20.878125 191.629309)scale(0.1 -0.1)">
       <use xlink:href="#DejaVuSans-50"/>
       <use x="63.623047" xlink:href="#DejaVuSans-48"/>
       <use x="127.246094" xlink:href="#DejaVuSans-48"/>
      </g>
     </g>
    </g>
    <g id="ytick_6">
     <g id="line2d_12">
      <g>
       <use style="stroke:#000000;stroke-width:0.8;" x="46.965625" xlink:href="#m0fb22b9743" y="156.489019"/>
      </g>
     </g>
     <g id="text_13">
      <!-- 250 -->
      <g transform="translate(20.878125 160.288238)scale(0.1 -0.1)">
       <use xlink:href="#DejaVuSans-50"/>
       <use x="63.623047" xlink:href="#DejaVuSans-53"/>
       <use x="127.246094" xlink:href="#DejaVuSans-48"/>
      </g>
     </g>
    </g>
    <g id="ytick_7">
     <g id="line2d_13">
      <g>
       <use style="stroke:#000000;stroke-width:0.8;" x="46.965625" xlink:href="#m0fb22b9743" y="125.147948"/>
      </g>
     </g>
     <g id="text_14">
      <!-- 300 -->
      <defs>
       <path d="M 40.578125 39.3125 
Q 47.65625 37.796875 51.625 33 
Q 55.609375 28.21875 55.609375 21.1875 
Q 55.609375 10.40625 48.1875 4.484375 
Q 40.765625 -1.421875 27.09375 -1.421875 
Q 22.515625 -1.421875 17.65625 -0.515625 
Q 12.796875 0.390625 7.625 2.203125 
L 7.625 11.71875 
Q 11.71875 9.328125 16.59375 8.109375 
Q 21.484375 6.890625 26.8125 6.890625 
Q 36.078125 6.890625 40.9375 10.546875 
Q 45.796875 14.203125 45.796875 21.1875 
Q 45.796875 27.640625 41.28125 31.265625 
Q 36.765625 34.90625 28.71875 34.90625 
L 20.21875 34.90625 
L 20.21875 43.015625 
L 29.109375 43.015625 
Q 36.375 43.015625 40.234375 45.921875 
Q 44.09375 48.828125 44.09375 54.296875 
Q 44.09375 59.90625 40.109375 62.90625 
Q 36.140625 65.921875 28.71875 65.921875 
Q 24.65625 65.921875 20.015625 65.03125 
Q 15.375 64.15625 9.8125 62.3125 
L 9.8125 71.09375 
Q 15.4375 72.65625 20.34375 73.4375 
Q 25.25 74.21875 29.59375 74.21875 
Q 40.828125 74.21875 47.359375 69.109375 
Q 53.90625 64.015625 53.90625 55.328125 
Q 53.90625 49.265625 50.4375 45.09375 
Q 46.96875 40.921875 40.578125 39.3125 
z
" id="DejaVuSans-51"/>
      </defs>
      <g transform="translate(20.878125 128.947167)scale(0.1 -0.1)">
       <use xlink:href="#DejaVuSans-51"/>
       <use x="63.623047" xlink:href="#DejaVuSans-48"/>
       <use x="127.246094" xlink:href="#DejaVuSans-48"/>
      </g>
     </g>
    </g>
    <g id="ytick_8">
     <g id="line2d_14">
      <g>
       <use style="stroke:#000000;stroke-width:0.8;" x="46.965625" xlink:href="#m0fb22b9743" y="93.806877"/>
      </g>
     </g>
     <g id="text_15">
      <!-- 350 -->
      <g transform="translate(20.878125 97.606095)scale(0.1 -0.1)">
       <use xlink:href="#DejaVuSans-51"/>
       <use x="63.623047" xlink:href="#DejaVuSans-53"/>
       <use x="127.246094" xlink:href="#DejaVuSans-48"/>
      </g>
     </g>
    </g>
    <g id="ytick_9">
     <g id="line2d_15">
      <g>
       <use style="stroke:#000000;stroke-width:0.8;" x="46.965625" xlink:href="#m0fb22b9743" y="62.465805"/>
      </g>
     </g>
     <g id="text_16">
      <!-- 400 -->
      <defs>
       <path d="M 37.796875 64.3125 
L 12.890625 25.390625 
L 37.796875 25.390625 
z
M 35.203125 72.90625 
L 47.609375 72.90625 
L 47.609375 25.390625 
L 58.015625 25.390625 
L 58.015625 17.1875 
L 47.609375 17.1875 
L 47.609375 0 
L 37.796875 0 
L 37.796875 17.1875 
L 4.890625 17.1875 
L 4.890625 26.703125 
z
" id="DejaVuSans-52"/>
      </defs>
      <g transform="translate(20.878125 66.265024)scale(0.1 -0.1)">
       <use xlink:href="#DejaVuSans-52"/>
       <use x="63.623047" xlink:href="#DejaVuSans-48"/>
       <use x="127.246094" xlink:href="#DejaVuSans-48"/>
      </g>
     </g>
    </g>
    <g id="text_17">
     <!-- Quantity (frequency) -->
     <defs>
      <path d="M 39.40625 66.21875 
Q 28.65625 66.21875 22.328125 58.203125 
Q 16.015625 50.203125 16.015625 36.375 
Q 16.015625 22.609375 22.328125 14.59375 
Q 28.65625 6.59375 39.40625 6.59375 
Q 50.140625 6.59375 56.421875 14.59375 
Q 62.703125 22.609375 62.703125 36.375 
Q 62.703125 50.203125 56.421875 58.203125 
Q 50.140625 66.21875 39.40625 66.21875 
z
M 53.21875 1.3125 
L 66.21875 -12.890625 
L 54.296875 -12.890625 
L 43.5 -1.21875 
Q 41.890625 -1.3125 41.03125 -1.359375 
Q 40.1875 -1.421875 39.40625 -1.421875 
Q 24.03125 -1.421875 14.8125 8.859375 
Q 5.609375 19.140625 5.609375 36.375 
Q 5.609375 53.65625 14.8125 63.9375 
Q 24.03125 74.21875 39.40625 74.21875 
Q 54.734375 74.21875 63.90625 63.9375 
Q 73.09375 53.65625 73.09375 36.375 
Q 73.09375 23.6875 67.984375 14.640625 
Q 62.890625 5.609375 53.21875 1.3125 
z
" id="DejaVuSans-81"/>
      <path d="M 8.5 21.578125 
L 8.5 54.6875 
L 17.484375 54.6875 
L 17.484375 21.921875 
Q 17.484375 14.15625 20.5 10.265625 
Q 23.53125 6.390625 29.59375 6.390625 
Q 36.859375 6.390625 41.078125 11.03125 
Q 45.3125 15.671875 45.3125 23.6875 
L 45.3125 54.6875 
L 54.296875 54.6875 
L 54.296875 0 
L 45.3125 0 
L 45.3125 8.40625 
Q 42.046875 3.421875 37.71875 1 
Q 33.40625 -1.421875 27.6875 -1.421875 
Q 18.265625 -1.421875 13.375 4.4375 
Q 8.5 10.296875 8.5 21.578125 
z
M 31.109375 56 
z
" id="DejaVuSans-117"/>
      <path d="M 54.890625 33.015625 
L 54.890625 0 
L 45.90625 0 
L 45.90625 32.71875 
Q 45.90625 40.484375 42.875 44.328125 
Q 39.84375 48.1875 33.796875 48.1875 
Q 26.515625 48.1875 22.3125 43.546875 
Q 18.109375 38.921875 18.109375 30.90625 
L 18.109375 0 
L 9.078125 0 
L 9.078125 54.6875 
L 18.109375 54.6875 
L 18.109375 46.1875 
Q 21.34375 51.125 25.703125 53.5625 
Q 30.078125 56 35.796875 56 
Q 45.21875 56 50.046875 50.171875 
Q 54.890625 44.34375 54.890625 33.015625 
z
" id="DejaVuSans-110"/>
      <path d="M 9.421875 54.6875 
L 18.40625 54.6875 
L 18.40625 0 
L 9.421875 0 
z
M 9.421875 75.984375 
L 18.40625 75.984375 
L 18.40625 64.59375 
L 9.421875 64.59375 
z
" id="DejaVuSans-105"/>
      <path d="M 32.171875 -5.078125 
Q 28.375 -14.84375 24.75 -17.8125 
Q 21.140625 -20.796875 15.09375 -20.796875 
L 7.90625 -20.796875 
L 7.90625 -13.28125 
L 13.1875 -13.28125 
Q 16.890625 -13.28125 18.9375 -11.515625 
Q 21 -9.765625 23.484375 -3.21875 
L 25.09375 0.875 
L 2.984375 54.6875 
L 12.5 54.6875 
L 29.59375 11.921875 
L 46.6875 54.6875 
L 56.203125 54.6875 
z
" id="DejaVuSans-121"/>
      <path d="M 31 75.875 
Q 24.46875 64.65625 21.28125 53.65625 
Q 18.109375 42.671875 18.109375 31.390625 
Q 18.109375 20.125 21.3125 9.0625 
Q 24.515625 -2 31 -13.1875 
L 23.1875 -13.1875 
Q 15.875 -1.703125 12.234375 9.375 
Q 8.59375 20.453125 8.59375 31.390625 
Q 8.59375 42.28125 12.203125 53.3125 
Q 15.828125 64.359375 23.1875 75.875 
z
" id="DejaVuSans-40"/>
      <path d="M 37.109375 75.984375 
L 37.109375 68.5 
L 28.515625 68.5 
Q 23.6875 68.5 21.796875 66.546875 
Q 19.921875 64.59375 19.921875 59.515625 
L 19.921875 54.6875 
L 34.71875 54.6875 
L 34.71875 47.703125 
L 19.921875 47.703125 
L 19.921875 0 
L 10.890625 0 
L 10.890625 47.703125 
L 2.296875 47.703125 
L 2.296875 54.6875 
L 10.890625 54.6875 
L 10.890625 58.5 
Q 10.890625 67.625 15.140625 71.796875 
Q 19.390625 75.984375 28.609375 75.984375 
z
" id="DejaVuSans-102"/>
      <path d="M 41.109375 46.296875 
Q 39.59375 47.171875 37.8125 47.578125 
Q 36.03125 48 33.890625 48 
Q 26.265625 48 22.1875 43.046875 
Q 18.109375 38.09375 18.109375 28.8125 
L 18.109375 0 
L 9.078125 0 
L 9.078125 54.6875 
L 18.109375 54.6875 
L 18.109375 46.1875 
Q 20.953125 51.171875 25.484375 53.578125 
Q 30.03125 56 36.53125 56 
Q 37.453125 56 38.578125 55.875 
Q 39.703125 55.765625 41.0625 55.515625 
z
" id="DejaVuSans-114"/>
      <path d="M 14.796875 27.296875 
Q 14.796875 17.390625 18.875 11.75 
Q 22.953125 6.109375 30.078125 6.109375 
Q 37.203125 6.109375 41.296875 11.75 
Q 45.40625 17.390625 45.40625 27.296875 
Q 45.40625 37.203125 41.296875 42.84375 
Q 37.203125 48.484375 30.078125 48.484375 
Q 22.953125 48.484375 18.875 42.84375 
Q 14.796875 37.203125 14.796875 27.296875 
z
M 45.40625 8.203125 
Q 42.578125 3.328125 38.25 0.953125 
Q 33.9375 -1.421875 27.875 -1.421875 
Q 17.96875 -1.421875 11.734375 6.484375 
Q 5.515625 14.40625 5.515625 27.296875 
Q 5.515625 40.1875 11.734375 48.09375 
Q 17.96875 56 27.875 56 
Q 33.9375 56 38.25 53.625 
Q 42.578125 51.265625 45.40625 46.390625 
L 45.40625 54.6875 
L 54.390625 54.6875 
L 54.390625 -20.796875 
L 45.40625 -20.796875 
z
" id="DejaVuSans-113"/>
      <path d="M 48.78125 52.59375 
L 48.78125 44.1875 
Q 44.96875 46.296875 41.140625 47.34375 
Q 37.3125 48.390625 33.40625 48.390625 
Q 24.65625 48.390625 19.8125 42.84375 
Q 14.984375 37.3125 14.984375 27.296875 
Q 14.984375 17.28125 19.8125 11.734375 
Q 24.65625 6.203125 33.40625 6.203125 
Q 37.3125 6.203125 41.140625 7.25 
Q 44.96875 8.296875 48.78125 10.40625 
L 48.78125 2.09375 
Q 45.015625 0.34375 40.984375 -0.53125 
Q 36.96875 -1.421875 32.421875 -1.421875 
Q 20.0625 -1.421875 12.78125 6.34375 
Q 5.515625 14.109375 5.515625 27.296875 
Q 5.515625 40.671875 12.859375 48.328125 
Q 20.21875 56 33.015625 56 
Q 37.15625 56 41.109375 55.140625 
Q 45.0625 54.296875 48.78125 52.59375 
z
" id="DejaVuSans-99"/>
      <path d="M 8.015625 75.875 
L 15.828125 75.875 
Q 23.140625 64.359375 26.78125 53.3125 
Q 30.421875 42.28125 30.421875 31.390625 
Q 30.421875 20.453125 26.78125 9.375 
Q 23.140625 -1.703125 15.828125 -13.1875 
L 8.015625 -13.1875 
Q 14.5 -2 17.703125 9.0625 
Q 20.90625 20.125 20.90625 31.390625 
Q 20.90625 42.671875 17.703125 53.65625 
Q 14.5 64.65625 8.015625 75.875 
z
" id="DejaVuSans-41"/>
     </defs>
     <g transform="translate(14.798438 229.467812)rotate(-90)scale(0.1 -0.1)">
      <use xlink:href="#DejaVuSans-81"/>
      <use x="78.710938" xlink:href="#DejaVuSans-117"/>
      <use x="142.089844" xlink:href="#DejaVuSans-97"/>
      <use x="203.369141" xlink:href="#DejaVuSans-110"/>
      <use x="266.748047" xlink:href="#DejaVuSans-116"/>
      <use x="305.957031" xlink:href="#DejaVuSans-105"/>
      <use x="333.740234" xlink:href="#DejaVuSans-116"/>
      <use x="372.949219" xlink:href="#DejaVuSans-121"/>
      <use x="432.128906" xlink:href="#DejaVuSans-32"/>
      <use x="463.916016" xlink:href="#DejaVuSans-40"/>
      <use x="502.929688" xlink:href="#DejaVuSans-102"/>
      <use x="538.134766" xlink:href="#DejaVuSans-114"/>
      <use x="576.998047" xlink:href="#DejaVuSans-101"/>
      <use x="638.521484" xlink:href="#DejaVuSans-113"/>
      <use x="701.998047" xlink:href="#DejaVuSans-117"/>
      <use x="765.376953" xlink:href="#DejaVuSans-101"/>
      <use x="826.900391" xlink:href="#DejaVuSans-110"/>
      <use x="890.279297" xlink:href="#DejaVuSans-99"/>
      <use x="945.259766" xlink:href="#DejaVuSans-121"/>
      <use x="1004.439453" xlink:href="#DejaVuSans-41"/>
     </g>
    </g>
   </g>
   <g id="line2d_16">
    <path clip-path="url(#p7a58f1a91a)" d="M 64.259013 313.177545 
L 77.875855 313.14096 
L 154.130166 312.727983 
L 159.576902 312.634956 
L 170.470375 312.194403 
L 181.363848 312.391784 
L 186.810585 312.276699 
L 192.257321 312.244033 
L 194.98069 311.997106 
L 197.704058 311.430742 
L 203.150795 309.871037 
L 205.874163 309.560936 
L 208.597531 309.830599 
L 214.044268 311.090374 
L 216.767636 311.501489 
L 219.491004 311.677492 
L 222.214372 311.640711 
L 224.937741 311.367053 
L 233.107845 309.856856 
L 235.831214 309.692136 
L 238.554582 309.794969 
L 244.001318 310.218782 
L 246.724687 310.137352 
L 249.448055 309.628617 
L 252.171423 308.664116 
L 257.61816 306.153425 
L 260.341528 305.096055 
L 271.235001 301.690386 
L 273.958369 300.612997 
L 276.681737 299.255111 
L 279.405106 297.543378 
L 282.128474 295.493992 
L 284.851842 293.110652 
L 287.57521 290.274159 
L 290.298579 286.822221 
L 293.021947 282.765034 
L 301.192052 269.4661 
L 303.91542 264.789727 
L 306.638788 259.504417 
L 309.362157 253.47626 
L 314.808893 240.857684 
L 317.532261 235.436024 
L 320.25563 230.898355 
L 322.978998 227.366728 
L 325.702366 225.426696 
L 328.425734 225.575945 
L 331.149103 226.892619 
L 333.872471 226.937698 
L 336.595839 223.910148 
L 339.319207 218.769641 
L 342.042576 214.414385 
L 344.765944 212.695694 
L 350.21268 213.094188 
L 352.936049 212.41144 
L 355.659417 211.374853 
L 358.382785 211.026693 
L 361.106153 212.159203 
L 363.829522 215.285326 
L 366.55289 220.714835 
L 369.276258 228.323816 
L 377.446363 255.731274 
L 380.169731 263.928194 
L 385.616468 278.97788 
L 391.063204 293.461145 
L 393.786572 299.866229 
L 396.509941 305.074063 
L 399.233309 308.821366 
L 401.956677 311.156835 
L 404.680046 312.389258 
L 407.403414 312.928954 
L 410.126782 313.122096 
L 410.126782 313.122096 
" style="fill:none;stroke:#1f77b4;stroke-linecap:square;stroke-width:1.5;"/>
   </g>
   <g id="patch_103">
    <path d="M 46.965625 313.194375 
L 46.965625 41.394375 
" style="fill:none;stroke:#000000;stroke-linecap:square;stroke-linejoin:miter;stroke-width:0.8;"/>
   </g>
   <g id="patch_104">
    <path d="M 427.42017 313.194375 
L 427.42017 41.394375 
" style="fill:none;stroke:#000000;stroke-linecap:square;stroke-linejoin:miter;stroke-width:0.8;"/>
   </g>
   <g id="patch_105">
    <path d="M 46.965625 313.194375 
L 427.42017 313.194375 
" style="fill:none;stroke:#000000;stroke-linecap:square;stroke-linejoin:miter;stroke-width:0.8;"/>
   </g>
   <g id="patch_106">
    <path d="M 46.965625 41.394375 
L 427.42017 41.394375 
" style="fill:none;stroke:#000000;stroke-linecap:square;stroke-linejoin:miter;stroke-width:0.8;"/>
   </g>
   <g id="text_18">
    <!-- Model date Distribution after log -->
    <defs>
     <path d="M 19.671875 64.796875 
L 19.671875 8.109375 
L 31.59375 8.109375 
Q 46.6875 8.109375 53.6875 14.9375 
Q 60.6875 21.78125 60.6875 36.53125 
Q 60.6875 51.171875 53.6875 57.984375 
Q 46.6875 64.796875 31.59375 64.796875 
z
M 9.8125 72.90625 
L 30.078125 72.90625 
Q 51.265625 72.90625 61.171875 64.09375 
Q 71.09375 55.28125 71.09375 36.53125 
Q 71.09375 17.671875 61.125 8.828125 
Q 51.171875 0 30.078125 0 
L 9.8125 0 
z
" id="DejaVuSans-68"/>
     <path d="M 44.28125 53.078125 
L 44.28125 44.578125 
Q 40.484375 46.53125 36.375 47.5 
Q 32.28125 48.484375 27.875 48.484375 
Q 21.1875 48.484375 17.84375 46.4375 
Q 14.5 44.390625 14.5 40.28125 
Q 14.5 37.15625 16.890625 35.375 
Q 19.28125 33.59375 26.515625 31.984375 
L 29.59375 31.296875 
Q 39.15625 29.25 43.1875 25.515625 
Q 47.21875 21.78125 47.21875 15.09375 
Q 47.21875 7.46875 41.1875 3.015625 
Q 35.15625 -1.421875 24.609375 -1.421875 
Q 20.21875 -1.421875 15.453125 -0.5625 
Q 10.6875 0.296875 5.421875 2 
L 5.421875 11.28125 
Q 10.40625 8.6875 15.234375 7.390625 
Q 20.0625 6.109375 24.8125 6.109375 
Q 31.15625 6.109375 34.5625 8.28125 
Q 37.984375 10.453125 37.984375 14.40625 
Q 37.984375 18.0625 35.515625 20.015625 
Q 33.0625 21.96875 24.703125 23.78125 
L 21.578125 24.515625 
Q 13.234375 26.265625 9.515625 29.90625 
Q 5.8125 33.546875 5.8125 39.890625 
Q 5.8125 47.609375 11.28125 51.796875 
Q 16.75 56 26.8125 56 
Q 31.78125 56 36.171875 55.265625 
Q 40.578125 54.546875 44.28125 53.078125 
z
" id="DejaVuSans-115"/>
     <path d="M 48.6875 27.296875 
Q 48.6875 37.203125 44.609375 42.84375 
Q 40.53125 48.484375 33.40625 48.484375 
Q 26.265625 48.484375 22.1875 42.84375 
Q 18.109375 37.203125 18.109375 27.296875 
Q 18.109375 17.390625 22.1875 11.75 
Q 26.265625 6.109375 33.40625 6.109375 
Q 40.53125 6.109375 44.609375 11.75 
Q 48.6875 17.390625 48.6875 27.296875 
z
M 18.109375 46.390625 
Q 20.953125 51.265625 25.265625 53.625 
Q 29.59375 56 35.59375 56 
Q 45.5625 56 51.78125 48.09375 
Q 58.015625 40.1875 58.015625 27.296875 
Q 58.015625 14.40625 51.78125 6.484375 
Q 45.5625 -1.421875 35.59375 -1.421875 
Q 29.59375 -1.421875 25.265625 0.953125 
Q 20.953125 3.328125 18.109375 8.203125 
L 18.109375 0 
L 9.078125 0 
L 9.078125 75.984375 
L 18.109375 75.984375 
z
" id="DejaVuSans-98"/>
     <path d="M 45.40625 27.984375 
Q 45.40625 37.75 41.375 43.109375 
Q 37.359375 48.484375 30.078125 48.484375 
Q 22.859375 48.484375 18.828125 43.109375 
Q 14.796875 37.75 14.796875 27.984375 
Q 14.796875 18.265625 18.828125 12.890625 
Q 22.859375 7.515625 30.078125 7.515625 
Q 37.359375 7.515625 41.375 12.890625 
Q 45.40625 18.265625 45.40625 27.984375 
z
M 54.390625 6.78125 
Q 54.390625 -7.171875 48.1875 -13.984375 
Q 42 -20.796875 29.203125 -20.796875 
Q 24.46875 -20.796875 20.265625 -20.09375 
Q 16.0625 -19.390625 12.109375 -17.921875 
L 12.109375 -9.1875 
Q 16.0625 -11.328125 19.921875 -12.34375 
Q 23.78125 -13.375 27.78125 -13.375 
Q 36.625 -13.375 41.015625 -8.765625 
Q 45.40625 -4.15625 45.40625 5.171875 
L 45.40625 9.625 
Q 42.625 4.78125 38.28125 2.390625 
Q 33.9375 0 27.875 0 
Q 17.828125 0 11.671875 7.65625 
Q 5.515625 15.328125 5.515625 27.984375 
Q 5.515625 40.671875 11.671875 48.328125 
Q 17.828125 56 27.875 56 
Q 33.9375 56 38.28125 53.609375 
Q 42.625 51.21875 45.40625 46.390625 
L 45.40625 54.6875 
L 54.390625 54.6875 
z
" id="DejaVuSans-103"/>
    </defs>
    <g transform="translate(115.295632 18.597656)scale(0.15 -0.15)">
     <use xlink:href="#DejaVuSans-77"/>
     <use x="86.279297" xlink:href="#DejaVuSans-111"/>
     <use x="147.460938" xlink:href="#DejaVuSans-100"/>
     <use x="210.9375" xlink:href="#DejaVuSans-101"/>
     <use x="272.460938" xlink:href="#DejaVuSans-108"/>
     <use x="300.244141" xlink:href="#DejaVuSans-32"/>
     <use x="332.03125" xlink:href="#DejaVuSans-100"/>
     <use x="395.507812" xlink:href="#DejaVuSans-97"/>
     <use x="456.787109" xlink:href="#DejaVuSans-116"/>
     <use x="495.996094" xlink:href="#DejaVuSans-101"/>
     <use x="557.519531" xlink:href="#DejaVuSans-32"/>
     <use x="589.306641" xlink:href="#DejaVuSans-68"/>
     <use x="666.308594" xlink:href="#DejaVuSans-105"/>
     <use x="694.091797" xlink:href="#DejaVuSans-115"/>
     <use x="746.191406" xlink:href="#DejaVuSans-116"/>
     <use x="785.400391" xlink:href="#DejaVuSans-114"/>
     <use x="826.513672" xlink:href="#DejaVuSans-105"/>
     <use x="854.296875" xlink:href="#DejaVuSans-98"/>
     <use x="917.773438" xlink:href="#DejaVuSans-117"/>
     <use x="981.152344" xlink:href="#DejaVuSans-116"/>
     <use x="1020.361328" xlink:href="#DejaVuSans-105"/>
     <use x="1048.144531" xlink:href="#DejaVuSans-111"/>
     <use x="1109.326172" xlink:href="#DejaVuSans-110"/>
     <use x="1172.705078" xlink:href="#DejaVuSans-32"/>
     <use x="1204.492188" xlink:href="#DejaVuSans-97"/>
     <use x="1265.771484" xlink:href="#DejaVuSans-102"/>
     <use x="1299.226562" xlink:href="#DejaVuSans-116"/>
     <use x="1338.435547" xlink:href="#DejaVuSans-101"/>
     <use x="1399.958984" xlink:href="#DejaVuSans-114"/>
     <use x="1441.072266" xlink:href="#DejaVuSans-32"/>
     <use x="1472.859375" xlink:href="#DejaVuSans-108"/>
     <use x="1500.642578" xlink:href="#DejaVuSans-111"/>
     <use x="1561.824219" xlink:href="#DejaVuSans-103"/>
    </g>
    <!--  -->
    <g transform="translate(237.192898 35.394375)scale(0.15 -0.15)"/>
   </g>
  </g>
  <g id="axes_2">
   <g id="patch_107">
    <path d="M 503.51108 313.194375 
L 883.965625 313.194375 
L 883.965625 41.394375 
L 503.51108 41.394375 
z
" style="fill:#ffffff;"/>
   </g>
   <g id="patch_108">
    <path clip-path="url(#p8f97bcd6fe)" d="M 780.982352 68.574375 
L 780.982352 286.014375 
L 831.030176 286.014375 
L 831.030176 68.574375 
L 780.982352 68.574375 
z
" style="fill:#3274a1;stroke:#3f3f3f;stroke-linejoin:miter;stroke-width:1.5;"/>
   </g>
   <g id="matplotlib.axis_3">
    <g id="xtick_7">
     <g id="line2d_17">
      <g>
       <use style="stroke:#000000;stroke-width:0.8;" x="574.042962" xlink:href="#m79987508a0" y="313.194375"/>
      </g>
     </g>
     <g id="text_19">
      <!-- 7.590 -->
      <g transform="translate(559.7289 327.792812)scale(0.1 -0.1)">
       <use xlink:href="#DejaVuSans-55"/>
       <use x="63.623047" xlink:href="#DejaVuSans-46"/>
       <use x="95.410156" xlink:href="#DejaVuSans-53"/>
       <use x="159.033203" xlink:href="#DejaVuSans-57"/>
       <use x="222.65625" xlink:href="#DejaVuSans-48"/>
      </g>
     </g>
    </g>
    <g id="xtick_8">
     <g id="line2d_18">
      <g>
       <use style="stroke:#000000;stroke-width:0.8;" x="645.915141" xlink:href="#m79987508a0" y="313.194375"/>
      </g>
     </g>
     <g id="text_20">
      <!-- 7.595 -->
      <g transform="translate(631.601078 327.792812)scale(0.1 -0.1)">
       <use xlink:href="#DejaVuSans-55"/>
       <use x="63.623047" xlink:href="#DejaVuSans-46"/>
       <use x="95.410156" xlink:href="#DejaVuSans-53"/>
       <use x="159.033203" xlink:href="#DejaVuSans-57"/>
       <use x="222.65625" xlink:href="#DejaVuSans-53"/>
      </g>
     </g>
    </g>
    <g id="xtick_9">
     <g id="line2d_19">
      <g>
       <use style="stroke:#000000;stroke-width:0.8;" x="717.787319" xlink:href="#m79987508a0" y="313.194375"/>
      </g>
     </g>
     <g id="text_21">
      <!-- 7.600 -->
      <g transform="translate(703.473256 327.792812)scale(0.1 -0.1)">
       <use xlink:href="#DejaVuSans-55"/>
       <use x="63.623047" xlink:href="#DejaVuSans-46"/>
       <use x="95.410156" xlink:href="#DejaVuSans-54"/>
       <use x="159.033203" xlink:href="#DejaVuSans-48"/>
       <use x="222.65625" xlink:href="#DejaVuSans-48"/>
      </g>
     </g>
    </g>
    <g id="xtick_10">
     <g id="line2d_20">
      <g>
       <use style="stroke:#000000;stroke-width:0.8;" x="789.659497" xlink:href="#m79987508a0" y="313.194375"/>
      </g>
     </g>
     <g id="text_22">
      <!-- 7.605 -->
      <g transform="translate(775.345434 327.792812)scale(0.1 -0.1)">
       <use xlink:href="#DejaVuSans-55"/>
       <use x="63.623047" xlink:href="#DejaVuSans-46"/>
       <use x="95.410156" xlink:href="#DejaVuSans-54"/>
       <use x="159.033203" xlink:href="#DejaVuSans-48"/>
       <use x="222.65625" xlink:href="#DejaVuSans-53"/>
      </g>
     </g>
    </g>
    <g id="xtick_11">
     <g id="line2d_21">
      <g>
       <use style="stroke:#000000;stroke-width:0.8;" x="861.531675" xlink:href="#m79987508a0" y="313.194375"/>
      </g>
     </g>
     <g id="text_23">
      <!-- 7.610 -->
      <g transform="translate(847.217613 327.792812)scale(0.1 -0.1)">
       <use xlink:href="#DejaVuSans-55"/>
       <use x="63.623047" xlink:href="#DejaVuSans-46"/>
       <use x="95.410156" xlink:href="#DejaVuSans-54"/>
       <use x="159.033203" xlink:href="#DejaVuSans-49"/>
       <use x="222.65625" xlink:href="#DejaVuSans-48"/>
      </g>
     </g>
    </g>
    <g id="text_24">
     <!-- Model date -->
     <g transform="translate(665.861009 341.470937)scale(0.1 -0.1)">
      <use xlink:href="#DejaVuSans-77"/>
      <use x="86.279297" xlink:href="#DejaVuSans-111"/>
      <use x="147.460938" xlink:href="#DejaVuSans-100"/>
      <use x="210.9375" xlink:href="#DejaVuSans-101"/>
      <use x="272.460938" xlink:href="#DejaVuSans-108"/>
      <use x="300.244141" xlink:href="#DejaVuSans-32"/>
      <use x="332.03125" xlink:href="#DejaVuSans-100"/>
      <use x="395.507812" xlink:href="#DejaVuSans-97"/>
      <use x="456.787109" xlink:href="#DejaVuSans-116"/>
      <use x="495.996094" xlink:href="#DejaVuSans-101"/>
     </g>
    </g>
   </g>
   <g id="matplotlib.axis_4">
    <g id="ytick_10">
     <g id="line2d_22">
      <g>
       <use style="stroke:#000000;stroke-width:0.8;" x="503.51108" xlink:href="#m0fb22b9743" y="177.294375"/>
      </g>
     </g>
    </g>
   </g>
   <g id="line2d_23">
    <path clip-path="url(#p8f97bcd6fe)" d="M 780.982352 177.294375 
L 709.181825 177.294375 
" style="fill:none;stroke:#3f3f3f;stroke-linecap:square;stroke-width:1.5;"/>
   </g>
   <g id="line2d_24">
    <path clip-path="url(#p8f97bcd6fe)" d="M 831.030176 177.294375 
L 866.672237 177.294375 
" style="fill:none;stroke:#3f3f3f;stroke-linecap:square;stroke-width:1.5;"/>
   </g>
   <g id="line2d_25">
    <path clip-path="url(#p8f97bcd6fe)" d="M 709.181825 122.934375 
L 709.181825 231.654375 
" style="fill:none;stroke:#3f3f3f;stroke-linecap:square;stroke-width:1.5;"/>
   </g>
   <g id="line2d_26">
    <path clip-path="url(#p8f97bcd6fe)" d="M 866.672237 122.934375 
L 866.672237 231.654375 
" style="fill:none;stroke:#3f3f3f;stroke-linecap:square;stroke-width:1.5;"/>
   </g>
   <g id="line2d_27">
    <defs>
     <path d="M -0 3.535534 
L 2.12132 0 
L -0 -3.535534 
L -2.12132 -0 
z
" id="m197ac779a0" style="stroke:#3f3f3f;stroke-linejoin:miter;"/>
    </defs>
    <g clip-path="url(#p8f97bcd6fe)">
     <use style="fill:#3f3f3f;stroke:#3f3f3f;stroke-linejoin:miter;" x="615.30173" xlink:href="#m197ac779a0" y="177.294375"/>
     <use style="fill:#3f3f3f;stroke:#3f3f3f;stroke-linejoin:miter;" x="651.482056" xlink:href="#m197ac779a0" y="177.294375"/>
     <use style="fill:#3f3f3f;stroke:#3f3f3f;stroke-linejoin:miter;" x="658.707206" xlink:href="#m197ac779a0" y="177.294375"/>
     <use style="fill:#3f3f3f;stroke:#3f3f3f;stroke-linejoin:miter;" x="658.707206" xlink:href="#m197ac779a0" y="177.294375"/>
     <use style="fill:#3f3f3f;stroke:#3f3f3f;stroke-linejoin:miter;" x="680.360891" xlink:href="#m197ac779a0" y="177.294375"/>
     <use style="fill:#3f3f3f;stroke:#3f3f3f;stroke-linejoin:miter;" x="687.571544" xlink:href="#m197ac779a0" y="177.294375"/>
     <use style="fill:#3f3f3f;stroke:#3f3f3f;stroke-linejoin:miter;" x="687.571544" xlink:href="#m197ac779a0" y="177.294375"/>
     <use style="fill:#3f3f3f;stroke:#3f3f3f;stroke-linejoin:miter;" x="615.30173" xlink:href="#m197ac779a0" y="177.294375"/>
     <use style="fill:#3f3f3f;stroke:#3f3f3f;stroke-linejoin:miter;" x="651.482056" xlink:href="#m197ac779a0" y="177.294375"/>
     <use style="fill:#3f3f3f;stroke:#3f3f3f;stroke-linejoin:miter;" x="694.778581" xlink:href="#m197ac779a0" y="177.294375"/>
     <use style="fill:#3f3f3f;stroke:#3f3f3f;stroke-linejoin:miter;" x="520.804468" xlink:href="#m197ac779a0" y="177.294375"/>
     <use style="fill:#3f3f3f;stroke:#3f3f3f;stroke-linejoin:miter;" x="615.30173" xlink:href="#m197ac779a0" y="177.294375"/>
     <use style="fill:#3f3f3f;stroke:#3f3f3f;stroke-linejoin:miter;" x="687.571544" xlink:href="#m197ac779a0" y="177.294375"/>
     <use style="fill:#3f3f3f;stroke:#3f3f3f;stroke-linejoin:miter;" x="701.982007" xlink:href="#m197ac779a0" y="177.294375"/>
     <use style="fill:#3f3f3f;stroke:#3f3f3f;stroke-linejoin:miter;" x="622.545084" xlink:href="#m197ac779a0" y="177.294375"/>
     <use style="fill:#3f3f3f;stroke:#3f3f3f;stroke-linejoin:miter;" x="658.707206" xlink:href="#m197ac779a0" y="177.294375"/>
     <use style="fill:#3f3f3f;stroke:#3f3f3f;stroke-linejoin:miter;" x="549.94677" xlink:href="#m197ac779a0" y="177.294375"/>
     <use style="fill:#3f3f3f;stroke:#3f3f3f;stroke-linejoin:miter;" x="694.778581" xlink:href="#m197ac779a0" y="177.294375"/>
     <use style="fill:#3f3f3f;stroke:#3f3f3f;stroke-linejoin:miter;" x="694.778581" xlink:href="#m197ac779a0" y="177.294375"/>
     <use style="fill:#3f3f3f;stroke:#3f3f3f;stroke-linejoin:miter;" x="701.982007" xlink:href="#m197ac779a0" y="177.294375"/>
     <use style="fill:#3f3f3f;stroke:#3f3f3f;stroke-linejoin:miter;" x="651.482056" xlink:href="#m197ac779a0" y="177.294375"/>
     <use style="fill:#3f3f3f;stroke:#3f3f3f;stroke-linejoin:miter;" x="673.14662" xlink:href="#m197ac779a0" y="177.294375"/>
     <use style="fill:#3f3f3f;stroke:#3f3f3f;stroke-linejoin:miter;" x="701.982007" xlink:href="#m197ac779a0" y="177.294375"/>
     <use style="fill:#3f3f3f;stroke:#3f3f3f;stroke-linejoin:miter;" x="615.30173" xlink:href="#m197ac779a0" y="177.294375"/>
     <use style="fill:#3f3f3f;stroke:#3f3f3f;stroke-linejoin:miter;" x="658.707206" xlink:href="#m197ac779a0" y="177.294375"/>
     <use style="fill:#3f3f3f;stroke:#3f3f3f;stroke-linejoin:miter;" x="651.482056" xlink:href="#m197ac779a0" y="177.294375"/>
     <use style="fill:#3f3f3f;stroke:#3f3f3f;stroke-linejoin:miter;" x="694.778581" xlink:href="#m197ac779a0" y="177.294375"/>
     <use style="fill:#3f3f3f;stroke:#3f3f3f;stroke-linejoin:miter;" x="687.571544" xlink:href="#m197ac779a0" y="177.294375"/>
     <use style="fill:#3f3f3f;stroke:#3f3f3f;stroke-linejoin:miter;" x="687.571544" xlink:href="#m197ac779a0" y="177.294375"/>
     <use style="fill:#3f3f3f;stroke:#3f3f3f;stroke-linejoin:miter;" x="615.30173" xlink:href="#m197ac779a0" y="177.294375"/>
     <use style="fill:#3f3f3f;stroke:#3f3f3f;stroke-linejoin:miter;" x="658.707206" xlink:href="#m197ac779a0" y="177.294375"/>
     <use style="fill:#3f3f3f;stroke:#3f3f3f;stroke-linejoin:miter;" x="687.571544" xlink:href="#m197ac779a0" y="177.294375"/>
     <use style="fill:#3f3f3f;stroke:#3f3f3f;stroke-linejoin:miter;" x="687.571544" xlink:href="#m197ac779a0" y="177.294375"/>
     <use style="fill:#3f3f3f;stroke:#3f3f3f;stroke-linejoin:miter;" x="615.30173" xlink:href="#m197ac779a0" y="177.294375"/>
     <use style="fill:#3f3f3f;stroke:#3f3f3f;stroke-linejoin:miter;" x="637.020851" xlink:href="#m197ac779a0" y="177.294375"/>
     <use style="fill:#3f3f3f;stroke:#3f3f3f;stroke-linejoin:miter;" x="694.778581" xlink:href="#m197ac779a0" y="177.294375"/>
     <use style="fill:#3f3f3f;stroke:#3f3f3f;stroke-linejoin:miter;" x="658.707206" xlink:href="#m197ac779a0" y="177.294375"/>
     <use style="fill:#3f3f3f;stroke:#3f3f3f;stroke-linejoin:miter;" x="694.778581" xlink:href="#m197ac779a0" y="177.294375"/>
     <use style="fill:#3f3f3f;stroke:#3f3f3f;stroke-linejoin:miter;" x="694.778581" xlink:href="#m197ac779a0" y="177.294375"/>
     <use style="fill:#3f3f3f;stroke:#3f3f3f;stroke-linejoin:miter;" x="658.707206" xlink:href="#m197ac779a0" y="177.294375"/>
     <use style="fill:#3f3f3f;stroke:#3f3f3f;stroke-linejoin:miter;" x="579.03011" xlink:href="#m197ac779a0" y="177.294375"/>
     <use style="fill:#3f3f3f;stroke:#3f3f3f;stroke-linejoin:miter;" x="694.778581" xlink:href="#m197ac779a0" y="177.294375"/>
     <use style="fill:#3f3f3f;stroke:#3f3f3f;stroke-linejoin:miter;" x="622.545084" xlink:href="#m197ac779a0" y="177.294375"/>
     <use style="fill:#3f3f3f;stroke:#3f3f3f;stroke-linejoin:miter;" x="658.707206" xlink:href="#m197ac779a0" y="177.294375"/>
     <use style="fill:#3f3f3f;stroke:#3f3f3f;stroke-linejoin:miter;" x="687.571544" xlink:href="#m197ac779a0" y="177.294375"/>
     <use style="fill:#3f3f3f;stroke:#3f3f3f;stroke-linejoin:miter;" x="701.982007" xlink:href="#m197ac779a0" y="177.294375"/>
     <use style="fill:#3f3f3f;stroke:#3f3f3f;stroke-linejoin:miter;" x="622.545084" xlink:href="#m197ac779a0" y="177.294375"/>
     <use style="fill:#3f3f3f;stroke:#3f3f3f;stroke-linejoin:miter;" x="665.928726" xlink:href="#m197ac779a0" y="177.294375"/>
     <use style="fill:#3f3f3f;stroke:#3f3f3f;stroke-linejoin:miter;" x="579.03011" xlink:href="#m197ac779a0" y="177.294375"/>
     <use style="fill:#3f3f3f;stroke:#3f3f3f;stroke-linejoin:miter;" x="658.707206" xlink:href="#m197ac779a0" y="177.294375"/>
     <use style="fill:#3f3f3f;stroke:#3f3f3f;stroke-linejoin:miter;" x="665.928726" xlink:href="#m197ac779a0" y="177.294375"/>
     <use style="fill:#3f3f3f;stroke:#3f3f3f;stroke-linejoin:miter;" x="673.14662" xlink:href="#m197ac779a0" y="177.294375"/>
     <use style="fill:#3f3f3f;stroke:#3f3f3f;stroke-linejoin:miter;" x="694.778581" xlink:href="#m197ac779a0" y="177.294375"/>
     <use style="fill:#3f3f3f;stroke:#3f3f3f;stroke-linejoin:miter;" x="687.571544" xlink:href="#m197ac779a0" y="177.294375"/>
     <use style="fill:#3f3f3f;stroke:#3f3f3f;stroke-linejoin:miter;" x="701.982007" xlink:href="#m197ac779a0" y="177.294375"/>
     <use style="fill:#3f3f3f;stroke:#3f3f3f;stroke-linejoin:miter;" x="701.982007" xlink:href="#m197ac779a0" y="177.294375"/>
     <use style="fill:#3f3f3f;stroke:#3f3f3f;stroke-linejoin:miter;" x="694.778581" xlink:href="#m197ac779a0" y="177.294375"/>
     <use style="fill:#3f3f3f;stroke:#3f3f3f;stroke-linejoin:miter;" x="615.30173" xlink:href="#m197ac779a0" y="177.294375"/>
     <use style="fill:#3f3f3f;stroke:#3f3f3f;stroke-linejoin:miter;" x="687.571544" xlink:href="#m197ac779a0" y="177.294375"/>
     <use style="fill:#3f3f3f;stroke:#3f3f3f;stroke-linejoin:miter;" x="637.020851" xlink:href="#m197ac779a0" y="177.294375"/>
     <use style="fill:#3f3f3f;stroke:#3f3f3f;stroke-linejoin:miter;" x="658.707206" xlink:href="#m197ac779a0" y="177.294375"/>
     <use style="fill:#3f3f3f;stroke:#3f3f3f;stroke-linejoin:miter;" x="600.804063" xlink:href="#m197ac779a0" y="177.294375"/>
     <use style="fill:#3f3f3f;stroke:#3f3f3f;stroke-linejoin:miter;" x="637.020851" xlink:href="#m197ac779a0" y="177.294375"/>
     <use style="fill:#3f3f3f;stroke:#3f3f3f;stroke-linejoin:miter;" x="658.707206" xlink:href="#m197ac779a0" y="177.294375"/>
     <use style="fill:#3f3f3f;stroke:#3f3f3f;stroke-linejoin:miter;" x="694.778581" xlink:href="#m197ac779a0" y="177.294375"/>
     <use style="fill:#3f3f3f;stroke:#3f3f3f;stroke-linejoin:miter;" x="579.03011" xlink:href="#m197ac779a0" y="177.294375"/>
     <use style="fill:#3f3f3f;stroke:#3f3f3f;stroke-linejoin:miter;" x="658.707206" xlink:href="#m197ac779a0" y="177.294375"/>
     <use style="fill:#3f3f3f;stroke:#3f3f3f;stroke-linejoin:miter;" x="694.778581" xlink:href="#m197ac779a0" y="177.294375"/>
     <use style="fill:#3f3f3f;stroke:#3f3f3f;stroke-linejoin:miter;" x="673.14662" xlink:href="#m197ac779a0" y="177.294375"/>
     <use style="fill:#3f3f3f;stroke:#3f3f3f;stroke-linejoin:miter;" x="658.707206" xlink:href="#m197ac779a0" y="177.294375"/>
     <use style="fill:#3f3f3f;stroke:#3f3f3f;stroke-linejoin:miter;" x="629.78479" xlink:href="#m197ac779a0" y="177.294375"/>
     <use style="fill:#3f3f3f;stroke:#3f3f3f;stroke-linejoin:miter;" x="694.778581" xlink:href="#m197ac779a0" y="177.294375"/>
     <use style="fill:#3f3f3f;stroke:#3f3f3f;stroke-linejoin:miter;" x="687.571544" xlink:href="#m197ac779a0" y="177.294375"/>
     <use style="fill:#3f3f3f;stroke:#3f3f3f;stroke-linejoin:miter;" x="694.778581" xlink:href="#m197ac779a0" y="177.294375"/>
     <use style="fill:#3f3f3f;stroke:#3f3f3f;stroke-linejoin:miter;" x="701.982007" xlink:href="#m197ac779a0" y="177.294375"/>
     <use style="fill:#3f3f3f;stroke:#3f3f3f;stroke-linejoin:miter;" x="665.928726" xlink:href="#m197ac779a0" y="177.294375"/>
     <use style="fill:#3f3f3f;stroke:#3f3f3f;stroke-linejoin:miter;" x="687.571544" xlink:href="#m197ac779a0" y="177.294375"/>
     <use style="fill:#3f3f3f;stroke:#3f3f3f;stroke-linejoin:miter;" x="615.30173" xlink:href="#m197ac779a0" y="177.294375"/>
     <use style="fill:#3f3f3f;stroke:#3f3f3f;stroke-linejoin:miter;" x="694.778581" xlink:href="#m197ac779a0" y="177.294375"/>
     <use style="fill:#3f3f3f;stroke:#3f3f3f;stroke-linejoin:miter;" x="615.30173" xlink:href="#m197ac779a0" y="177.294375"/>
     <use style="fill:#3f3f3f;stroke:#3f3f3f;stroke-linejoin:miter;" x="644.253272" xlink:href="#m197ac779a0" y="177.294375"/>
     <use style="fill:#3f3f3f;stroke:#3f3f3f;stroke-linejoin:miter;" x="687.571544" xlink:href="#m197ac779a0" y="177.294375"/>
     <use style="fill:#3f3f3f;stroke:#3f3f3f;stroke-linejoin:miter;" x="658.707206" xlink:href="#m197ac779a0" y="177.294375"/>
     <use style="fill:#3f3f3f;stroke:#3f3f3f;stroke-linejoin:miter;" x="687.571544" xlink:href="#m197ac779a0" y="177.294375"/>
     <use style="fill:#3f3f3f;stroke:#3f3f3f;stroke-linejoin:miter;" x="637.020851" xlink:href="#m197ac779a0" y="177.294375"/>
     <use style="fill:#3f3f3f;stroke:#3f3f3f;stroke-linejoin:miter;" x="665.928726" xlink:href="#m197ac779a0" y="177.294375"/>
     <use style="fill:#3f3f3f;stroke:#3f3f3f;stroke-linejoin:miter;" x="637.020851" xlink:href="#m197ac779a0" y="177.294375"/>
     <use style="fill:#3f3f3f;stroke:#3f3f3f;stroke-linejoin:miter;" x="600.804063" xlink:href="#m197ac779a0" y="177.294375"/>
     <use style="fill:#3f3f3f;stroke:#3f3f3f;stroke-linejoin:miter;" x="600.804063" xlink:href="#m197ac779a0" y="177.294375"/>
     <use style="fill:#3f3f3f;stroke:#3f3f3f;stroke-linejoin:miter;" x="687.571544" xlink:href="#m197ac779a0" y="177.294375"/>
     <use style="fill:#3f3f3f;stroke:#3f3f3f;stroke-linejoin:miter;" x="701.982007" xlink:href="#m197ac779a0" y="177.294375"/>
     <use style="fill:#3f3f3f;stroke:#3f3f3f;stroke-linejoin:miter;" x="658.707206" xlink:href="#m197ac779a0" y="177.294375"/>
     <use style="fill:#3f3f3f;stroke:#3f3f3f;stroke-linejoin:miter;" x="644.253272" xlink:href="#m197ac779a0" y="177.294375"/>
     <use style="fill:#3f3f3f;stroke:#3f3f3f;stroke-linejoin:miter;" x="600.804063" xlink:href="#m197ac779a0" y="177.294375"/>
     <use style="fill:#3f3f3f;stroke:#3f3f3f;stroke-linejoin:miter;" x="687.571544" xlink:href="#m197ac779a0" y="177.294375"/>
     <use style="fill:#3f3f3f;stroke:#3f3f3f;stroke-linejoin:miter;" x="622.545084" xlink:href="#m197ac779a0" y="177.294375"/>
     <use style="fill:#3f3f3f;stroke:#3f3f3f;stroke-linejoin:miter;" x="658.707206" xlink:href="#m197ac779a0" y="177.294375"/>
     <use style="fill:#3f3f3f;stroke:#3f3f3f;stroke-linejoin:miter;" x="658.707206" xlink:href="#m197ac779a0" y="177.294375"/>
     <use style="fill:#3f3f3f;stroke:#3f3f3f;stroke-linejoin:miter;" x="687.571544" xlink:href="#m197ac779a0" y="177.294375"/>
     <use style="fill:#3f3f3f;stroke:#3f3f3f;stroke-linejoin:miter;" x="593.549743" xlink:href="#m197ac779a0" y="177.294375"/>
     <use style="fill:#3f3f3f;stroke:#3f3f3f;stroke-linejoin:miter;" x="694.778581" xlink:href="#m197ac779a0" y="177.294375"/>
     <use style="fill:#3f3f3f;stroke:#3f3f3f;stroke-linejoin:miter;" x="658.707206" xlink:href="#m197ac779a0" y="177.294375"/>
     <use style="fill:#3f3f3f;stroke:#3f3f3f;stroke-linejoin:miter;" x="637.020851" xlink:href="#m197ac779a0" y="177.294375"/>
     <use style="fill:#3f3f3f;stroke:#3f3f3f;stroke-linejoin:miter;" x="673.14662" xlink:href="#m197ac779a0" y="177.294375"/>
     <use style="fill:#3f3f3f;stroke:#3f3f3f;stroke-linejoin:miter;" x="658.707206" xlink:href="#m197ac779a0" y="177.294375"/>
     <use style="fill:#3f3f3f;stroke:#3f3f3f;stroke-linejoin:miter;" x="637.020851" xlink:href="#m197ac779a0" y="177.294375"/>
     <use style="fill:#3f3f3f;stroke:#3f3f3f;stroke-linejoin:miter;" x="701.982007" xlink:href="#m197ac779a0" y="177.294375"/>
     <use style="fill:#3f3f3f;stroke:#3f3f3f;stroke-linejoin:miter;" x="658.707206" xlink:href="#m197ac779a0" y="177.294375"/>
     <use style="fill:#3f3f3f;stroke:#3f3f3f;stroke-linejoin:miter;" x="549.94677" xlink:href="#m197ac779a0" y="177.294375"/>
     <use style="fill:#3f3f3f;stroke:#3f3f3f;stroke-linejoin:miter;" x="694.778581" xlink:href="#m197ac779a0" y="177.294375"/>
     <use style="fill:#3f3f3f;stroke:#3f3f3f;stroke-linejoin:miter;" x="701.982007" xlink:href="#m197ac779a0" y="177.294375"/>
     <use style="fill:#3f3f3f;stroke:#3f3f3f;stroke-linejoin:miter;" x="658.707206" xlink:href="#m197ac779a0" y="177.294375"/>
     <use style="fill:#3f3f3f;stroke:#3f3f3f;stroke-linejoin:miter;" x="687.571544" xlink:href="#m197ac779a0" y="177.294375"/>
     <use style="fill:#3f3f3f;stroke:#3f3f3f;stroke-linejoin:miter;" x="673.14662" xlink:href="#m197ac779a0" y="177.294375"/>
     <use style="fill:#3f3f3f;stroke:#3f3f3f;stroke-linejoin:miter;" x="658.707206" xlink:href="#m197ac779a0" y="177.294375"/>
     <use style="fill:#3f3f3f;stroke:#3f3f3f;stroke-linejoin:miter;" x="637.020851" xlink:href="#m197ac779a0" y="177.294375"/>
     <use style="fill:#3f3f3f;stroke:#3f3f3f;stroke-linejoin:miter;" x="701.982007" xlink:href="#m197ac779a0" y="177.294375"/>
     <use style="fill:#3f3f3f;stroke:#3f3f3f;stroke-linejoin:miter;" x="658.707206" xlink:href="#m197ac779a0" y="177.294375"/>
     <use style="fill:#3f3f3f;stroke:#3f3f3f;stroke-linejoin:miter;" x="637.020851" xlink:href="#m197ac779a0" y="177.294375"/>
     <use style="fill:#3f3f3f;stroke:#3f3f3f;stroke-linejoin:miter;" x="622.545084" xlink:href="#m197ac779a0" y="177.294375"/>
     <use style="fill:#3f3f3f;stroke:#3f3f3f;stroke-linejoin:miter;" x="615.30173" xlink:href="#m197ac779a0" y="177.294375"/>
     <use style="fill:#3f3f3f;stroke:#3f3f3f;stroke-linejoin:miter;" x="658.707206" xlink:href="#m197ac779a0" y="177.294375"/>
     <use style="fill:#3f3f3f;stroke:#3f3f3f;stroke-linejoin:miter;" x="658.707206" xlink:href="#m197ac779a0" y="177.294375"/>
     <use style="fill:#3f3f3f;stroke:#3f3f3f;stroke-linejoin:miter;" x="701.982007" xlink:href="#m197ac779a0" y="177.294375"/>
     <use style="fill:#3f3f3f;stroke:#3f3f3f;stroke-linejoin:miter;" x="651.482056" xlink:href="#m197ac779a0" y="177.294375"/>
     <use style="fill:#3f3f3f;stroke:#3f3f3f;stroke-linejoin:miter;" x="658.707206" xlink:href="#m197ac779a0" y="177.294375"/>
     <use style="fill:#3f3f3f;stroke:#3f3f3f;stroke-linejoin:miter;" x="658.707206" xlink:href="#m197ac779a0" y="177.294375"/>
     <use style="fill:#3f3f3f;stroke:#3f3f3f;stroke-linejoin:miter;" x="579.03011" xlink:href="#m197ac779a0" y="177.294375"/>
     <use style="fill:#3f3f3f;stroke:#3f3f3f;stroke-linejoin:miter;" x="673.14662" xlink:href="#m197ac779a0" y="177.294375"/>
     <use style="fill:#3f3f3f;stroke:#3f3f3f;stroke-linejoin:miter;" x="658.707206" xlink:href="#m197ac779a0" y="177.294375"/>
     <use style="fill:#3f3f3f;stroke:#3f3f3f;stroke-linejoin:miter;" x="622.545084" xlink:href="#m197ac779a0" y="177.294375"/>
     <use style="fill:#3f3f3f;stroke:#3f3f3f;stroke-linejoin:miter;" x="673.14662" xlink:href="#m197ac779a0" y="177.294375"/>
     <use style="fill:#3f3f3f;stroke:#3f3f3f;stroke-linejoin:miter;" x="658.707206" xlink:href="#m197ac779a0" y="177.294375"/>
     <use style="fill:#3f3f3f;stroke:#3f3f3f;stroke-linejoin:miter;" x="694.778581" xlink:href="#m197ac779a0" y="177.294375"/>
     <use style="fill:#3f3f3f;stroke:#3f3f3f;stroke-linejoin:miter;" x="658.707206" xlink:href="#m197ac779a0" y="177.294375"/>
     <use style="fill:#3f3f3f;stroke:#3f3f3f;stroke-linejoin:miter;" x="658.707206" xlink:href="#m197ac779a0" y="177.294375"/>
     <use style="fill:#3f3f3f;stroke:#3f3f3f;stroke-linejoin:miter;" x="658.707206" xlink:href="#m197ac779a0" y="177.294375"/>
     <use style="fill:#3f3f3f;stroke:#3f3f3f;stroke-linejoin:miter;" x="658.707206" xlink:href="#m197ac779a0" y="177.294375"/>
     <use style="fill:#3f3f3f;stroke:#3f3f3f;stroke-linejoin:miter;" x="564.495795" xlink:href="#m197ac779a0" y="177.294375"/>
     <use style="fill:#3f3f3f;stroke:#3f3f3f;stroke-linejoin:miter;" x="694.778581" xlink:href="#m197ac779a0" y="177.294375"/>
     <use style="fill:#3f3f3f;stroke:#3f3f3f;stroke-linejoin:miter;" x="673.14662" xlink:href="#m197ac779a0" y="177.294375"/>
     <use style="fill:#3f3f3f;stroke:#3f3f3f;stroke-linejoin:miter;" x="687.571544" xlink:href="#m197ac779a0" y="177.294375"/>
     <use style="fill:#3f3f3f;stroke:#3f3f3f;stroke-linejoin:miter;" x="701.982007" xlink:href="#m197ac779a0" y="177.294375"/>
     <use style="fill:#3f3f3f;stroke:#3f3f3f;stroke-linejoin:miter;" x="694.778581" xlink:href="#m197ac779a0" y="177.294375"/>
     <use style="fill:#3f3f3f;stroke:#3f3f3f;stroke-linejoin:miter;" x="687.571544" xlink:href="#m197ac779a0" y="177.294375"/>
     <use style="fill:#3f3f3f;stroke:#3f3f3f;stroke-linejoin:miter;" x="658.707206" xlink:href="#m197ac779a0" y="177.294375"/>
     <use style="fill:#3f3f3f;stroke:#3f3f3f;stroke-linejoin:miter;" x="658.707206" xlink:href="#m197ac779a0" y="177.294375"/>
     <use style="fill:#3f3f3f;stroke:#3f3f3f;stroke-linejoin:miter;" x="658.707206" xlink:href="#m197ac779a0" y="177.294375"/>
     <use style="fill:#3f3f3f;stroke:#3f3f3f;stroke-linejoin:miter;" x="687.571544" xlink:href="#m197ac779a0" y="177.294375"/>
     <use style="fill:#3f3f3f;stroke:#3f3f3f;stroke-linejoin:miter;" x="687.571544" xlink:href="#m197ac779a0" y="177.294375"/>
     <use style="fill:#3f3f3f;stroke:#3f3f3f;stroke-linejoin:miter;" x="694.778581" xlink:href="#m197ac779a0" y="177.294375"/>
     <use style="fill:#3f3f3f;stroke:#3f3f3f;stroke-linejoin:miter;" x="658.707206" xlink:href="#m197ac779a0" y="177.294375"/>
     <use style="fill:#3f3f3f;stroke:#3f3f3f;stroke-linejoin:miter;" x="658.707206" xlink:href="#m197ac779a0" y="177.294375"/>
     <use style="fill:#3f3f3f;stroke:#3f3f3f;stroke-linejoin:miter;" x="694.778581" xlink:href="#m197ac779a0" y="177.294375"/>
     <use style="fill:#3f3f3f;stroke:#3f3f3f;stroke-linejoin:miter;" x="687.571544" xlink:href="#m197ac779a0" y="177.294375"/>
     <use style="fill:#3f3f3f;stroke:#3f3f3f;stroke-linejoin:miter;" x="694.778581" xlink:href="#m197ac779a0" y="177.294375"/>
     <use style="fill:#3f3f3f;stroke:#3f3f3f;stroke-linejoin:miter;" x="658.707206" xlink:href="#m197ac779a0" y="177.294375"/>
     <use style="fill:#3f3f3f;stroke:#3f3f3f;stroke-linejoin:miter;" x="622.545084" xlink:href="#m197ac779a0" y="177.294375"/>
     <use style="fill:#3f3f3f;stroke:#3f3f3f;stroke-linejoin:miter;" x="673.14662" xlink:href="#m197ac779a0" y="177.294375"/>
     <use style="fill:#3f3f3f;stroke:#3f3f3f;stroke-linejoin:miter;" x="687.571544" xlink:href="#m197ac779a0" y="177.294375"/>
     <use style="fill:#3f3f3f;stroke:#3f3f3f;stroke-linejoin:miter;" x="687.571544" xlink:href="#m197ac779a0" y="177.294375"/>
     <use style="fill:#3f3f3f;stroke:#3f3f3f;stroke-linejoin:miter;" x="557.223123" xlink:href="#m197ac779a0" y="177.294375"/>
     <use style="fill:#3f3f3f;stroke:#3f3f3f;stroke-linejoin:miter;" x="658.707206" xlink:href="#m197ac779a0" y="177.294375"/>
     <use style="fill:#3f3f3f;stroke:#3f3f3f;stroke-linejoin:miter;" x="694.778581" xlink:href="#m197ac779a0" y="177.294375"/>
     <use style="fill:#3f3f3f;stroke:#3f3f3f;stroke-linejoin:miter;" x="673.14662" xlink:href="#m197ac779a0" y="177.294375"/>
     <use style="fill:#3f3f3f;stroke:#3f3f3f;stroke-linejoin:miter;" x="658.707206" xlink:href="#m197ac779a0" y="177.294375"/>
     <use style="fill:#3f3f3f;stroke:#3f3f3f;stroke-linejoin:miter;" x="658.707206" xlink:href="#m197ac779a0" y="177.294375"/>
     <use style="fill:#3f3f3f;stroke:#3f3f3f;stroke-linejoin:miter;" x="564.495795" xlink:href="#m197ac779a0" y="177.294375"/>
     <use style="fill:#3f3f3f;stroke:#3f3f3f;stroke-linejoin:miter;" x="637.020851" xlink:href="#m197ac779a0" y="177.294375"/>
     <use style="fill:#3f3f3f;stroke:#3f3f3f;stroke-linejoin:miter;" x="673.14662" xlink:href="#m197ac779a0" y="177.294375"/>
     <use style="fill:#3f3f3f;stroke:#3f3f3f;stroke-linejoin:miter;" x="701.982007" xlink:href="#m197ac779a0" y="177.294375"/>
     <use style="fill:#3f3f3f;stroke:#3f3f3f;stroke-linejoin:miter;" x="658.707206" xlink:href="#m197ac779a0" y="177.294375"/>
     <use style="fill:#3f3f3f;stroke:#3f3f3f;stroke-linejoin:miter;" x="593.549743" xlink:href="#m197ac779a0" y="177.294375"/>
     <use style="fill:#3f3f3f;stroke:#3f3f3f;stroke-linejoin:miter;" x="658.707206" xlink:href="#m197ac779a0" y="177.294375"/>
     <use style="fill:#3f3f3f;stroke:#3f3f3f;stroke-linejoin:miter;" x="673.14662" xlink:href="#m197ac779a0" y="177.294375"/>
     <use style="fill:#3f3f3f;stroke:#3f3f3f;stroke-linejoin:miter;" x="687.571544" xlink:href="#m197ac779a0" y="177.294375"/>
     <use style="fill:#3f3f3f;stroke:#3f3f3f;stroke-linejoin:miter;" x="701.982007" xlink:href="#m197ac779a0" y="177.294375"/>
     <use style="fill:#3f3f3f;stroke:#3f3f3f;stroke-linejoin:miter;" x="658.707206" xlink:href="#m197ac779a0" y="177.294375"/>
     <use style="fill:#3f3f3f;stroke:#3f3f3f;stroke-linejoin:miter;" x="687.571544" xlink:href="#m197ac779a0" y="177.294375"/>
     <use style="fill:#3f3f3f;stroke:#3f3f3f;stroke-linejoin:miter;" x="600.804063" xlink:href="#m197ac779a0" y="177.294375"/>
     <use style="fill:#3f3f3f;stroke:#3f3f3f;stroke-linejoin:miter;" x="694.778581" xlink:href="#m197ac779a0" y="177.294375"/>
     <use style="fill:#3f3f3f;stroke:#3f3f3f;stroke-linejoin:miter;" x="687.571544" xlink:href="#m197ac779a0" y="177.294375"/>
     <use style="fill:#3f3f3f;stroke:#3f3f3f;stroke-linejoin:miter;" x="658.707206" xlink:href="#m197ac779a0" y="177.294375"/>
     <use style="fill:#3f3f3f;stroke:#3f3f3f;stroke-linejoin:miter;" x="687.571544" xlink:href="#m197ac779a0" y="177.294375"/>
     <use style="fill:#3f3f3f;stroke:#3f3f3f;stroke-linejoin:miter;" x="673.14662" xlink:href="#m197ac779a0" y="177.294375"/>
     <use style="fill:#3f3f3f;stroke:#3f3f3f;stroke-linejoin:miter;" x="658.707206" xlink:href="#m197ac779a0" y="177.294375"/>
     <use style="fill:#3f3f3f;stroke:#3f3f3f;stroke-linejoin:miter;" x="673.14662" xlink:href="#m197ac779a0" y="177.294375"/>
     <use style="fill:#3f3f3f;stroke:#3f3f3f;stroke-linejoin:miter;" x="687.571544" xlink:href="#m197ac779a0" y="177.294375"/>
     <use style="fill:#3f3f3f;stroke:#3f3f3f;stroke-linejoin:miter;" x="658.707206" xlink:href="#m197ac779a0" y="177.294375"/>
     <use style="fill:#3f3f3f;stroke:#3f3f3f;stroke-linejoin:miter;" x="637.020851" xlink:href="#m197ac779a0" y="177.294375"/>
     <use style="fill:#3f3f3f;stroke:#3f3f3f;stroke-linejoin:miter;" x="687.571544" xlink:href="#m197ac779a0" y="177.294375"/>
    </g>
   </g>
   <g id="line2d_28">
    <path clip-path="url(#p8f97bcd6fe)" d="M 809.602442 68.574375 
L 809.602442 286.014375 
" style="fill:none;stroke:#3f3f3f;stroke-linecap:square;stroke-width:1.5;"/>
   </g>
   <g id="patch_109">
    <path d="M 503.51108 313.194375 
L 503.51108 41.394375 
" style="fill:none;stroke:#000000;stroke-linecap:square;stroke-linejoin:miter;stroke-width:0.8;"/>
   </g>
   <g id="patch_110">
    <path d="M 883.965625 313.194375 
L 883.965625 41.394375 
" style="fill:none;stroke:#000000;stroke-linecap:square;stroke-linejoin:miter;stroke-width:0.8;"/>
   </g>
   <g id="patch_111">
    <path d="M 503.51108 313.194375 
L 883.965625 313.194375 
" style="fill:none;stroke:#000000;stroke-linecap:square;stroke-linejoin:miter;stroke-width:0.8;"/>
   </g>
   <g id="patch_112">
    <path d="M 503.51108 41.394375 
L 883.965625 41.394375 
" style="fill:none;stroke:#000000;stroke-linecap:square;stroke-linejoin:miter;stroke-width:0.8;"/>
   </g>
   <g id="text_25">
    <!-- Box Plot for Model date after log -->
    <defs>
     <path d="M 19.671875 34.8125 
L 19.671875 8.109375 
L 35.5 8.109375 
Q 43.453125 8.109375 47.28125 11.40625 
Q 51.125 14.703125 51.125 21.484375 
Q 51.125 28.328125 47.28125 31.5625 
Q 43.453125 34.8125 35.5 34.8125 
z
M 19.671875 64.796875 
L 19.671875 42.828125 
L 34.28125 42.828125 
Q 41.5 42.828125 45.03125 45.53125 
Q 48.578125 48.25 48.578125 53.8125 
Q 48.578125 59.328125 45.03125 62.0625 
Q 41.5 64.796875 34.28125 64.796875 
z
M 9.8125 72.90625 
L 35.015625 72.90625 
Q 46.296875 72.90625 52.390625 68.21875 
Q 58.5 63.53125 58.5 54.890625 
Q 58.5 48.1875 55.375 44.234375 
Q 52.25 40.28125 46.1875 39.3125 
Q 53.46875 37.75 57.5 32.78125 
Q 61.53125 27.828125 61.53125 20.40625 
Q 61.53125 10.640625 54.890625 5.3125 
Q 48.25 0 35.984375 0 
L 9.8125 0 
z
" id="DejaVuSans-66"/>
     <path d="M 54.890625 54.6875 
L 35.109375 28.078125 
L 55.90625 0 
L 45.3125 0 
L 29.390625 21.484375 
L 13.484375 0 
L 2.875 0 
L 24.125 28.609375 
L 4.6875 54.6875 
L 15.28125 54.6875 
L 29.78125 35.203125 
L 44.28125 54.6875 
z
" id="DejaVuSans-120"/>
     <path d="M 19.671875 64.796875 
L 19.671875 37.40625 
L 32.078125 37.40625 
Q 38.96875 37.40625 42.71875 40.96875 
Q 46.484375 44.53125 46.484375 51.125 
Q 46.484375 57.671875 42.71875 61.234375 
Q 38.96875 64.796875 32.078125 64.796875 
z
M 9.8125 72.90625 
L 32.078125 72.90625 
Q 44.34375 72.90625 50.609375 67.359375 
Q 56.890625 61.8125 56.890625 51.125 
Q 56.890625 40.328125 50.609375 34.8125 
Q 44.34375 29.296875 32.078125 29.296875 
L 19.671875 29.296875 
L 19.671875 0 
L 9.8125 0 
z
" id="DejaVuSans-80"/>
    </defs>
    <g transform="translate(572.439915 18.597656)scale(0.15 -0.15)">
     <use xlink:href="#DejaVuSans-66"/>
     <use x="68.603516" xlink:href="#DejaVuSans-111"/>
     <use x="126.660156" xlink:href="#DejaVuSans-120"/>
     <use x="185.839844" xlink:href="#DejaVuSans-32"/>
     <use x="217.626953" xlink:href="#DejaVuSans-80"/>
     <use x="277.929688" xlink:href="#DejaVuSans-108"/>
     <use x="305.712891" xlink:href="#DejaVuSans-111"/>
     <use x="366.894531" xlink:href="#DejaVuSans-116"/>
     <use x="406.103516" xlink:href="#DejaVuSans-32"/>
     <use x="437.890625" xlink:href="#DejaVuSans-102"/>
     <use x="473.095703" xlink:href="#DejaVuSans-111"/>
     <use x="534.277344" xlink:href="#DejaVuSans-114"/>
     <use x="575.390625" xlink:href="#DejaVuSans-32"/>
     <use x="607.177734" xlink:href="#DejaVuSans-77"/>
     <use x="693.457031" xlink:href="#DejaVuSans-111"/>
     <use x="754.638672" xlink:href="#DejaVuSans-100"/>
     <use x="818.115234" xlink:href="#DejaVuSans-101"/>
     <use x="879.638672" xlink:href="#DejaVuSans-108"/>
     <use x="907.421875" xlink:href="#DejaVuSans-32"/>
     <use x="939.208984" xlink:href="#DejaVuSans-100"/>
     <use x="1002.685547" xlink:href="#DejaVuSans-97"/>
     <use x="1063.964844" xlink:href="#DejaVuSans-116"/>
     <use x="1103.173828" xlink:href="#DejaVuSans-101"/>
     <use x="1164.697266" xlink:href="#DejaVuSans-32"/>
     <use x="1196.484375" xlink:href="#DejaVuSans-97"/>
     <use x="1257.763672" xlink:href="#DejaVuSans-102"/>
     <use x="1291.21875" xlink:href="#DejaVuSans-116"/>
     <use x="1330.427734" xlink:href="#DejaVuSans-101"/>
     <use x="1391.951172" xlink:href="#DejaVuSans-114"/>
     <use x="1433.064453" xlink:href="#DejaVuSans-32"/>
     <use x="1464.851562" xlink:href="#DejaVuSans-108"/>
     <use x="1492.634766" xlink:href="#DejaVuSans-111"/>
     <use x="1553.816406" xlink:href="#DejaVuSans-103"/>
    </g>
    <!--  -->
    <g transform="translate(693.738352 35.394375)scale(0.15 -0.15)"/>
   </g>
  </g>
 </g>
 <defs>
  <clipPath id="p7a58f1a91a">
   <rect height="271.8" width="380.454545" x="46.965625" y="41.394375"/>
  </clipPath>
  <clipPath id="p8f97bcd6fe">
   <rect height="271.8" width="380.454545" x="503.51108" y="41.394375"/>
  </clipPath>
 </defs>
</svg>
