<?xml version="1.0" encoding="utf-8" standalone="no"?>
<!DOCTYPE svg PUBLIC "-//W3C//DTD SVG 1.1//EN"
  "http://www.w3.org/Graphics/SVG/1.1/DTD/svg11.dtd">
<!-- Created with matplotlib (https://matplotlib.org/) -->
<svg height="263.63625pt" version="1.1" viewBox="0 0 368.925 263.63625" width="368.925pt" xmlns="http://www.w3.org/2000/svg" xmlns:xlink="http://www.w3.org/1999/xlink">
 <defs>
  <style type="text/css">
*{stroke-linecap:butt;stroke-linejoin:round;}
  </style>
 </defs>
 <g id="figure_1">
  <g id="patch_1">
   <path d="M -0 263.63625 
L 368.925 263.63625 
L 368.925 0 
L -0 0 
z
" style="fill:none;"/>
  </g>
  <g id="axes_1">
   <g id="patch_2">
    <path d="M 26.925 239.758125 
L 361.725 239.758125 
L 361.725 22.318125 
L 26.925 22.318125 
z
" style="fill:#ffffff;"/>
   </g>
   <g id="matplotlib.axis_1">
    <g id="xtick_1">
     <g id="line2d_1">
      <defs>
       <path d="M 0 0 
L 0 3.5 
" id="m7800c97463" style="stroke:#000000;stroke-width:0.8;"/>
      </defs>
      <g>
       <use style="stroke:#000000;stroke-width:0.8;" x="42.143182" xlink:href="#m7800c97463" y="239.758125"/>
      </g>
     </g>
     <g id="text_1">
      <!-- 0 -->
      <defs>
       <path d="M 31.78125 66.40625 
Q 24.171875 66.40625 20.328125 58.90625 
Q 16.5 51.421875 16.5 36.375 
Q 16.5 21.390625 20.328125 13.890625 
Q 24.171875 6.390625 31.78125 6.390625 
Q 39.453125 6.390625 43.28125 13.890625 
Q 47.125 21.390625 47.125 36.375 
Q 47.125 51.421875 43.28125 58.90625 
Q 39.453125 66.40625 31.78125 66.40625 
z
M 31.78125 74.21875 
Q 44.046875 74.21875 50.515625 64.515625 
Q 56.984375 54.828125 56.984375 36.375 
Q 56.984375 17.96875 50.515625 8.265625 
Q 44.046875 -1.421875 31.78125 -1.421875 
Q 19.53125 -1.421875 13.0625 8.265625 
Q 6.59375 17.96875 6.59375 36.375 
Q 6.59375 54.828125 13.0625 64.515625 
Q 19.53125 74.21875 31.78125 74.21875 
z
" id="DejaVuSans-48"/>
      </defs>
      <g transform="translate(38.961932 254.356563)scale(0.1 -0.1)">
       <use xlink:href="#DejaVuSans-48"/>
      </g>
     </g>
    </g>
    <g id="xtick_2">
     <g id="line2d_2">
      <g>
       <use style="stroke:#000000;stroke-width:0.8;" x="88.399054" xlink:href="#m7800c97463" y="239.758125"/>
      </g>
     </g>
     <g id="text_2">
      <!-- 50 -->
      <defs>
       <path d="M 10.796875 72.90625 
L 49.515625 72.90625 
L 49.515625 64.59375 
L 19.828125 64.59375 
L 19.828125 46.734375 
Q 21.96875 47.46875 24.109375 47.828125 
Q 26.265625 48.1875 28.421875 48.1875 
Q 40.625 48.1875 47.75 41.5 
Q 54.890625 34.8125 54.890625 23.390625 
Q 54.890625 11.625 47.5625 5.09375 
Q 40.234375 -1.421875 26.90625 -1.421875 
Q 22.3125 -1.421875 17.546875 -0.640625 
Q 12.796875 0.140625 7.71875 1.703125 
L 7.71875 11.625 
Q 12.109375 9.234375 16.796875 8.0625 
Q 21.484375 6.890625 26.703125 6.890625 
Q 35.15625 6.890625 40.078125 11.328125 
Q 45.015625 15.765625 45.015625 23.390625 
Q 45.015625 31 40.078125 35.4375 
Q 35.15625 39.890625 26.703125 39.890625 
Q 22.75 39.890625 18.8125 39.015625 
Q 14.890625 38.140625 10.796875 36.28125 
z
" id="DejaVuSans-53"/>
      </defs>
      <g transform="translate(82.036554 254.356563)scale(0.1 -0.1)">
       <use xlink:href="#DejaVuSans-53"/>
       <use x="63.623047" xlink:href="#DejaVuSans-48"/>
      </g>
     </g>
    </g>
    <g id="xtick_3">
     <g id="line2d_3">
      <g>
       <use style="stroke:#000000;stroke-width:0.8;" x="134.654925" xlink:href="#m7800c97463" y="239.758125"/>
      </g>
     </g>
     <g id="text_3">
      <!-- 100 -->
      <defs>
       <path d="M 12.40625 8.296875 
L 28.515625 8.296875 
L 28.515625 63.921875 
L 10.984375 60.40625 
L 10.984375 69.390625 
L 28.421875 72.90625 
L 38.28125 72.90625 
L 38.28125 8.296875 
L 54.390625 8.296875 
L 54.390625 0 
L 12.40625 0 
z
" id="DejaVuSans-49"/>
      </defs>
      <g transform="translate(125.111175 254.356563)scale(0.1 -0.1)">
       <use xlink:href="#DejaVuSans-49"/>
       <use x="63.623047" xlink:href="#DejaVuSans-48"/>
       <use x="127.246094" xlink:href="#DejaVuSans-48"/>
      </g>
     </g>
    </g>
    <g id="xtick_4">
     <g id="line2d_4">
      <g>
       <use style="stroke:#000000;stroke-width:0.8;" x="180.910797" xlink:href="#m7800c97463" y="239.758125"/>
      </g>
     </g>
     <g id="text_4">
      <!-- 150 -->
      <g transform="translate(171.367047 254.356563)scale(0.1 -0.1)">
       <use xlink:href="#DejaVuSans-49"/>
       <use x="63.623047" xlink:href="#DejaVuSans-53"/>
       <use x="127.246094" xlink:href="#DejaVuSans-48"/>
      </g>
     </g>
    </g>
    <g id="xtick_5">
     <g id="line2d_5">
      <g>
       <use style="stroke:#000000;stroke-width:0.8;" x="227.166669" xlink:href="#m7800c97463" y="239.758125"/>
      </g>
     </g>
     <g id="text_5">
      <!-- 200 -->
      <defs>
       <path d="M 19.1875 8.296875 
L 53.609375 8.296875 
L 53.609375 0 
L 7.328125 0 
L 7.328125 8.296875 
Q 12.9375 14.109375 22.625 23.890625 
Q 32.328125 33.6875 34.8125 36.53125 
Q 39.546875 41.84375 41.421875 45.53125 
Q 43.3125 49.21875 43.3125 52.78125 
Q 43.3125 58.59375 39.234375 62.25 
Q 35.15625 65.921875 28.609375 65.921875 
Q 23.96875 65.921875 18.8125 64.3125 
Q 13.671875 62.703125 7.8125 59.421875 
L 7.8125 69.390625 
Q 13.765625 71.78125 18.9375 73 
Q 24.125 74.21875 28.421875 74.21875 
Q 39.75 74.21875 46.484375 68.546875 
Q 53.21875 62.890625 53.21875 53.421875 
Q 53.21875 48.921875 51.53125 44.890625 
Q 49.859375 40.875 45.40625 35.40625 
Q 44.1875 33.984375 37.640625 27.21875 
Q 31.109375 20.453125 19.1875 8.296875 
z
" id="DejaVuSans-50"/>
      </defs>
      <g transform="translate(217.622919 254.356563)scale(0.1 -0.1)">
       <use xlink:href="#DejaVuSans-50"/>
       <use x="63.623047" xlink:href="#DejaVuSans-48"/>
       <use x="127.246094" xlink:href="#DejaVuSans-48"/>
      </g>
     </g>
    </g>
    <g id="xtick_6">
     <g id="line2d_6">
      <g>
       <use style="stroke:#000000;stroke-width:0.8;" x="273.422541" xlink:href="#m7800c97463" y="239.758125"/>
      </g>
     </g>
     <g id="text_6">
      <!-- 250 -->
      <g transform="translate(263.878791 254.356563)scale(0.1 -0.1)">
       <use xlink:href="#DejaVuSans-50"/>
       <use x="63.623047" xlink:href="#DejaVuSans-53"/>
       <use x="127.246094" xlink:href="#DejaVuSans-48"/>
      </g>
     </g>
    </g>
    <g id="xtick_7">
     <g id="line2d_7">
      <g>
       <use style="stroke:#000000;stroke-width:0.8;" x="319.678413" xlink:href="#m7800c97463" y="239.758125"/>
      </g>
     </g>
     <g id="text_7">
      <!-- 300 -->
      <defs>
       <path d="M 40.578125 39.3125 
Q 47.65625 37.796875 51.625 33 
Q 55.609375 28.21875 55.609375 21.1875 
Q 55.609375 10.40625 48.1875 4.484375 
Q 40.765625 -1.421875 27.09375 -1.421875 
Q 22.515625 -1.421875 17.65625 -0.515625 
Q 12.796875 0.390625 7.625 2.203125 
L 7.625 11.71875 
Q 11.71875 9.328125 16.59375 8.109375 
Q 21.484375 6.890625 26.8125 6.890625 
Q 36.078125 6.890625 40.9375 10.546875 
Q 45.796875 14.203125 45.796875 21.1875 
Q 45.796875 27.640625 41.28125 31.265625 
Q 36.765625 34.90625 28.71875 34.90625 
L 20.21875 34.90625 
L 20.21875 43.015625 
L 29.109375 43.015625 
Q 36.375 43.015625 40.234375 45.921875 
Q 44.09375 48.828125 44.09375 54.296875 
Q 44.09375 59.90625 40.109375 62.90625 
Q 36.140625 65.921875 28.71875 65.921875 
Q 24.65625 65.921875 20.015625 65.03125 
Q 15.375 64.15625 9.8125 62.3125 
L 9.8125 71.09375 
Q 15.4375 72.65625 20.34375 73.4375 
Q 25.25 74.21875 29.59375 74.21875 
Q 40.828125 74.21875 47.359375 69.109375 
Q 53.90625 64.015625 53.90625 55.328125 
Q 53.90625 49.265625 50.4375 45.09375 
Q 46.96875 40.921875 40.578125 39.3125 
z
" id="DejaVuSans-51"/>
      </defs>
      <g transform="translate(310.134663 254.356563)scale(0.1 -0.1)">
       <use xlink:href="#DejaVuSans-51"/>
       <use x="63.623047" xlink:href="#DejaVuSans-48"/>
       <use x="127.246094" xlink:href="#DejaVuSans-48"/>
      </g>
     </g>
    </g>
   </g>
   <g id="matplotlib.axis_2">
    <g id="ytick_1">
     <g id="line2d_8">
      <defs>
       <path d="M 0 0 
L -3.5 0 
" id="me8e1913d6e" style="stroke:#000000;stroke-width:0.8;"/>
      </defs>
      <g>
       <use style="stroke:#000000;stroke-width:0.8;" x="26.925" xlink:href="#me8e1913d6e" y="233.379558"/>
      </g>
     </g>
     <g id="text_8">
      <!-- 0 -->
      <g transform="translate(13.5625 237.178777)scale(0.1 -0.1)">
       <use xlink:href="#DejaVuSans-48"/>
      </g>
     </g>
    </g>
    <g id="ytick_2">
     <g id="line2d_9">
      <g>
       <use style="stroke:#000000;stroke-width:0.8;" x="26.925" xlink:href="#me8e1913d6e" y="196.185429"/>
      </g>
     </g>
     <g id="text_9">
      <!-- 10 -->
      <g transform="translate(7.2 199.984647)scale(0.1 -0.1)">
       <use xlink:href="#DejaVuSans-49"/>
       <use x="63.623047" xlink:href="#DejaVuSans-48"/>
      </g>
     </g>
    </g>
    <g id="ytick_3">
     <g id="line2d_10">
      <g>
       <use style="stroke:#000000;stroke-width:0.8;" x="26.925" xlink:href="#me8e1913d6e" y="158.991299"/>
      </g>
     </g>
     <g id="text_10">
      <!-- 20 -->
      <g transform="translate(7.2 162.790518)scale(0.1 -0.1)">
       <use xlink:href="#DejaVuSans-50"/>
       <use x="63.623047" xlink:href="#DejaVuSans-48"/>
      </g>
     </g>
    </g>
    <g id="ytick_4">
     <g id="line2d_11">
      <g>
       <use style="stroke:#000000;stroke-width:0.8;" x="26.925" xlink:href="#me8e1913d6e" y="121.79717"/>
      </g>
     </g>
     <g id="text_11">
      <!-- 30 -->
      <g transform="translate(7.2 125.596389)scale(0.1 -0.1)">
       <use xlink:href="#DejaVuSans-51"/>
       <use x="63.623047" xlink:href="#DejaVuSans-48"/>
      </g>
     </g>
    </g>
    <g id="ytick_5">
     <g id="line2d_12">
      <g>
       <use style="stroke:#000000;stroke-width:0.8;" x="26.925" xlink:href="#me8e1913d6e" y="84.603041"/>
      </g>
     </g>
     <g id="text_12">
      <!-- 40 -->
      <defs>
       <path d="M 37.796875 64.3125 
L 12.890625 25.390625 
L 37.796875 25.390625 
z
M 35.203125 72.90625 
L 47.609375 72.90625 
L 47.609375 25.390625 
L 58.015625 25.390625 
L 58.015625 17.1875 
L 47.609375 17.1875 
L 47.609375 0 
L 37.796875 0 
L 37.796875 17.1875 
L 4.890625 17.1875 
L 4.890625 26.703125 
z
" id="DejaVuSans-52"/>
      </defs>
      <g transform="translate(7.2 88.402259)scale(0.1 -0.1)">
       <use xlink:href="#DejaVuSans-52"/>
       <use x="63.623047" xlink:href="#DejaVuSans-48"/>
      </g>
     </g>
    </g>
    <g id="ytick_6">
     <g id="line2d_13">
      <g>
       <use style="stroke:#000000;stroke-width:0.8;" x="26.925" xlink:href="#me8e1913d6e" y="47.408911"/>
      </g>
     </g>
     <g id="text_13">
      <!-- 50 -->
      <g transform="translate(7.2 51.20813)scale(0.1 -0.1)">
       <use xlink:href="#DejaVuSans-53"/>
       <use x="63.623047" xlink:href="#DejaVuSans-48"/>
      </g>
     </g>
    </g>
   </g>
   <g id="line2d_14">
    <path clip-path="url(#p3e519c4dbb)" d="M 42.143182 32.201761 
L 43.068299 168.47675 
L 43.993417 183.273077 
L 44.918534 189.615687 
L 45.843652 192.01261 
L 46.768769 190.263371 
L 47.693886 192.46968 
L 48.619004 193.051005 
L 49.544121 193.041804 
L 50.469239 194.468738 
L 51.394356 193.683224 
L 52.319474 193.563413 
L 53.244591 193.732525 
L 54.169708 193.477733 
L 55.094826 194.044355 
L 56.019943 193.803269 
L 56.945061 194.459069 
L 57.870178 193.355599 
L 58.795296 191.886734 
L 59.720413 191.076567 
L 60.645531 192.589689 
L 61.570648 194.445849 
L 62.495765 193.022355 
L 63.420883 192.584745 
L 64.346 194.066595 
L 65.271118 194.468976 
L 66.196235 194.325885 
L 67.121353 196.562869 
L 68.04647 196.43418 
L 68.971587 196.068626 
L 69.896705 196.829921 
L 70.821822 197.005839 
L 71.74694 197.738239 
L 72.672057 196.804169 
L 73.597175 196.313313 
L 74.522292 197.637289 
L 75.44741 198.004262 
L 76.372527 198.659508 
L 77.297644 197.340296 
L 78.222762 198.356671 
L 79.147879 198.446983 
L 80.072997 198.182706 
L 80.998114 199.040528 
L 81.923232 198.309749 
L 82.848349 199.382342 
L 83.773466 197.976087 
L 84.698584 199.37789 
L 85.623701 199.366894 
L 86.548819 198.803191 
L 87.473936 197.930993 
L 89.324171 200.905119 
L 90.249288 200.467612 
L 91.174406 200.949376 
L 92.099523 200.116565 
L 93.024641 200.92112 
L 93.949758 201.362029 
L 94.874876 201.944379 
L 95.799993 201.389438 
L 96.725111 202.626226 
L 97.650228 202.029141 
L 98.575345 202.045014 
L 99.500463 202.625367 
L 101.350698 202.35545 
L 102.275815 202.451832 
L 103.200933 202.266329 
L 104.12605 203.139102 
L 105.051167 203.607697 
L 105.976285 203.47025 
L 106.901402 203.096097 
L 107.82652 203.670624 
L 109.676755 204.387076 
L 110.601872 204.535652 
L 111.526989 205.061142 
L 112.452107 204.335739 
L 113.377224 204.696535 
L 114.302342 204.795572 
L 115.227459 205.46104 
L 116.152577 205.565411 
L 117.077694 205.783016 
L 118.002812 205.627532 
L 118.927929 205.785949 
L 119.853046 205.815621 
L 120.778164 205.634025 
L 121.703281 205.662363 
L 123.553516 206.483605 
L 125.403751 206.85307 
L 126.328868 206.30175 
L 127.253986 206.702198 
L 128.179103 207.58372 
L 129.104221 207.240193 
L 130.029338 207.590291 
L 131.879573 207.717215 
L 132.804691 208.278946 
L 133.729808 208.609803 
L 134.654925 207.812687 
L 135.580043 208.57682 
L 136.50516 208.969245 
L 137.430278 208.297705 
L 138.355395 208.707242 
L 140.20563 208.900204 
L 142.055865 209.40283 
L 142.980982 209.660087 
L 143.9061 209.607803 
L 144.831217 209.695046 
L 145.756335 209.525724 
L 146.681452 210.494404 
L 148.531687 210.746772 
L 149.456804 210.923072 
L 150.381922 211.248342 
L 151.307039 211.20223 
L 152.232157 210.865304 
L 153.157274 211.494723 
L 154.082392 211.301065 
L 155.007509 211.574581 
L 155.932626 211.415392 
L 156.857744 211.854625 
L 157.782861 212.087822 
L 159.633096 212.230952 
L 160.558214 211.972238 
L 161.483331 212.917828 
L 162.408448 212.935755 
L 163.333566 212.80071 
L 164.258683 213.36724 
L 166.108918 213.589452 
L 167.034036 213.49766 
L 168.884271 213.650022 
L 169.809388 213.557326 
L 170.734505 214.20969 
L 171.659623 214.026535 
L 172.58474 214.682639 
L 173.509858 214.959904 
L 174.434975 214.571157 
L 175.360093 215.170561 
L 176.28521 215.075277 
L 177.210327 215.118222 
L 179.98568 215.667635 
L 180.910797 216.163459 
L 181.835915 216.346912 
L 182.761032 216.32949 
L 183.686149 216.841567 
L 184.611267 216.879099 
L 185.536384 217.192156 
L 186.461502 217.020692 
L 189.236854 217.727865 
L 190.161972 217.384615 
L 191.087089 217.79297 
L 192.012206 218.060375 
L 192.937324 218.166731 
L 193.862441 217.955818 
L 194.787559 218.322566 
L 195.712676 218.355693 
L 199.413146 219.379394 
L 200.338263 219.00327 
L 201.263381 219.667753 
L 202.188498 219.953289 
L 203.113616 219.690207 
L 204.038733 220.067986 
L 205.888968 220.257891 
L 206.814085 220.154851 
L 207.739203 220.176877 
L 208.66432 220.744075 
L 209.589438 220.767176 
L 210.514555 221.068757 
L 211.439673 221.16436 
L 212.36479 221.498363 
L 213.289907 221.711492 
L 215.140142 221.819997 
L 216.06526 222.357865 
L 216.990377 222.18658 
L 218.840612 222.604731 
L 219.765729 222.69229 
L 220.690847 222.561132 
L 225.316434 223.68548 
L 226.241552 223.580268 
L 228.091786 223.990337 
L 229.016904 223.690728 
L 230.867139 223.906543 
L 231.792256 224.15986 
L 233.642491 224.827041 
L 234.567608 224.534005 
L 235.492726 224.975159 
L 236.417843 224.834517 
L 237.342961 225.225553 
L 238.268078 225.196501 
L 240.118313 225.615666 
L 241.968548 225.669183 
L 243.818783 226.02451 
L 251.219722 226.599617 
L 252.14484 226.883631 
L 253.069957 226.81368 
L 253.995075 227.051991 
L 254.920192 227.16651 
L 255.845309 227.131055 
L 257.695544 227.308636 
L 258.620662 227.245334 
L 259.545779 227.560611 
L 262.321132 227.647206 
L 263.246249 227.777963 
L 264.171366 227.768893 
L 265.096484 227.870966 
L 266.021601 227.860137 
L 266.946719 227.975635 
L 267.871836 227.776967 
L 268.796954 227.973326 
L 269.722071 228.029683 
L 270.647188 227.941441 
L 271.572306 228.106896 
L 276.197893 228.158336 
L 277.123011 228.19214 
L 278.048128 228.07299 
L 279.898363 228.148288 
L 282.673715 228.024954 
L 285.449067 228.219384 
L 286.374185 228.104638 
L 287.299302 228.268175 
L 290.999772 228.245844 
L 291.924889 228.302566 
L 293.775124 228.238968 
L 296.550477 228.342845 
L 297.475594 228.218207 
L 299.325829 228.296533 
L 300.250946 228.419623 
L 301.176064 228.343648 
L 302.101181 228.379348 
L 303.951416 228.232236 
L 313.20259 228.401483 
L 314.127708 228.189852 
L 318.753295 228.368491 
L 323.378882 228.331944 
L 328.929587 228.317605 
L 329.854704 228.449219 
L 330.779822 228.289362 
L 331.704939 228.261177 
L 332.630057 228.413187 
L 340.030996 228.491845 
L 343.731466 228.479799 
L 346.506818 228.431927 
L 346.506818 228.431927 
" style="fill:none;stroke:#1f77b4;stroke-linecap:square;stroke-width:1.5;"/>
   </g>
   <g id="line2d_15">
    <path clip-path="url(#p3e519c4dbb)" d="M 42.143182 216.280929 
L 43.068299 200.630498 
L 43.993417 221.887105 
L 44.918534 223.754975 
L 45.843652 222.608719 
L 46.768769 221.960604 
L 47.693886 217.349935 
L 48.619004 224.943502 
L 49.544121 222.431342 
L 50.469239 224.674132 
L 51.394356 224.862204 
L 52.319474 222.805582 
L 53.244591 225.7061 
L 54.169708 214.455865 
L 55.094826 217.251398 
L 56.019943 225.796139 
L 56.945061 214.249618 
L 57.870178 217.954055 
L 58.795296 202.541404 
L 59.720413 208.271279 
L 60.645531 215.816742 
L 61.570648 214.264525 
L 62.495765 223.522916 
L 63.420883 201.647188 
L 64.346 215.130647 
L 65.271118 213.799148 
L 66.196235 224.044365 
L 67.121353 217.836428 
L 68.04647 225.232026 
L 68.971587 220.981717 
L 69.896705 226.575938 
L 70.821822 219.30528 
L 71.74694 226.988981 
L 73.597175 220.785682 
L 74.522292 227.142337 
L 75.44741 226.335889 
L 76.372527 223.576165 
L 77.297644 226.479098 
L 78.222762 224.334179 
L 79.147879 223.218913 
L 80.072997 223.798357 
L 80.998114 217.305729 
L 81.923232 226.683471 
L 82.848349 223.731781 
L 83.773466 221.574883 
L 84.698584 226.660765 
L 85.623701 216.126026 
L 86.548819 217.696166 
L 87.473936 215.941768 
L 88.399054 219.388411 
L 89.324171 226.552285 
L 91.174406 220.305689 
L 92.099523 226.747224 
L 93.024641 217.529889 
L 93.949758 224.714337 
L 94.874876 219.334953 
L 95.799993 224.502425 
L 96.725111 224.697857 
L 97.650228 227.509695 
L 98.575345 227.268829 
L 99.500463 227.197239 
L 100.42558 219.515189 
L 101.350698 215.121308 
L 102.275815 222.869599 
L 103.200933 227.541223 
L 104.12605 226.448612 
L 105.051167 221.645758 
L 105.976285 224.896329 
L 106.901402 226.78594 
L 107.82652 227.507675 
L 108.751637 226.924602 
L 109.676755 225.569926 
L 110.601872 225.629415 
L 111.526989 224.19852 
L 112.452107 223.60753 
L 113.377224 226.927002 
L 114.302342 227.680271 
L 115.227459 221.526066 
L 116.152577 226.168619 
L 117.077694 226.690167 
L 118.927929 224.486736 
L 119.853046 222.810411 
L 120.778164 222.265339 
L 121.703281 225.333974 
L 122.628399 227.7291 
L 123.553516 227.58625 
L 124.478634 223.880963 
L 125.403751 223.035248 
L 126.328868 224.380189 
L 127.253986 226.953679 
L 128.179103 226.229226 
L 129.104221 224.914987 
L 130.029338 225.452689 
L 130.954456 225.292745 
L 131.879573 227.482043 
L 132.804691 227.862596 
L 133.729808 226.859868 
L 134.654925 227.881228 
L 135.580043 227.685906 
L 136.50516 225.320195 
L 137.430278 227.749199 
L 138.355395 226.418084 
L 139.280513 227.388773 
L 140.20563 227.831087 
L 141.130747 223.885184 
L 142.055865 227.833541 
L 142.980982 226.512724 
L 143.9061 225.505144 
L 144.831217 227.442278 
L 145.756335 228.133533 
L 146.681452 226.940568 
L 148.531687 223.114582 
L 149.456804 227.24722 
L 150.381922 227.954109 
L 151.307039 220.221505 
L 152.232157 227.161262 
L 153.157274 225.671273 
L 154.082392 225.990739 
L 155.007509 222.96747 
L 155.932626 228.012031 
L 156.857744 227.982625 
L 157.782861 227.412698 
L 158.707979 223.742467 
L 159.633096 226.092106 
L 160.558214 227.803939 
L 161.483331 228.281495 
L 162.408448 227.805675 
L 163.333566 228.08206 
L 164.258683 226.026374 
L 165.183801 227.558519 
L 166.108918 228.221743 
L 167.034036 227.589644 
L 167.959153 225.133873 
L 168.884271 227.119083 
L 169.809388 228.20634 
L 170.734505 228.224814 
L 171.659623 225.761184 
L 172.58474 227.489445 
L 173.509858 225.91034 
L 174.434975 224.765939 
L 175.360093 228.060543 
L 177.210327 226.714688 
L 178.135445 226.538554 
L 179.060562 228.397177 
L 179.98568 226.852851 
L 180.910797 228.370561 
L 181.835915 228.489503 
L 182.761032 227.376628 
L 184.611267 227.97086 
L 185.536384 227.03299 
L 186.461502 225.640719 
L 187.386619 227.143915 
L 188.311737 228.431672 
L 189.236854 228.248271 
L 190.161972 228.616655 
L 191.087089 228.302326 
L 192.012206 228.715671 
L 192.937324 228.579622 
L 193.862441 228.760393 
L 195.712676 228.770394 
L 196.637794 228.571098 
L 197.562911 227.444132 
L 198.488028 227.397564 
L 199.413146 227.955632 
L 200.338263 228.887166 
L 203.113616 227.966413 
L 204.038733 229.071768 
L 204.963851 227.809618 
L 205.888968 227.513543 
L 207.739203 228.950322 
L 208.66432 227.593934 
L 209.589438 227.737353 
L 210.514555 228.854872 
L 211.439673 228.082453 
L 212.36479 227.740592 
L 213.289907 229.186219 
L 214.215025 229.141544 
L 216.06526 228.232738 
L 216.990377 228.822938 
L 217.915495 229.137905 
L 218.840612 229.297975 
L 223.466199 229.225064 
L 224.391317 228.979934 
L 225.316434 229.33112 
L 226.241552 228.751891 
L 227.166669 229.016402 
L 228.091786 228.821729 
L 229.016904 228.012521 
L 229.942021 229.142433 
L 230.867139 228.76723 
L 231.792256 229.178365 
L 232.717374 229.014658 
L 233.642491 228.735299 
L 234.567608 229.393387 
L 235.492726 229.457966 
L 236.417843 229.354035 
L 237.342961 228.783245 
L 238.268078 228.369734 
L 239.193196 229.491561 
L 240.118313 229.234332 
L 241.043431 229.553984 
L 241.968548 229.487444 
L 242.893665 229.291448 
L 243.818783 228.35615 
L 244.7439 229.465825 
L 245.669018 229.509817 
L 246.594135 228.963004 
L 247.519253 229.038933 
L 248.44437 227.779641 
L 249.369487 228.404092 
L 250.294605 228.206789 
L 251.219722 229.604757 
L 253.069957 229.573087 
L 254.920192 229.681477 
L 255.845309 229.576238 
L 256.770427 229.657611 
L 257.695544 229.235277 
L 258.620662 229.480786 
L 261.396014 229.691022 
L 263.246249 229.547213 
L 266.021601 229.669302 
L 266.946719 229.438084 
L 267.871836 229.630093 
L 269.722071 229.360454 
L 270.647188 229.709545 
L 274.347658 229.438868 
L 275.272776 229.690348 
L 277.123011 229.711534 
L 278.048128 229.553622 
L 279.898363 229.593792 
L 280.82348 229.192856 
L 282.673715 229.689018 
L 284.52395 229.664135 
L 285.449067 229.517022 
L 286.374185 229.645441 
L 289.149537 229.569042 
L 290.999772 229.739763 
L 291.924889 229.588679 
L 293.775124 229.662952 
L 294.700242 229.491136 
L 296.550477 229.696148 
L 297.475594 229.356748 
L 298.400712 229.724647 
L 299.325829 229.417393 
L 300.250946 229.732536 
L 303.951416 229.769683 
L 304.876534 229.451791 
L 305.801651 229.729258 
L 306.726768 229.591532 
L 307.651886 229.704646 
L 308.577003 229.671917 
L 309.502121 229.791215 
L 311.352356 229.71015 
L 313.20259 229.774046 
L 314.127708 229.190343 
L 315.977943 229.746417 
L 317.828178 229.808342 
L 318.753295 229.656457 
L 320.60353 229.794241 
L 321.528647 229.776279 
L 322.453765 229.166012 
L 323.378882 229.693028 
L 325.229117 229.655821 
L 326.154235 229.830843 
L 327.079352 229.724961 
L 328.004469 229.46396 
L 328.929587 229.820995 
L 329.854704 229.87322 
L 330.779822 228.794937 
L 331.704939 229.80047 
L 332.630057 229.604809 
L 334.480292 229.854857 
L 336.330526 229.834182 
L 340.030996 229.813342 
L 340.956114 229.829986 
L 341.881231 229.286638 
L 342.806348 229.874489 
L 343.731466 229.83469 
L 344.656583 228.94929 
L 345.581701 229.777257 
L 346.506818 229.85366 
L 346.506818 229.85366 
" style="fill:none;stroke:#ff7f0e;stroke-linecap:square;stroke-width:1.5;"/>
   </g>
   <g id="patch_3">
    <path d="M 26.925 239.758125 
L 26.925 22.318125 
" style="fill:none;stroke:#000000;stroke-linecap:square;stroke-linejoin:miter;stroke-width:0.8;"/>
   </g>
   <g id="patch_4">
    <path d="M 361.725 239.758125 
L 361.725 22.318125 
" style="fill:none;stroke:#000000;stroke-linecap:square;stroke-linejoin:miter;stroke-width:0.8;"/>
   </g>
   <g id="patch_5">
    <path d="M 26.925 239.758125 
L 361.725 239.758125 
" style="fill:none;stroke:#000000;stroke-linecap:square;stroke-linejoin:miter;stroke-width:0.8;"/>
   </g>
   <g id="patch_6">
    <path d="M 26.925 22.318125 
L 361.725 22.318125 
" style="fill:none;stroke:#000000;stroke-linecap:square;stroke-linejoin:miter;stroke-width:0.8;"/>
   </g>
   <g id="text_14">
    <!-- Loss -->
    <defs>
     <path d="M 9.8125 72.90625 
L 19.671875 72.90625 
L 19.671875 8.296875 
L 55.171875 8.296875 
L 55.171875 0 
L 9.8125 0 
z
" id="DejaVuSans-76"/>
     <path d="M 30.609375 48.390625 
Q 23.390625 48.390625 19.1875 42.75 
Q 14.984375 37.109375 14.984375 27.296875 
Q 14.984375 17.484375 19.15625 11.84375 
Q 23.34375 6.203125 30.609375 6.203125 
Q 37.796875 6.203125 41.984375 11.859375 
Q 46.1875 17.53125 46.1875 27.296875 
Q 46.1875 37.015625 41.984375 42.703125 
Q 37.796875 48.390625 30.609375 48.390625 
z
M 30.609375 56 
Q 42.328125 56 49.015625 48.375 
Q 55.71875 40.765625 55.71875 27.296875 
Q 55.71875 13.875 49.015625 6.21875 
Q 42.328125 -1.421875 30.609375 -1.421875 
Q 18.84375 -1.421875 12.171875 6.21875 
Q 5.515625 13.875 5.515625 27.296875 
Q 5.515625 40.765625 12.171875 48.375 
Q 18.84375 56 30.609375 56 
z
" id="DejaVuSans-111"/>
     <path d="M 44.28125 53.078125 
L 44.28125 44.578125 
Q 40.484375 46.53125 36.375 47.5 
Q 32.28125 48.484375 27.875 48.484375 
Q 21.1875 48.484375 17.84375 46.4375 
Q 14.5 44.390625 14.5 40.28125 
Q 14.5 37.15625 16.890625 35.375 
Q 19.28125 33.59375 26.515625 31.984375 
L 29.59375 31.296875 
Q 39.15625 29.25 43.1875 25.515625 
Q 47.21875 21.78125 47.21875 15.09375 
Q 47.21875 7.46875 41.1875 3.015625 
Q 35.15625 -1.421875 24.609375 -1.421875 
Q 20.21875 -1.421875 15.453125 -0.5625 
Q 10.6875 0.296875 5.421875 2 
L 5.421875 11.28125 
Q 10.40625 8.6875 15.234375 7.390625 
Q 20.0625 6.109375 24.8125 6.109375 
Q 31.15625 6.109375 34.5625 8.28125 
Q 37.984375 10.453125 37.984375 14.40625 
Q 37.984375 18.0625 35.515625 20.015625 
Q 33.0625 21.96875 24.703125 23.78125 
L 21.578125 24.515625 
Q 13.234375 26.265625 9.515625 29.90625 
Q 5.8125 33.546875 5.8125 39.890625 
Q 5.8125 47.609375 11.28125 51.796875 
Q 16.75 56 26.8125 56 
Q 31.78125 56 36.171875 55.265625 
Q 40.578125 54.546875 44.28125 53.078125 
z
" id="DejaVuSans-115"/>
    </defs>
    <g transform="translate(181.164375 16.318125)scale(0.12 -0.12)">
     <use xlink:href="#DejaVuSans-76"/>
     <use x="53.962891" xlink:href="#DejaVuSans-111"/>
     <use x="115.144531" xlink:href="#DejaVuSans-115"/>
     <use x="167.244141" xlink:href="#DejaVuSans-115"/>
    </g>
   </g>
  </g>
 </g>
 <defs>
  <clipPath id="p3e519c4dbb">
   <rect height="217.44" width="334.8" x="26.925" y="22.318125"/>
  </clipPath>
 </defs>
</svg>
