<?xml version="1.0" encoding="utf-8" standalone="no"?>
<!DOCTYPE svg PUBLIC "-//W3C//DTD SVG 1.1//EN"
  "http://www.w3.org/Graphics/SVG/1.1/DTD/svg11.dtd">
<!-- Created with matplotlib (https://matplotlib.org/) -->
<svg height="350.750625pt" version="1.1" viewBox="0 0 894.34375 350.750625" width="894.34375pt" xmlns="http://www.w3.org/2000/svg" xmlns:xlink="http://www.w3.org/1999/xlink">
 <defs>
  <style type="text/css">
*{stroke-linecap:butt;stroke-linejoin:round;}
  </style>
 </defs>
 <g id="figure_1">
  <g id="patch_1">
   <path d="M 0 350.750625 
L 894.34375 350.750625 
L 894.34375 0 
L 0 0 
z
" style="fill:none;"/>
  </g>
  <g id="axes_1">
   <g id="patch_2">
    <path d="M 50.14375 313.194375 
L 430.598295 313.194375 
L 430.598295 41.394375 
L 50.14375 41.394375 
z
" style="fill:#ffffff;"/>
   </g>
   <g id="patch_3">
    <path clip-path="url(#p80ab5fd195)" d="M 89.344895 313.194375 
L 92.365418 313.194375 
L 92.365418 312.375207 
L 89.344895 312.375207 
z
" style="fill:#1f77b4;opacity:0.4;"/>
   </g>
   <g id="patch_4">
    <path clip-path="url(#p80ab5fd195)" d="M 92.365418 313.194375 
L 95.385941 313.194375 
L 95.385941 313.194375 
L 92.365418 313.194375 
z
" style="fill:#1f77b4;opacity:0.4;"/>
   </g>
   <g id="patch_5">
    <path clip-path="url(#p80ab5fd195)" d="M 95.385941 313.194375 
L 98.406463 313.194375 
L 98.406463 312.375207 
L 95.385941 312.375207 
z
" style="fill:#1f77b4;opacity:0.4;"/>
   </g>
   <g id="patch_6">
    <path clip-path="url(#p80ab5fd195)" d="M 98.406463 313.194375 
L 101.426986 313.194375 
L 101.426986 313.194375 
L 98.406463 313.194375 
z
" style="fill:#1f77b4;opacity:0.4;"/>
   </g>
   <g id="patch_7">
    <path clip-path="url(#p80ab5fd195)" d="M 101.426986 313.194375 
L 104.447508 313.194375 
L 104.447508 313.194375 
L 101.426986 313.194375 
z
" style="fill:#1f77b4;opacity:0.4;"/>
   </g>
   <g id="patch_8">
    <path clip-path="url(#p80ab5fd195)" d="M 104.447508 313.194375 
L 107.468031 313.194375 
L 107.468031 312.375207 
L 104.447508 312.375207 
z
" style="fill:#1f77b4;opacity:0.4;"/>
   </g>
   <g id="patch_9">
    <path clip-path="url(#p80ab5fd195)" d="M 107.468031 313.194375 
L 110.488553 313.194375 
L 110.488553 313.194375 
L 107.468031 313.194375 
z
" style="fill:#1f77b4;opacity:0.4;"/>
   </g>
   <g id="patch_10">
    <path clip-path="url(#p80ab5fd195)" d="M 110.488553 313.194375 
L 113.509076 313.194375 
L 113.509076 311.965623 
L 110.488553 311.965623 
z
" style="fill:#1f77b4;opacity:0.4;"/>
   </g>
   <g id="patch_11">
    <path clip-path="url(#p80ab5fd195)" d="M 113.509076 313.194375 
L 116.529598 313.194375 
L 116.529598 313.194375 
L 113.509076 313.194375 
z
" style="fill:#1f77b4;opacity:0.4;"/>
   </g>
   <g id="patch_12">
    <path clip-path="url(#p80ab5fd195)" d="M 116.529598 313.194375 
L 119.550121 313.194375 
L 119.550121 313.194375 
L 116.529598 313.194375 
z
" style="fill:#1f77b4;opacity:0.4;"/>
   </g>
   <g id="patch_13">
    <path clip-path="url(#p80ab5fd195)" d="M 119.550121 313.194375 
L 122.570643 313.194375 
L 122.570643 311.965623 
L 119.550121 311.965623 
z
" style="fill:#1f77b4;opacity:0.4;"/>
   </g>
   <g id="patch_14">
    <path clip-path="url(#p80ab5fd195)" d="M 122.570643 313.194375 
L 125.591166 313.194375 
L 125.591166 313.194375 
L 122.570643 313.194375 
z
" style="fill:#1f77b4;opacity:0.4;"/>
   </g>
   <g id="patch_15">
    <path clip-path="url(#p80ab5fd195)" d="M 125.591166 313.194375 
L 128.611689 313.194375 
L 128.611689 313.194375 
L 125.591166 313.194375 
z
" style="fill:#1f77b4;opacity:0.4;"/>
   </g>
   <g id="patch_16">
    <path clip-path="url(#p80ab5fd195)" d="M 128.611689 313.194375 
L 131.632211 313.194375 
L 131.632211 312.784791 
L 128.611689 312.784791 
z
" style="fill:#1f77b4;opacity:0.4;"/>
   </g>
   <g id="patch_17">
    <path clip-path="url(#p80ab5fd195)" d="M 131.632211 313.194375 
L 134.652734 313.194375 
L 134.652734 313.194375 
L 131.632211 313.194375 
z
" style="fill:#1f77b4;opacity:0.4;"/>
   </g>
   <g id="patch_18">
    <path clip-path="url(#p80ab5fd195)" d="M 134.652734 313.194375 
L 137.673256 313.194375 
L 137.673256 311.556039 
L 134.652734 311.556039 
z
" style="fill:#1f77b4;opacity:0.4;"/>
   </g>
   <g id="patch_19">
    <path clip-path="url(#p80ab5fd195)" d="M 137.673256 313.194375 
L 140.693779 313.194375 
L 140.693779 313.194375 
L 137.673256 313.194375 
z
" style="fill:#1f77b4;opacity:0.4;"/>
   </g>
   <g id="patch_20">
    <path clip-path="url(#p80ab5fd195)" d="M 140.693779 313.194375 
L 143.714301 313.194375 
L 143.714301 313.194375 
L 140.693779 313.194375 
z
" style="fill:#1f77b4;opacity:0.4;"/>
   </g>
   <g id="patch_21">
    <path clip-path="url(#p80ab5fd195)" d="M 143.714301 313.194375 
L 146.734824 313.194375 
L 146.734824 312.784791 
L 143.714301 312.784791 
z
" style="fill:#1f77b4;opacity:0.4;"/>
   </g>
   <g id="patch_22">
    <path clip-path="url(#p80ab5fd195)" d="M 146.734824 313.194375 
L 149.755346 313.194375 
L 149.755346 313.194375 
L 146.734824 313.194375 
z
" style="fill:#1f77b4;opacity:0.4;"/>
   </g>
   <g id="patch_23">
    <path clip-path="url(#p80ab5fd195)" d="M 149.755346 313.194375 
L 152.775869 313.194375 
L 152.775869 313.194375 
L 149.755346 313.194375 
z
" style="fill:#1f77b4;opacity:0.4;"/>
   </g>
   <g id="patch_24">
    <path clip-path="url(#p80ab5fd195)" d="M 152.775869 313.194375 
L 155.796391 313.194375 
L 155.796391 310.73687 
L 152.775869 310.73687 
z
" style="fill:#1f77b4;opacity:0.4;"/>
   </g>
   <g id="patch_25">
    <path clip-path="url(#p80ab5fd195)" d="M 155.796391 313.194375 
L 158.816914 313.194375 
L 158.816914 313.194375 
L 155.796391 313.194375 
z
" style="fill:#1f77b4;opacity:0.4;"/>
   </g>
   <g id="patch_26">
    <path clip-path="url(#p80ab5fd195)" d="M 158.816914 313.194375 
L 161.837437 313.194375 
L 161.837437 313.194375 
L 158.816914 313.194375 
z
" style="fill:#1f77b4;opacity:0.4;"/>
   </g>
   <g id="patch_27">
    <path clip-path="url(#p80ab5fd195)" d="M 161.837437 313.194375 
L 164.857959 313.194375 
L 164.857959 313.194375 
L 161.837437 313.194375 
z
" style="fill:#1f77b4;opacity:0.4;"/>
   </g>
   <g id="patch_28">
    <path clip-path="url(#p80ab5fd195)" d="M 164.857959 313.194375 
L 167.878482 313.194375 
L 167.878482 313.194375 
L 164.857959 313.194375 
z
" style="fill:#1f77b4;opacity:0.4;"/>
   </g>
   <g id="patch_29">
    <path clip-path="url(#p80ab5fd195)" d="M 167.878482 313.194375 
L 170.899004 313.194375 
L 170.899004 309.917702 
L 167.878482 309.917702 
z
" style="fill:#1f77b4;opacity:0.4;"/>
   </g>
   <g id="patch_30">
    <path clip-path="url(#p80ab5fd195)" d="M 170.899004 313.194375 
L 173.919527 313.194375 
L 173.919527 313.194375 
L 170.899004 313.194375 
z
" style="fill:#1f77b4;opacity:0.4;"/>
   </g>
   <g id="patch_31">
    <path clip-path="url(#p80ab5fd195)" d="M 173.919527 313.194375 
L 176.940049 313.194375 
L 176.940049 309.508118 
L 173.919527 309.508118 
z
" style="fill:#1f77b4;opacity:0.4;"/>
   </g>
   <g id="patch_32">
    <path clip-path="url(#p80ab5fd195)" d="M 176.940049 313.194375 
L 179.960572 313.194375 
L 179.960572 313.194375 
L 176.940049 313.194375 
z
" style="fill:#1f77b4;opacity:0.4;"/>
   </g>
   <g id="patch_33">
    <path clip-path="url(#p80ab5fd195)" d="M 179.960572 313.194375 
L 182.981094 313.194375 
L 182.981094 313.194375 
L 179.960572 313.194375 
z
" style="fill:#1f77b4;opacity:0.4;"/>
   </g>
   <g id="patch_34">
    <path clip-path="url(#p80ab5fd195)" d="M 182.981094 313.194375 
L 186.001617 313.194375 
L 186.001617 308.68895 
L 182.981094 308.68895 
z
" style="fill:#1f77b4;opacity:0.4;"/>
   </g>
   <g id="patch_35">
    <path clip-path="url(#p80ab5fd195)" d="M 186.001617 313.194375 
L 189.022139 313.194375 
L 189.022139 313.194375 
L 186.001617 313.194375 
z
" style="fill:#1f77b4;opacity:0.4;"/>
   </g>
   <g id="patch_36">
    <path clip-path="url(#p80ab5fd195)" d="M 189.022139 313.194375 
L 192.042662 313.194375 
L 192.042662 313.194375 
L 189.022139 313.194375 
z
" style="fill:#1f77b4;opacity:0.4;"/>
   </g>
   <g id="patch_37">
    <path clip-path="url(#p80ab5fd195)" d="M 192.042662 313.194375 
L 195.063185 313.194375 
L 195.063185 308.279366 
L 192.042662 308.279366 
z
" style="fill:#1f77b4;opacity:0.4;"/>
   </g>
   <g id="patch_38">
    <path clip-path="url(#p80ab5fd195)" d="M 195.063185 313.194375 
L 198.083707 313.194375 
L 198.083707 313.194375 
L 195.063185 313.194375 
z
" style="fill:#1f77b4;opacity:0.4;"/>
   </g>
   <g id="patch_39">
    <path clip-path="url(#p80ab5fd195)" d="M 198.083707 313.194375 
L 201.10423 313.194375 
L 201.10423 309.098534 
L 198.083707 309.098534 
z
" style="fill:#1f77b4;opacity:0.4;"/>
   </g>
   <g id="patch_40">
    <path clip-path="url(#p80ab5fd195)" d="M 201.10423 313.194375 
L 204.124752 313.194375 
L 204.124752 313.194375 
L 201.10423 313.194375 
z
" style="fill:#1f77b4;opacity:0.4;"/>
   </g>
   <g id="patch_41">
    <path clip-path="url(#p80ab5fd195)" d="M 204.124752 313.194375 
L 207.145275 313.194375 
L 207.145275 313.194375 
L 204.124752 313.194375 
z
" style="fill:#1f77b4;opacity:0.4;"/>
   </g>
   <g id="patch_42">
    <path clip-path="url(#p80ab5fd195)" d="M 207.145275 313.194375 
L 210.165797 313.194375 
L 210.165797 307.460198 
L 207.145275 307.460198 
z
" style="fill:#1f77b4;opacity:0.4;"/>
   </g>
   <g id="patch_43">
    <path clip-path="url(#p80ab5fd195)" d="M 210.165797 313.194375 
L 213.18632 313.194375 
L 213.18632 313.194375 
L 210.165797 313.194375 
z
" style="fill:#1f77b4;opacity:0.4;"/>
   </g>
   <g id="patch_44">
    <path clip-path="url(#p80ab5fd195)" d="M 213.18632 313.194375 
L 216.206842 313.194375 
L 216.206842 313.194375 
L 213.18632 313.194375 
z
" style="fill:#1f77b4;opacity:0.4;"/>
   </g>
   <g id="patch_45">
    <path clip-path="url(#p80ab5fd195)" d="M 216.206842 313.194375 
L 219.227365 313.194375 
L 219.227365 305.821861 
L 216.206842 305.821861 
z
" style="fill:#1f77b4;opacity:0.4;"/>
   </g>
   <g id="patch_46">
    <path clip-path="url(#p80ab5fd195)" d="M 219.227365 313.194375 
L 222.247887 313.194375 
L 222.247887 313.194375 
L 219.227365 313.194375 
z
" style="fill:#1f77b4;opacity:0.4;"/>
   </g>
   <g id="patch_47">
    <path clip-path="url(#p80ab5fd195)" d="M 222.247887 313.194375 
L 225.26841 313.194375 
L 225.26841 300.087684 
L 222.247887 300.087684 
z
" style="fill:#1f77b4;opacity:0.4;"/>
   </g>
   <g id="patch_48">
    <path clip-path="url(#p80ab5fd195)" d="M 225.26841 313.194375 
L 228.288933 313.194375 
L 228.288933 313.194375 
L 225.26841 313.194375 
z
" style="fill:#1f77b4;opacity:0.4;"/>
   </g>
   <g id="patch_49">
    <path clip-path="url(#p80ab5fd195)" d="M 228.288933 313.194375 
L 231.309455 313.194375 
L 231.309455 313.194375 
L 228.288933 313.194375 
z
" style="fill:#1f77b4;opacity:0.4;"/>
   </g>
   <g id="patch_50">
    <path clip-path="url(#p80ab5fd195)" d="M 231.309455 313.194375 
L 234.329978 313.194375 
L 234.329978 299.268516 
L 231.309455 299.268516 
z
" style="fill:#1f77b4;opacity:0.4;"/>
   </g>
   <g id="patch_51">
    <path clip-path="url(#p80ab5fd195)" d="M 234.329978 313.194375 
L 237.3505 313.194375 
L 237.3505 313.194375 
L 234.329978 313.194375 
z
" style="fill:#1f77b4;opacity:0.4;"/>
   </g>
   <g id="patch_52">
    <path clip-path="url(#p80ab5fd195)" d="M 237.3505 313.194375 
L 240.371023 313.194375 
L 240.371023 313.194375 
L 237.3505 313.194375 
z
" style="fill:#1f77b4;opacity:0.4;"/>
   </g>
   <g id="patch_53">
    <path clip-path="url(#p80ab5fd195)" d="M 240.371023 313.194375 
L 243.391545 313.194375 
L 243.391545 291.076834 
L 240.371023 291.076834 
z
" style="fill:#1f77b4;opacity:0.4;"/>
   </g>
   <g id="patch_54">
    <path clip-path="url(#p80ab5fd195)" d="M 243.391545 313.194375 
L 246.412068 313.194375 
L 246.412068 313.194375 
L 243.391545 313.194375 
z
" style="fill:#1f77b4;opacity:0.4;"/>
   </g>
   <g id="patch_55">
    <path clip-path="url(#p80ab5fd195)" d="M 246.412068 313.194375 
L 249.43259 313.194375 
L 249.43259 287.800162 
L 246.412068 287.800162 
z
" style="fill:#1f77b4;opacity:0.4;"/>
   </g>
   <g id="patch_56">
    <path clip-path="url(#p80ab5fd195)" d="M 249.43259 313.194375 
L 252.453113 313.194375 
L 252.453113 313.194375 
L 249.43259 313.194375 
z
" style="fill:#1f77b4;opacity:0.4;"/>
   </g>
   <g id="patch_57">
    <path clip-path="url(#p80ab5fd195)" d="M 252.453113 313.194375 
L 255.473635 313.194375 
L 255.473635 313.194375 
L 252.453113 313.194375 
z
" style="fill:#1f77b4;opacity:0.4;"/>
   </g>
   <g id="patch_58">
    <path clip-path="url(#p80ab5fd195)" d="M 255.473635 313.194375 
L 258.494158 313.194375 
L 258.494158 277.560559 
L 255.473635 277.560559 
z
" style="fill:#1f77b4;opacity:0.4;"/>
   </g>
   <g id="patch_59">
    <path clip-path="url(#p80ab5fd195)" d="M 258.494158 313.194375 
L 261.514681 313.194375 
L 261.514681 313.194375 
L 258.494158 313.194375 
z
" style="fill:#1f77b4;opacity:0.4;"/>
   </g>
   <g id="patch_60">
    <path clip-path="url(#p80ab5fd195)" d="M 261.514681 313.194375 
L 264.535203 313.194375 
L 264.535203 264.863453 
L 261.514681 264.863453 
z
" style="fill:#1f77b4;opacity:0.4;"/>
   </g>
   <g id="patch_61">
    <path clip-path="url(#p80ab5fd195)" d="M 264.535203 313.194375 
L 267.555726 313.194375 
L 267.555726 313.194375 
L 264.535203 313.194375 
z
" style="fill:#1f77b4;opacity:0.4;"/>
   </g>
   <g id="patch_62">
    <path clip-path="url(#p80ab5fd195)" d="M 267.555726 313.194375 
L 270.576248 313.194375 
L 270.576248 313.194375 
L 267.555726 313.194375 
z
" style="fill:#1f77b4;opacity:0.4;"/>
   </g>
   <g id="patch_63">
    <path clip-path="url(#p80ab5fd195)" d="M 270.576248 313.194375 
L 273.596771 313.194375 
L 273.596771 253.395098 
L 270.576248 253.395098 
z
" style="fill:#1f77b4;opacity:0.4;"/>
   </g>
   <g id="patch_64">
    <path clip-path="url(#p80ab5fd195)" d="M 273.596771 313.194375 
L 276.617293 313.194375 
L 276.617293 313.194375 
L 273.596771 313.194375 
z
" style="fill:#1f77b4;opacity:0.4;"/>
   </g>
   <g id="patch_65">
    <path clip-path="url(#p80ab5fd195)" d="M 276.617293 313.194375 
L 279.637816 313.194375 
L 279.637816 313.194375 
L 276.617293 313.194375 
z
" style="fill:#1f77b4;opacity:0.4;"/>
   </g>
   <g id="patch_66">
    <path clip-path="url(#p80ab5fd195)" d="M 279.637816 313.194375 
L 282.658338 313.194375 
L 282.658338 253.804682 
L 279.637816 253.804682 
z
" style="fill:#1f77b4;opacity:0.4;"/>
   </g>
   <g id="patch_67">
    <path clip-path="url(#p80ab5fd195)" d="M 282.658338 313.194375 
L 285.678861 313.194375 
L 285.678861 313.194375 
L 282.658338 313.194375 
z
" style="fill:#1f77b4;opacity:0.4;"/>
   </g>
   <g id="patch_68">
    <path clip-path="url(#p80ab5fd195)" d="M 285.678861 313.194375 
L 288.699383 313.194375 
L 288.699383 203.016256 
L 285.678861 203.016256 
z
" style="fill:#1f77b4;opacity:0.4;"/>
   </g>
   <g id="patch_69">
    <path clip-path="url(#p80ab5fd195)" d="M 288.699383 313.194375 
L 291.719906 313.194375 
L 291.719906 313.194375 
L 288.699383 313.194375 
z
" style="fill:#1f77b4;opacity:0.4;"/>
   </g>
   <g id="patch_70">
    <path clip-path="url(#p80ab5fd195)" d="M 291.719906 313.194375 
L 294.740429 313.194375 
L 294.740429 313.194375 
L 291.719906 313.194375 
z
" style="fill:#1f77b4;opacity:0.4;"/>
   </g>
   <g id="patch_71">
    <path clip-path="url(#p80ab5fd195)" d="M 294.740429 313.194375 
L 297.760951 313.194375 
L 297.760951 140.759474 
L 294.740429 140.759474 
z
" style="fill:#1f77b4;opacity:0.4;"/>
   </g>
   <g id="patch_72">
    <path clip-path="url(#p80ab5fd195)" d="M 297.760951 313.194375 
L 300.781474 313.194375 
L 300.781474 313.194375 
L 297.760951 313.194375 
z
" style="fill:#1f77b4;opacity:0.4;"/>
   </g>
   <g id="patch_73">
    <path clip-path="url(#p80ab5fd195)" d="M 300.781474 313.194375 
L 303.801996 313.194375 
L 303.801996 313.194375 
L 300.781474 313.194375 
z
" style="fill:#1f77b4;opacity:0.4;"/>
   </g>
   <g id="patch_74">
    <path clip-path="url(#p80ab5fd195)" d="M 303.801996 313.194375 
L 306.822519 313.194375 
L 306.822519 198.101247 
L 303.801996 198.101247 
z
" style="fill:#1f77b4;opacity:0.4;"/>
   </g>
   <g id="patch_75">
    <path clip-path="url(#p80ab5fd195)" d="M 306.822519 313.194375 
L 309.843041 313.194375 
L 309.843041 313.194375 
L 306.822519 313.194375 
z
" style="fill:#1f77b4;opacity:0.4;"/>
   </g>
   <g id="patch_76">
    <path clip-path="url(#p80ab5fd195)" d="M 309.843041 313.194375 
L 312.863564 313.194375 
L 312.863564 159.190758 
L 309.843041 159.190758 
z
" style="fill:#1f77b4;opacity:0.4;"/>
   </g>
   <g id="patch_77">
    <path clip-path="url(#p80ab5fd195)" d="M 312.863564 313.194375 
L 315.884086 313.194375 
L 315.884086 313.194375 
L 312.863564 313.194375 
z
" style="fill:#1f77b4;opacity:0.4;"/>
   </g>
   <g id="patch_78">
    <path clip-path="url(#p80ab5fd195)" d="M 315.884086 313.194375 
L 318.904609 313.194375 
L 318.904609 313.194375 
L 315.884086 313.194375 
z
" style="fill:#1f77b4;opacity:0.4;"/>
   </g>
   <g id="patch_79">
    <path clip-path="url(#p80ab5fd195)" d="M 318.904609 313.194375 
L 321.925131 313.194375 
L 321.925131 84.23687 
L 318.904609 84.23687 
z
" style="fill:#1f77b4;opacity:0.4;"/>
   </g>
   <g id="patch_80">
    <path clip-path="url(#p80ab5fd195)" d="M 321.925131 313.194375 
L 324.945654 313.194375 
L 324.945654 313.194375 
L 321.925131 313.194375 
z
" style="fill:#1f77b4;opacity:0.4;"/>
   </g>
   <g id="patch_81">
    <path clip-path="url(#p80ab5fd195)" d="M 324.945654 313.194375 
L 327.966177 313.194375 
L 327.966177 91.609384 
L 324.945654 91.609384 
z
" style="fill:#1f77b4;opacity:0.4;"/>
   </g>
   <g id="patch_82">
    <path clip-path="url(#p80ab5fd195)" d="M 327.966177 313.194375 
L 330.986699 313.194375 
L 330.986699 313.194375 
L 327.966177 313.194375 
z
" style="fill:#1f77b4;opacity:0.4;"/>
   </g>
   <g id="patch_83">
    <path clip-path="url(#p80ab5fd195)" d="M 330.986699 313.194375 
L 334.007222 313.194375 
L 334.007222 313.194375 
L 330.986699 313.194375 
z
" style="fill:#1f77b4;opacity:0.4;"/>
   </g>
   <g id="patch_84">
    <path clip-path="url(#p80ab5fd195)" d="M 334.007222 313.194375 
L 337.027744 313.194375 
L 337.027744 54.337232 
L 334.007222 54.337232 
z
" style="fill:#1f77b4;opacity:0.4;"/>
   </g>
   <g id="patch_85">
    <path clip-path="url(#p80ab5fd195)" d="M 337.027744 313.194375 
L 340.048267 313.194375 
L 340.048267 313.194375 
L 337.027744 313.194375 
z
" style="fill:#1f77b4;opacity:0.4;"/>
   </g>
   <g id="patch_86">
    <path clip-path="url(#p80ab5fd195)" d="M 340.048267 313.194375 
L 343.068789 313.194375 
L 343.068789 313.194375 
L 340.048267 313.194375 
z
" style="fill:#1f77b4;opacity:0.4;"/>
   </g>
   <g id="patch_87">
    <path clip-path="url(#p80ab5fd195)" d="M 343.068789 313.194375 
L 346.089312 313.194375 
L 346.089312 87.923127 
L 343.068789 87.923127 
z
" style="fill:#1f77b4;opacity:0.4;"/>
   </g>
   <g id="patch_88">
    <path clip-path="url(#p80ab5fd195)" d="M 346.089312 313.194375 
L 349.109834 313.194375 
L 349.109834 313.194375 
L 346.089312 313.194375 
z
" style="fill:#1f77b4;opacity:0.4;"/>
   </g>
   <g id="patch_89">
    <path clip-path="url(#p80ab5fd195)" d="M 349.109834 313.194375 
L 352.130357 313.194375 
L 352.130357 115.365261 
L 349.109834 115.365261 
z
" style="fill:#1f77b4;opacity:0.4;"/>
   </g>
   <g id="patch_90">
    <path clip-path="url(#p80ab5fd195)" d="M 352.130357 313.194375 
L 355.150879 313.194375 
L 355.150879 313.194375 
L 352.130357 313.194375 
z
" style="fill:#1f77b4;opacity:0.4;"/>
   </g>
   <g id="patch_91">
    <path clip-path="url(#p80ab5fd195)" d="M 355.150879 313.194375 
L 358.171402 313.194375 
L 358.171402 313.194375 
L 355.150879 313.194375 
z
" style="fill:#1f77b4;opacity:0.4;"/>
   </g>
   <g id="patch_92">
    <path clip-path="url(#p80ab5fd195)" d="M 358.171402 313.194375 
L 361.191925 313.194375 
L 361.191925 115.365261 
L 358.171402 115.365261 
z
" style="fill:#1f77b4;opacity:0.4;"/>
   </g>
   <g id="patch_93">
    <path clip-path="url(#p80ab5fd195)" d="M 361.191925 313.194375 
L 364.212447 313.194375 
L 364.212447 313.194375 
L 361.191925 313.194375 
z
" style="fill:#1f77b4;opacity:0.4;"/>
   </g>
   <g id="patch_94">
    <path clip-path="url(#p80ab5fd195)" d="M 364.212447 313.194375 
L 367.23297 313.194375 
L 367.23297 313.194375 
L 364.212447 313.194375 
z
" style="fill:#1f77b4;opacity:0.4;"/>
   </g>
   <g id="patch_95">
    <path clip-path="url(#p80ab5fd195)" d="M 367.23297 313.194375 
L 370.253492 313.194375 
L 370.253492 131.748625 
L 367.23297 131.748625 
z
" style="fill:#1f77b4;opacity:0.4;"/>
   </g>
   <g id="patch_96">
    <path clip-path="url(#p80ab5fd195)" d="M 370.253492 313.194375 
L 373.274015 313.194375 
L 373.274015 313.194375 
L 370.253492 313.194375 
z
" style="fill:#1f77b4;opacity:0.4;"/>
   </g>
   <g id="patch_97">
    <path clip-path="url(#p80ab5fd195)" d="M 373.274015 313.194375 
L 376.294537 313.194375 
L 376.294537 143.216979 
L 373.274015 143.216979 
z
" style="fill:#1f77b4;opacity:0.4;"/>
   </g>
   <g id="patch_98">
    <path clip-path="url(#p80ab5fd195)" d="M 376.294537 313.194375 
L 379.31506 313.194375 
L 379.31506 313.194375 
L 376.294537 313.194375 
z
" style="fill:#1f77b4;opacity:0.4;"/>
   </g>
   <g id="patch_99">
    <path clip-path="url(#p80ab5fd195)" d="M 379.31506 313.194375 
L 382.335582 313.194375 
L 382.335582 313.194375 
L 379.31506 313.194375 
z
" style="fill:#1f77b4;opacity:0.4;"/>
   </g>
   <g id="patch_100">
    <path clip-path="url(#p80ab5fd195)" d="M 382.335582 313.194375 
L 385.356105 313.194375 
L 385.356105 164.515351 
L 382.335582 164.515351 
z
" style="fill:#1f77b4;opacity:0.4;"/>
   </g>
   <g id="patch_101">
    <path clip-path="url(#p80ab5fd195)" d="M 385.356105 313.194375 
L 388.376627 313.194375 
L 388.376627 313.194375 
L 385.356105 313.194375 
z
" style="fill:#1f77b4;opacity:0.4;"/>
   </g>
   <g id="patch_102">
    <path clip-path="url(#p80ab5fd195)" d="M 388.376627 313.194375 
L 391.39715 313.194375 
L 391.39715 279.60848 
L 388.376627 279.60848 
z
" style="fill:#1f77b4;opacity:0.4;"/>
   </g>
   <g id="matplotlib.axis_1">
    <g id="xtick_1">
     <g id="line2d_1">
      <defs>
       <path d="M 0 0 
L 0 3.5 
" id="m4179ff9839" style="stroke:#000000;stroke-width:0.8;"/>
      </defs>
      <g>
       <use style="stroke:#000000;stroke-width:0.8;" x="73.447408" xlink:href="#m4179ff9839" y="313.194375"/>
      </g>
     </g>
     <g id="text_1">
      <!-- 1980 -->
      <defs>
       <path d="M 12.40625 8.296875 
L 28.515625 8.296875 
L 28.515625 63.921875 
L 10.984375 60.40625 
L 10.984375 69.390625 
L 28.421875 72.90625 
L 38.28125 72.90625 
L 38.28125 8.296875 
L 54.390625 8.296875 
L 54.390625 0 
L 12.40625 0 
z
" id="DejaVuSans-49"/>
       <path d="M 10.984375 1.515625 
L 10.984375 10.5 
Q 14.703125 8.734375 18.5 7.8125 
Q 22.3125 6.890625 25.984375 6.890625 
Q 35.75 6.890625 40.890625 13.453125 
Q 46.046875 20.015625 46.78125 33.40625 
Q 43.953125 29.203125 39.59375 26.953125 
Q 35.25 24.703125 29.984375 24.703125 
Q 19.046875 24.703125 12.671875 31.3125 
Q 6.296875 37.9375 6.296875 49.421875 
Q 6.296875 60.640625 12.9375 67.421875 
Q 19.578125 74.21875 30.609375 74.21875 
Q 43.265625 74.21875 49.921875 64.515625 
Q 56.59375 54.828125 56.59375 36.375 
Q 56.59375 19.140625 48.40625 8.859375 
Q 40.234375 -1.421875 26.421875 -1.421875 
Q 22.703125 -1.421875 18.890625 -0.6875 
Q 15.09375 0.046875 10.984375 1.515625 
z
M 30.609375 32.421875 
Q 37.25 32.421875 41.125 36.953125 
Q 45.015625 41.5 45.015625 49.421875 
Q 45.015625 57.28125 41.125 61.84375 
Q 37.25 66.40625 30.609375 66.40625 
Q 23.96875 66.40625 20.09375 61.84375 
Q 16.21875 57.28125 16.21875 49.421875 
Q 16.21875 41.5 20.09375 36.953125 
Q 23.96875 32.421875 30.609375 32.421875 
z
" id="DejaVuSans-57"/>
       <path d="M 31.78125 34.625 
Q 24.75 34.625 20.71875 30.859375 
Q 16.703125 27.09375 16.703125 20.515625 
Q 16.703125 13.921875 20.71875 10.15625 
Q 24.75 6.390625 31.78125 6.390625 
Q 38.8125 6.390625 42.859375 10.171875 
Q 46.921875 13.96875 46.921875 20.515625 
Q 46.921875 27.09375 42.890625 30.859375 
Q 38.875 34.625 31.78125 34.625 
z
M 21.921875 38.8125 
Q 15.578125 40.375 12.03125 44.71875 
Q 8.5 49.078125 8.5 55.328125 
Q 8.5 64.0625 14.71875 69.140625 
Q 20.953125 74.21875 31.78125 74.21875 
Q 42.671875 74.21875 48.875 69.140625 
Q 55.078125 64.0625 55.078125 55.328125 
Q 55.078125 49.078125 51.53125 44.71875 
Q 48 40.375 41.703125 38.8125 
Q 48.828125 37.15625 52.796875 32.3125 
Q 56.78125 27.484375 56.78125 20.515625 
Q 56.78125 9.90625 50.3125 4.234375 
Q 43.84375 -1.421875 31.78125 -1.421875 
Q 19.734375 -1.421875 13.25 4.234375 
Q 6.78125 9.90625 6.78125 20.515625 
Q 6.78125 27.484375 10.78125 32.3125 
Q 14.796875 37.15625 21.921875 38.8125 
z
M 18.3125 54.390625 
Q 18.3125 48.734375 21.84375 45.5625 
Q 25.390625 42.390625 31.78125 42.390625 
Q 38.140625 42.390625 41.71875 45.5625 
Q 45.3125 48.734375 45.3125 54.390625 
Q 45.3125 60.0625 41.71875 63.234375 
Q 38.140625 66.40625 31.78125 66.40625 
Q 25.390625 66.40625 21.84375 63.234375 
Q 18.3125 60.0625 18.3125 54.390625 
z
" id="DejaVuSans-56"/>
       <path d="M 31.78125 66.40625 
Q 24.171875 66.40625 20.328125 58.90625 
Q 16.5 51.421875 16.5 36.375 
Q 16.5 21.390625 20.328125 13.890625 
Q 24.171875 6.390625 31.78125 6.390625 
Q 39.453125 6.390625 43.28125 13.890625 
Q 47.125 21.390625 47.125 36.375 
Q 47.125 51.421875 43.28125 58.90625 
Q 39.453125 66.40625 31.78125 66.40625 
z
M 31.78125 74.21875 
Q 44.046875 74.21875 50.515625 64.515625 
Q 56.984375 54.828125 56.984375 36.375 
Q 56.984375 17.96875 50.515625 8.265625 
Q 44.046875 -1.421875 31.78125 -1.421875 
Q 19.53125 -1.421875 13.0625 8.265625 
Q 6.59375 17.96875 6.59375 36.375 
Q 6.59375 54.828125 13.0625 64.515625 
Q 19.53125 74.21875 31.78125 74.21875 
z
" id="DejaVuSans-48"/>
      </defs>
      <g transform="translate(60.722408 327.792812)scale(0.1 -0.1)">
       <use xlink:href="#DejaVuSans-49"/>
       <use x="63.623047" xlink:href="#DejaVuSans-57"/>
       <use x="127.246094" xlink:href="#DejaVuSans-56"/>
       <use x="190.869141" xlink:href="#DejaVuSans-48"/>
      </g>
     </g>
    </g>
    <g id="xtick_2">
     <g id="line2d_2">
      <g>
       <use style="stroke:#000000;stroke-width:0.8;" x="152.934844" xlink:href="#m4179ff9839" y="313.194375"/>
      </g>
     </g>
     <g id="text_2">
      <!-- 1990 -->
      <g transform="translate(140.209844 327.792812)scale(0.1 -0.1)">
       <use xlink:href="#DejaVuSans-49"/>
       <use x="63.623047" xlink:href="#DejaVuSans-57"/>
       <use x="127.246094" xlink:href="#DejaVuSans-57"/>
       <use x="190.869141" xlink:href="#DejaVuSans-48"/>
      </g>
     </g>
    </g>
    <g id="xtick_3">
     <g id="line2d_3">
      <g>
       <use style="stroke:#000000;stroke-width:0.8;" x="232.422279" xlink:href="#m4179ff9839" y="313.194375"/>
      </g>
     </g>
     <g id="text_3">
      <!-- 2000 -->
      <defs>
       <path d="M 19.1875 8.296875 
L 53.609375 8.296875 
L 53.609375 0 
L 7.328125 0 
L 7.328125 8.296875 
Q 12.9375 14.109375 22.625 23.890625 
Q 32.328125 33.6875 34.8125 36.53125 
Q 39.546875 41.84375 41.421875 45.53125 
Q 43.3125 49.21875 43.3125 52.78125 
Q 43.3125 58.59375 39.234375 62.25 
Q 35.15625 65.921875 28.609375 65.921875 
Q 23.96875 65.921875 18.8125 64.3125 
Q 13.671875 62.703125 7.8125 59.421875 
L 7.8125 69.390625 
Q 13.765625 71.78125 18.9375 73 
Q 24.125 74.21875 28.421875 74.21875 
Q 39.75 74.21875 46.484375 68.546875 
Q 53.21875 62.890625 53.21875 53.421875 
Q 53.21875 48.921875 51.53125 44.890625 
Q 49.859375 40.875 45.40625 35.40625 
Q 44.1875 33.984375 37.640625 27.21875 
Q 31.109375 20.453125 19.1875 8.296875 
z
" id="DejaVuSans-50"/>
      </defs>
      <g transform="translate(219.697279 327.792812)scale(0.1 -0.1)">
       <use xlink:href="#DejaVuSans-50"/>
       <use x="63.623047" xlink:href="#DejaVuSans-48"/>
       <use x="127.246094" xlink:href="#DejaVuSans-48"/>
       <use x="190.869141" xlink:href="#DejaVuSans-48"/>
      </g>
     </g>
    </g>
    <g id="xtick_4">
     <g id="line2d_4">
      <g>
       <use style="stroke:#000000;stroke-width:0.8;" x="311.909715" xlink:href="#m4179ff9839" y="313.194375"/>
      </g>
     </g>
     <g id="text_4">
      <!-- 2010 -->
      <g transform="translate(299.184715 327.792812)scale(0.1 -0.1)">
       <use xlink:href="#DejaVuSans-50"/>
       <use x="63.623047" xlink:href="#DejaVuSans-48"/>
       <use x="127.246094" xlink:href="#DejaVuSans-49"/>
       <use x="190.869141" xlink:href="#DejaVuSans-48"/>
      </g>
     </g>
    </g>
    <g id="xtick_5">
     <g id="line2d_5">
      <g>
       <use style="stroke:#000000;stroke-width:0.8;" x="391.39715" xlink:href="#m4179ff9839" y="313.194375"/>
      </g>
     </g>
     <g id="text_5">
      <!-- 2020 -->
      <g transform="translate(378.67215 327.792812)scale(0.1 -0.1)">
       <use xlink:href="#DejaVuSans-50"/>
       <use x="63.623047" xlink:href="#DejaVuSans-48"/>
       <use x="127.246094" xlink:href="#DejaVuSans-50"/>
       <use x="190.869141" xlink:href="#DejaVuSans-48"/>
      </g>
     </g>
    </g>
    <g id="text_6">
     <!-- Production date -->
     <defs>
      <path d="M 19.671875 64.796875 
L 19.671875 37.40625 
L 32.078125 37.40625 
Q 38.96875 37.40625 42.71875 40.96875 
Q 46.484375 44.53125 46.484375 51.125 
Q 46.484375 57.671875 42.71875 61.234375 
Q 38.96875 64.796875 32.078125 64.796875 
z
M 9.8125 72.90625 
L 32.078125 72.90625 
Q 44.34375 72.90625 50.609375 67.359375 
Q 56.890625 61.8125 56.890625 51.125 
Q 56.890625 40.328125 50.609375 34.8125 
Q 44.34375 29.296875 32.078125 29.296875 
L 19.671875 29.296875 
L 19.671875 0 
L 9.8125 0 
z
" id="DejaVuSans-80"/>
      <path d="M 41.109375 46.296875 
Q 39.59375 47.171875 37.8125 47.578125 
Q 36.03125 48 33.890625 48 
Q 26.265625 48 22.1875 43.046875 
Q 18.109375 38.09375 18.109375 28.8125 
L 18.109375 0 
L 9.078125 0 
L 9.078125 54.6875 
L 18.109375 54.6875 
L 18.109375 46.1875 
Q 20.953125 51.171875 25.484375 53.578125 
Q 30.03125 56 36.53125 56 
Q 37.453125 56 38.578125 55.875 
Q 39.703125 55.765625 41.0625 55.515625 
z
" id="DejaVuSans-114"/>
      <path d="M 30.609375 48.390625 
Q 23.390625 48.390625 19.1875 42.75 
Q 14.984375 37.109375 14.984375 27.296875 
Q 14.984375 17.484375 19.15625 11.84375 
Q 23.34375 6.203125 30.609375 6.203125 
Q 37.796875 6.203125 41.984375 11.859375 
Q 46.1875 17.53125 46.1875 27.296875 
Q 46.1875 37.015625 41.984375 42.703125 
Q 37.796875 48.390625 30.609375 48.390625 
z
M 30.609375 56 
Q 42.328125 56 49.015625 48.375 
Q 55.71875 40.765625 55.71875 27.296875 
Q 55.71875 13.875 49.015625 6.21875 
Q 42.328125 -1.421875 30.609375 -1.421875 
Q 18.84375 -1.421875 12.171875 6.21875 
Q 5.515625 13.875 5.515625 27.296875 
Q 5.515625 40.765625 12.171875 48.375 
Q 18.84375 56 30.609375 56 
z
" id="DejaVuSans-111"/>
      <path d="M 45.40625 46.390625 
L 45.40625 75.984375 
L 54.390625 75.984375 
L 54.390625 0 
L 45.40625 0 
L 45.40625 8.203125 
Q 42.578125 3.328125 38.25 0.953125 
Q 33.9375 -1.421875 27.875 -1.421875 
Q 17.96875 -1.421875 11.734375 6.484375 
Q 5.515625 14.40625 5.515625 27.296875 
Q 5.515625 40.1875 11.734375 48.09375 
Q 17.96875 56 27.875 56 
Q 33.9375 56 38.25 53.625 
Q 42.578125 51.265625 45.40625 46.390625 
z
M 14.796875 27.296875 
Q 14.796875 17.390625 18.875 11.75 
Q 22.953125 6.109375 30.078125 6.109375 
Q 37.203125 6.109375 41.296875 11.75 
Q 45.40625 17.390625 45.40625 27.296875 
Q 45.40625 37.203125 41.296875 42.84375 
Q 37.203125 48.484375 30.078125 48.484375 
Q 22.953125 48.484375 18.875 42.84375 
Q 14.796875 37.203125 14.796875 27.296875 
z
" id="DejaVuSans-100"/>
      <path d="M 8.5 21.578125 
L 8.5 54.6875 
L 17.484375 54.6875 
L 17.484375 21.921875 
Q 17.484375 14.15625 20.5 10.265625 
Q 23.53125 6.390625 29.59375 6.390625 
Q 36.859375 6.390625 41.078125 11.03125 
Q 45.3125 15.671875 45.3125 23.6875 
L 45.3125 54.6875 
L 54.296875 54.6875 
L 54.296875 0 
L 45.3125 0 
L 45.3125 8.40625 
Q 42.046875 3.421875 37.71875 1 
Q 33.40625 -1.421875 27.6875 -1.421875 
Q 18.265625 -1.421875 13.375 4.4375 
Q 8.5 10.296875 8.5 21.578125 
z
M 31.109375 56 
z
" id="DejaVuSans-117"/>
      <path d="M 48.78125 52.59375 
L 48.78125 44.1875 
Q 44.96875 46.296875 41.140625 47.34375 
Q 37.3125 48.390625 33.40625 48.390625 
Q 24.65625 48.390625 19.8125 42.84375 
Q 14.984375 37.3125 14.984375 27.296875 
Q 14.984375 17.28125 19.8125 11.734375 
Q 24.65625 6.203125 33.40625 6.203125 
Q 37.3125 6.203125 41.140625 7.25 
Q 44.96875 8.296875 48.78125 10.40625 
L 48.78125 2.09375 
Q 45.015625 0.34375 40.984375 -0.53125 
Q 36.96875 -1.421875 32.421875 -1.421875 
Q 20.0625 -1.421875 12.78125 6.34375 
Q 5.515625 14.109375 5.515625 27.296875 
Q 5.515625 40.671875 12.859375 48.328125 
Q 20.21875 56 33.015625 56 
Q 37.15625 56 41.109375 55.140625 
Q 45.0625 54.296875 48.78125 52.59375 
z
" id="DejaVuSans-99"/>
      <path d="M 18.3125 70.21875 
L 18.3125 54.6875 
L 36.8125 54.6875 
L 36.8125 47.703125 
L 18.3125 47.703125 
L 18.3125 18.015625 
Q 18.3125 11.328125 20.140625 9.421875 
Q 21.96875 7.515625 27.59375 7.515625 
L 36.8125 7.515625 
L 36.8125 0 
L 27.59375 0 
Q 17.1875 0 13.234375 3.875 
Q 9.28125 7.765625 9.28125 18.015625 
L 9.28125 47.703125 
L 2.6875 47.703125 
L 2.6875 54.6875 
L 9.28125 54.6875 
L 9.28125 70.21875 
z
" id="DejaVuSans-116"/>
      <path d="M 9.421875 54.6875 
L 18.40625 54.6875 
L 18.40625 0 
L 9.421875 0 
z
M 9.421875 75.984375 
L 18.40625 75.984375 
L 18.40625 64.59375 
L 9.421875 64.59375 
z
" id="DejaVuSans-105"/>
      <path d="M 54.890625 33.015625 
L 54.890625 0 
L 45.90625 0 
L 45.90625 32.71875 
Q 45.90625 40.484375 42.875 44.328125 
Q 39.84375 48.1875 33.796875 48.1875 
Q 26.515625 48.1875 22.3125 43.546875 
Q 18.109375 38.921875 18.109375 30.90625 
L 18.109375 0 
L 9.078125 0 
L 9.078125 54.6875 
L 18.109375 54.6875 
L 18.109375 46.1875 
Q 21.34375 51.125 25.703125 53.5625 
Q 30.078125 56 35.796875 56 
Q 45.21875 56 50.046875 50.171875 
Q 54.890625 44.34375 54.890625 33.015625 
z
" id="DejaVuSans-110"/>
      <path id="DejaVuSans-32"/>
      <path d="M 34.28125 27.484375 
Q 23.390625 27.484375 19.1875 25 
Q 14.984375 22.515625 14.984375 16.5 
Q 14.984375 11.71875 18.140625 8.90625 
Q 21.296875 6.109375 26.703125 6.109375 
Q 34.1875 6.109375 38.703125 11.40625 
Q 43.21875 16.703125 43.21875 25.484375 
L 43.21875 27.484375 
z
M 52.203125 31.203125 
L 52.203125 0 
L 43.21875 0 
L 43.21875 8.296875 
Q 40.140625 3.328125 35.546875 0.953125 
Q 30.953125 -1.421875 24.3125 -1.421875 
Q 15.921875 -1.421875 10.953125 3.296875 
Q 6 8.015625 6 15.921875 
Q 6 25.140625 12.171875 29.828125 
Q 18.359375 34.515625 30.609375 34.515625 
L 43.21875 34.515625 
L 43.21875 35.40625 
Q 43.21875 41.609375 39.140625 45 
Q 35.0625 48.390625 27.6875 48.390625 
Q 23 48.390625 18.546875 47.265625 
Q 14.109375 46.140625 10.015625 43.890625 
L 10.015625 52.203125 
Q 14.9375 54.109375 19.578125 55.046875 
Q 24.21875 56 28.609375 56 
Q 40.484375 56 46.34375 49.84375 
Q 52.203125 43.703125 52.203125 31.203125 
z
" id="DejaVuSans-97"/>
      <path d="M 56.203125 29.59375 
L 56.203125 25.203125 
L 14.890625 25.203125 
Q 15.484375 15.921875 20.484375 11.0625 
Q 25.484375 6.203125 34.421875 6.203125 
Q 39.59375 6.203125 44.453125 7.46875 
Q 49.3125 8.734375 54.109375 11.28125 
L 54.109375 2.78125 
Q 49.265625 0.734375 44.1875 -0.34375 
Q 39.109375 -1.421875 33.890625 -1.421875 
Q 20.796875 -1.421875 13.15625 6.1875 
Q 5.515625 13.8125 5.515625 26.8125 
Q 5.515625 40.234375 12.765625 48.109375 
Q 20.015625 56 32.328125 56 
Q 43.359375 56 49.78125 48.890625 
Q 56.203125 41.796875 56.203125 29.59375 
z
M 47.21875 32.234375 
Q 47.125 39.59375 43.09375 43.984375 
Q 39.0625 48.390625 32.421875 48.390625 
Q 24.90625 48.390625 20.390625 44.140625 
Q 15.875 39.890625 15.1875 32.171875 
z
" id="DejaVuSans-101"/>
     </defs>
     <g transform="translate(200.907741 341.470937)scale(0.1 -0.1)">
      <use xlink:href="#DejaVuSans-80"/>
      <use x="58.552734" xlink:href="#DejaVuSans-114"/>
      <use x="97.416016" xlink:href="#DejaVuSans-111"/>
      <use x="158.597656" xlink:href="#DejaVuSans-100"/>
      <use x="222.074219" xlink:href="#DejaVuSans-117"/>
      <use x="285.453125" xlink:href="#DejaVuSans-99"/>
      <use x="340.433594" xlink:href="#DejaVuSans-116"/>
      <use x="379.642578" xlink:href="#DejaVuSans-105"/>
      <use x="407.425781" xlink:href="#DejaVuSans-111"/>
      <use x="468.607422" xlink:href="#DejaVuSans-110"/>
      <use x="531.986328" xlink:href="#DejaVuSans-32"/>
      <use x="563.773438" xlink:href="#DejaVuSans-100"/>
      <use x="627.25" xlink:href="#DejaVuSans-97"/>
      <use x="688.529297" xlink:href="#DejaVuSans-116"/>
      <use x="727.738281" xlink:href="#DejaVuSans-101"/>
     </g>
    </g>
   </g>
   <g id="matplotlib.axis_2">
    <g id="ytick_1">
     <g id="line2d_6">
      <defs>
       <path d="M 0 0 
L -3.5 0 
" id="ma791e3b311" style="stroke:#000000;stroke-width:0.8;"/>
      </defs>
      <g>
       <use style="stroke:#000000;stroke-width:0.8;" x="50.14375" xlink:href="#ma791e3b311" y="313.194375"/>
      </g>
     </g>
     <g id="text_7">
      <!-- 0.00 -->
      <defs>
       <path d="M 10.6875 12.40625 
L 21 12.40625 
L 21 0 
L 10.6875 0 
z
" id="DejaVuSans-46"/>
      </defs>
      <g transform="translate(20.878125 316.993594)scale(0.1 -0.1)">
       <use xlink:href="#DejaVuSans-48"/>
       <use x="63.623047" xlink:href="#DejaVuSans-46"/>
       <use x="95.410156" xlink:href="#DejaVuSans-48"/>
       <use x="159.033203" xlink:href="#DejaVuSans-48"/>
      </g>
     </g>
    </g>
    <g id="ytick_2">
     <g id="line2d_7">
      <g>
       <use style="stroke:#000000;stroke-width:0.8;" x="50.14375" xlink:href="#ma791e3b311" y="261.194399"/>
      </g>
     </g>
     <g id="text_8">
      <!-- 0.05 -->
      <defs>
       <path d="M 10.796875 72.90625 
L 49.515625 72.90625 
L 49.515625 64.59375 
L 19.828125 64.59375 
L 19.828125 46.734375 
Q 21.96875 47.46875 24.109375 47.828125 
Q 26.265625 48.1875 28.421875 48.1875 
Q 40.625 48.1875 47.75 41.5 
Q 54.890625 34.8125 54.890625 23.390625 
Q 54.890625 11.625 47.5625 5.09375 
Q 40.234375 -1.421875 26.90625 -1.421875 
Q 22.3125 -1.421875 17.546875 -0.640625 
Q 12.796875 0.140625 7.71875 1.703125 
L 7.71875 11.625 
Q 12.109375 9.234375 16.796875 8.0625 
Q 21.484375 6.890625 26.703125 6.890625 
Q 35.15625 6.890625 40.078125 11.328125 
Q 45.015625 15.765625 45.015625 23.390625 
Q 45.015625 31 40.078125 35.4375 
Q 35.15625 39.890625 26.703125 39.890625 
Q 22.75 39.890625 18.8125 39.015625 
Q 14.890625 38.140625 10.796875 36.28125 
z
" id="DejaVuSans-53"/>
      </defs>
      <g transform="translate(20.878125 264.993617)scale(0.1 -0.1)">
       <use xlink:href="#DejaVuSans-48"/>
       <use x="63.623047" xlink:href="#DejaVuSans-46"/>
       <use x="95.410156" xlink:href="#DejaVuSans-48"/>
       <use x="159.033203" xlink:href="#DejaVuSans-53"/>
      </g>
     </g>
    </g>
    <g id="ytick_3">
     <g id="line2d_8">
      <g>
       <use style="stroke:#000000;stroke-width:0.8;" x="50.14375" xlink:href="#ma791e3b311" y="209.194422"/>
      </g>
     </g>
     <g id="text_9">
      <!-- 0.10 -->
      <g transform="translate(20.878125 212.993641)scale(0.1 -0.1)">
       <use xlink:href="#DejaVuSans-48"/>
       <use x="63.623047" xlink:href="#DejaVuSans-46"/>
       <use x="95.410156" xlink:href="#DejaVuSans-49"/>
       <use x="159.033203" xlink:href="#DejaVuSans-48"/>
      </g>
     </g>
    </g>
    <g id="ytick_4">
     <g id="line2d_9">
      <g>
       <use style="stroke:#000000;stroke-width:0.8;" x="50.14375" xlink:href="#ma791e3b311" y="157.194446"/>
      </g>
     </g>
     <g id="text_10">
      <!-- 0.15 -->
      <g transform="translate(20.878125 160.993664)scale(0.1 -0.1)">
       <use xlink:href="#DejaVuSans-48"/>
       <use x="63.623047" xlink:href="#DejaVuSans-46"/>
       <use x="95.410156" xlink:href="#DejaVuSans-49"/>
       <use x="159.033203" xlink:href="#DejaVuSans-53"/>
      </g>
     </g>
    </g>
    <g id="ytick_5">
     <g id="line2d_10">
      <g>
       <use style="stroke:#000000;stroke-width:0.8;" x="50.14375" xlink:href="#ma791e3b311" y="105.194469"/>
      </g>
     </g>
     <g id="text_11">
      <!-- 0.20 -->
      <g transform="translate(20.878125 108.993688)scale(0.1 -0.1)">
       <use xlink:href="#DejaVuSans-48"/>
       <use x="63.623047" xlink:href="#DejaVuSans-46"/>
       <use x="95.410156" xlink:href="#DejaVuSans-50"/>
       <use x="159.033203" xlink:href="#DejaVuSans-48"/>
      </g>
     </g>
    </g>
    <g id="ytick_6">
     <g id="line2d_11">
      <g>
       <use style="stroke:#000000;stroke-width:0.8;" x="50.14375" xlink:href="#ma791e3b311" y="53.194493"/>
      </g>
     </g>
     <g id="text_12">
      <!-- 0.25 -->
      <g transform="translate(20.878125 56.993711)scale(0.1 -0.1)">
       <use xlink:href="#DejaVuSans-48"/>
       <use x="63.623047" xlink:href="#DejaVuSans-46"/>
       <use x="95.410156" xlink:href="#DejaVuSans-50"/>
       <use x="159.033203" xlink:href="#DejaVuSans-53"/>
      </g>
     </g>
    </g>
    <g id="text_13">
     <!-- Quantity (frequency) -->
     <defs>
      <path d="M 39.40625 66.21875 
Q 28.65625 66.21875 22.328125 58.203125 
Q 16.015625 50.203125 16.015625 36.375 
Q 16.015625 22.609375 22.328125 14.59375 
Q 28.65625 6.59375 39.40625 6.59375 
Q 50.140625 6.59375 56.421875 14.59375 
Q 62.703125 22.609375 62.703125 36.375 
Q 62.703125 50.203125 56.421875 58.203125 
Q 50.140625 66.21875 39.40625 66.21875 
z
M 53.21875 1.3125 
L 66.21875 -12.890625 
L 54.296875 -12.890625 
L 43.5 -1.21875 
Q 41.890625 -1.3125 41.03125 -1.359375 
Q 40.1875 -1.421875 39.40625 -1.421875 
Q 24.03125 -1.421875 14.8125 8.859375 
Q 5.609375 19.140625 5.609375 36.375 
Q 5.609375 53.65625 14.8125 63.9375 
Q 24.03125 74.21875 39.40625 74.21875 
Q 54.734375 74.21875 63.90625 63.9375 
Q 73.09375 53.65625 73.09375 36.375 
Q 73.09375 23.6875 67.984375 14.640625 
Q 62.890625 5.609375 53.21875 1.3125 
z
" id="DejaVuSans-81"/>
      <path d="M 32.171875 -5.078125 
Q 28.375 -14.84375 24.75 -17.8125 
Q 21.140625 -20.796875 15.09375 -20.796875 
L 7.90625 -20.796875 
L 7.90625 -13.28125 
L 13.1875 -13.28125 
Q 16.890625 -13.28125 18.9375 -11.515625 
Q 21 -9.765625 23.484375 -3.21875 
L 25.09375 0.875 
L 2.984375 54.6875 
L 12.5 54.6875 
L 29.59375 11.921875 
L 46.6875 54.6875 
L 56.203125 54.6875 
z
" id="DejaVuSans-121"/>
      <path d="M 31 75.875 
Q 24.46875 64.65625 21.28125 53.65625 
Q 18.109375 42.671875 18.109375 31.390625 
Q 18.109375 20.125 21.3125 9.0625 
Q 24.515625 -2 31 -13.1875 
L 23.1875 -13.1875 
Q 15.875 -1.703125 12.234375 9.375 
Q 8.59375 20.453125 8.59375 31.390625 
Q 8.59375 42.28125 12.203125 53.3125 
Q 15.828125 64.359375 23.1875 75.875 
z
" id="DejaVuSans-40"/>
      <path d="M 37.109375 75.984375 
L 37.109375 68.5 
L 28.515625 68.5 
Q 23.6875 68.5 21.796875 66.546875 
Q 19.921875 64.59375 19.921875 59.515625 
L 19.921875 54.6875 
L 34.71875 54.6875 
L 34.71875 47.703125 
L 19.921875 47.703125 
L 19.921875 0 
L 10.890625 0 
L 10.890625 47.703125 
L 2.296875 47.703125 
L 2.296875 54.6875 
L 10.890625 54.6875 
L 10.890625 58.5 
Q 10.890625 67.625 15.140625 71.796875 
Q 19.390625 75.984375 28.609375 75.984375 
z
" id="DejaVuSans-102"/>
      <path d="M 14.796875 27.296875 
Q 14.796875 17.390625 18.875 11.75 
Q 22.953125 6.109375 30.078125 6.109375 
Q 37.203125 6.109375 41.296875 11.75 
Q 45.40625 17.390625 45.40625 27.296875 
Q 45.40625 37.203125 41.296875 42.84375 
Q 37.203125 48.484375 30.078125 48.484375 
Q 22.953125 48.484375 18.875 42.84375 
Q 14.796875 37.203125 14.796875 27.296875 
z
M 45.40625 8.203125 
Q 42.578125 3.328125 38.25 0.953125 
Q 33.9375 -1.421875 27.875 -1.421875 
Q 17.96875 -1.421875 11.734375 6.484375 
Q 5.515625 14.40625 5.515625 27.296875 
Q 5.515625 40.1875 11.734375 48.09375 
Q 17.96875 56 27.875 56 
Q 33.9375 56 38.25 53.625 
Q 42.578125 51.265625 45.40625 46.390625 
L 45.40625 54.6875 
L 54.390625 54.6875 
L 54.390625 -20.796875 
L 45.40625 -20.796875 
z
" id="DejaVuSans-113"/>
      <path d="M 8.015625 75.875 
L 15.828125 75.875 
Q 23.140625 64.359375 26.78125 53.3125 
Q 30.421875 42.28125 30.421875 31.390625 
Q 30.421875 20.453125 26.78125 9.375 
Q 23.140625 -1.703125 15.828125 -13.1875 
L 8.015625 -13.1875 
Q 14.5 -2 17.703125 9.0625 
Q 20.90625 20.125 20.90625 31.390625 
Q 20.90625 42.671875 17.703125 53.65625 
Q 14.5 64.65625 8.015625 75.875 
z
" id="DejaVuSans-41"/>
     </defs>
     <g transform="translate(14.798438 229.467812)rotate(-90)scale(0.1 -0.1)">
      <use xlink:href="#DejaVuSans-81"/>
      <use x="78.710938" xlink:href="#DejaVuSans-117"/>
      <use x="142.089844" xlink:href="#DejaVuSans-97"/>
      <use x="203.369141" xlink:href="#DejaVuSans-110"/>
      <use x="266.748047" xlink:href="#DejaVuSans-116"/>
      <use x="305.957031" xlink:href="#DejaVuSans-105"/>
      <use x="333.740234" xlink:href="#DejaVuSans-116"/>
      <use x="372.949219" xlink:href="#DejaVuSans-121"/>
      <use x="432.128906" xlink:href="#DejaVuSans-32"/>
      <use x="463.916016" xlink:href="#DejaVuSans-40"/>
      <use x="502.929688" xlink:href="#DejaVuSans-102"/>
      <use x="538.134766" xlink:href="#DejaVuSans-114"/>
      <use x="576.998047" xlink:href="#DejaVuSans-101"/>
      <use x="638.521484" xlink:href="#DejaVuSans-113"/>
      <use x="701.998047" xlink:href="#DejaVuSans-117"/>
      <use x="765.376953" xlink:href="#DejaVuSans-101"/>
      <use x="826.900391" xlink:href="#DejaVuSans-110"/>
      <use x="890.279297" xlink:href="#DejaVuSans-99"/>
      <use x="945.259766" xlink:href="#DejaVuSans-121"/>
      <use x="1004.439453" xlink:href="#DejaVuSans-41"/>
     </g>
    </g>
   </g>
   <g id="line2d_12">
    <path clip-path="url(#p80ab5fd195)" d="M 67.437138 313.173101 
L 78.330611 313.146248 
L 113.734399 312.782803 
L 157.308291 312.659329 
L 162.755027 312.536697 
L 184.541973 311.550198 
L 195.435446 311.423103 
L 203.605551 311.23431 
L 209.052288 310.861575 
L 214.499024 310.245464 
L 222.669129 308.943811 
L 230.839234 307.468942 
L 236.28597 306.236142 
L 241.732707 304.784571 
L 247.179443 303.114437 
L 249.902812 302.124554 
L 252.62618 300.995292 
L 258.072916 298.355414 
L 266.243021 294.099167 
L 271.689758 291.384196 
L 274.413126 289.773414 
L 277.136494 287.628339 
L 279.859862 284.657579 
L 282.583231 280.72933 
L 285.306599 275.999055 
L 288.029967 270.940985 
L 290.753335 266.25162 
L 293.476704 262.627651 
L 296.200072 260.465168 
L 298.92344 259.612218 
L 301.646809 259.355773 
L 304.370177 258.711289 
L 307.093545 256.861483 
L 309.816913 253.485087 
L 312.540282 248.824969 
L 317.987018 238.330556 
L 320.710386 233.823884 
L 323.433755 230.227363 
L 326.157123 227.453984 
L 328.880491 225.323907 
L 331.603859 223.794687 
L 334.327228 223.0216 
L 337.050596 223.217089 
L 339.773964 224.44642 
L 342.497332 226.526654 
L 350.667437 234.07342 
L 353.390805 236.056658 
L 356.114174 237.697507 
L 364.284278 242.111784 
L 367.007647 243.797787 
L 369.731015 245.701481 
L 372.454383 247.961039 
L 375.177751 250.84223 
L 377.90112 254.720351 
L 380.624488 259.962734 
L 383.347856 266.7238 
L 386.071224 274.750508 
L 391.517961 291.614453 
L 394.241329 298.726266 
L 396.964697 304.237111 
L 399.688066 308.097415 
L 402.411434 310.545233 
L 405.134802 311.946332 
L 407.858171 312.665752 
L 410.581539 312.994522 
L 413.304907 313.127025 
L 413.304907 313.127025 
" style="fill:none;stroke:#1f77b4;stroke-linecap:square;stroke-width:1.5;"/>
   </g>
   <g id="patch_103">
    <path d="M 50.14375 313.194375 
L 50.14375 41.394375 
" style="fill:none;stroke:#000000;stroke-linecap:square;stroke-linejoin:miter;stroke-width:0.8;"/>
   </g>
   <g id="patch_104">
    <path d="M 430.598295 313.194375 
L 430.598295 41.394375 
" style="fill:none;stroke:#000000;stroke-linecap:square;stroke-linejoin:miter;stroke-width:0.8;"/>
   </g>
   <g id="patch_105">
    <path d="M 50.14375 313.194375 
L 430.598295 313.194375 
" style="fill:none;stroke:#000000;stroke-linecap:square;stroke-linejoin:miter;stroke-width:0.8;"/>
   </g>
   <g id="patch_106">
    <path d="M 50.14375 41.394375 
L 430.598295 41.394375 
" style="fill:none;stroke:#000000;stroke-linecap:square;stroke-linejoin:miter;stroke-width:0.8;"/>
   </g>
   <g id="text_14">
    <!-- Production date Distribution -->
    <defs>
     <path d="M 19.671875 64.796875 
L 19.671875 8.109375 
L 31.59375 8.109375 
Q 46.6875 8.109375 53.6875 14.9375 
Q 60.6875 21.78125 60.6875 36.53125 
Q 60.6875 51.171875 53.6875 57.984375 
Q 46.6875 64.796875 31.59375 64.796875 
z
M 9.8125 72.90625 
L 30.078125 72.90625 
Q 51.265625 72.90625 61.171875 64.09375 
Q 71.09375 55.28125 71.09375 36.53125 
Q 71.09375 17.671875 61.125 8.828125 
Q 51.171875 0 30.078125 0 
L 9.8125 0 
z
" id="DejaVuSans-68"/>
     <path d="M 44.28125 53.078125 
L 44.28125 44.578125 
Q 40.484375 46.53125 36.375 47.5 
Q 32.28125 48.484375 27.875 48.484375 
Q 21.1875 48.484375 17.84375 46.4375 
Q 14.5 44.390625 14.5 40.28125 
Q 14.5 37.15625 16.890625 35.375 
Q 19.28125 33.59375 26.515625 31.984375 
L 29.59375 31.296875 
Q 39.15625 29.25 43.1875 25.515625 
Q 47.21875 21.78125 47.21875 15.09375 
Q 47.21875 7.46875 41.1875 3.015625 
Q 35.15625 -1.421875 24.609375 -1.421875 
Q 20.21875 -1.421875 15.453125 -0.5625 
Q 10.6875 0.296875 5.421875 2 
L 5.421875 11.28125 
Q 10.40625 8.6875 15.234375 7.390625 
Q 20.0625 6.109375 24.8125 6.109375 
Q 31.15625 6.109375 34.5625 8.28125 
Q 37.984375 10.453125 37.984375 14.40625 
Q 37.984375 18.0625 35.515625 20.015625 
Q 33.0625 21.96875 24.703125 23.78125 
L 21.578125 24.515625 
Q 13.234375 26.265625 9.515625 29.90625 
Q 5.8125 33.546875 5.8125 39.890625 
Q 5.8125 47.609375 11.28125 51.796875 
Q 16.75 56 26.8125 56 
Q 31.78125 56 36.171875 55.265625 
Q 40.578125 54.546875 44.28125 53.078125 
z
" id="DejaVuSans-115"/>
     <path d="M 48.6875 27.296875 
Q 48.6875 37.203125 44.609375 42.84375 
Q 40.53125 48.484375 33.40625 48.484375 
Q 26.265625 48.484375 22.1875 42.84375 
Q 18.109375 37.203125 18.109375 27.296875 
Q 18.109375 17.390625 22.1875 11.75 
Q 26.265625 6.109375 33.40625 6.109375 
Q 40.53125 6.109375 44.609375 11.75 
Q 48.6875 17.390625 48.6875 27.296875 
z
M 18.109375 46.390625 
Q 20.953125 51.265625 25.265625 53.625 
Q 29.59375 56 35.59375 56 
Q 45.5625 56 51.78125 48.09375 
Q 58.015625 40.1875 58.015625 27.296875 
Q 58.015625 14.40625 51.78125 6.484375 
Q 45.5625 -1.421875 35.59375 -1.421875 
Q 29.59375 -1.421875 25.265625 0.953125 
Q 20.953125 3.328125 18.109375 8.203125 
L 18.109375 0 
L 9.078125 0 
L 9.078125 75.984375 
L 18.109375 75.984375 
z
" id="DejaVuSans-98"/>
    </defs>
    <g transform="translate(135.039382 18.597656)scale(0.15 -0.15)">
     <use xlink:href="#DejaVuSans-80"/>
     <use x="58.552734" xlink:href="#DejaVuSans-114"/>
     <use x="97.416016" xlink:href="#DejaVuSans-111"/>
     <use x="158.597656" xlink:href="#DejaVuSans-100"/>
     <use x="222.074219" xlink:href="#DejaVuSans-117"/>
     <use x="285.453125" xlink:href="#DejaVuSans-99"/>
     <use x="340.433594" xlink:href="#DejaVuSans-116"/>
     <use x="379.642578" xlink:href="#DejaVuSans-105"/>
     <use x="407.425781" xlink:href="#DejaVuSans-111"/>
     <use x="468.607422" xlink:href="#DejaVuSans-110"/>
     <use x="531.986328" xlink:href="#DejaVuSans-32"/>
     <use x="563.773438" xlink:href="#DejaVuSans-100"/>
     <use x="627.25" xlink:href="#DejaVuSans-97"/>
     <use x="688.529297" xlink:href="#DejaVuSans-116"/>
     <use x="727.738281" xlink:href="#DejaVuSans-101"/>
     <use x="789.261719" xlink:href="#DejaVuSans-32"/>
     <use x="821.048828" xlink:href="#DejaVuSans-68"/>
     <use x="898.050781" xlink:href="#DejaVuSans-105"/>
     <use x="925.833984" xlink:href="#DejaVuSans-115"/>
     <use x="977.933594" xlink:href="#DejaVuSans-116"/>
     <use x="1017.142578" xlink:href="#DejaVuSans-114"/>
     <use x="1058.255859" xlink:href="#DejaVuSans-105"/>
     <use x="1086.039062" xlink:href="#DejaVuSans-98"/>
     <use x="1149.515625" xlink:href="#DejaVuSans-117"/>
     <use x="1212.894531" xlink:href="#DejaVuSans-116"/>
     <use x="1252.103516" xlink:href="#DejaVuSans-105"/>
     <use x="1279.886719" xlink:href="#DejaVuSans-111"/>
     <use x="1341.068359" xlink:href="#DejaVuSans-110"/>
    </g>
    <!--  -->
    <g transform="translate(240.371023 35.394375)scale(0.15 -0.15)"/>
   </g>
  </g>
  <g id="axes_2">
   <g id="patch_107">
    <path d="M 506.689205 313.194375 
L 887.14375 313.194375 
L 887.14375 41.394375 
L 506.689205 41.394375 
z
" style="fill:#ffffff;"/>
   </g>
   <g id="patch_108">
    <path clip-path="url(#pddfa8eb7ec)" d="M 769.730744 68.574375 
L 769.730744 286.014375 
L 833.443228 286.014375 
L 833.443228 68.574375 
L 769.730744 68.574375 
z
" style="fill:#3274a1;stroke:#3f3f3f;stroke-linejoin:miter;stroke-width:1.5;"/>
   </g>
   <g id="matplotlib.axis_3">
    <g id="xtick_6">
     <g id="line2d_13">
      <g>
       <use style="stroke:#000000;stroke-width:0.8;" x="551.287943" xlink:href="#m4179ff9839" y="313.194375"/>
      </g>
     </g>
     <g id="text_15">
      <!-- 1985 -->
      <g transform="translate(538.562943 327.792812)scale(0.1 -0.1)">
       <use xlink:href="#DejaVuSans-49"/>
       <use x="63.623047" xlink:href="#DejaVuSans-57"/>
       <use x="127.246094" xlink:href="#DejaVuSans-56"/>
       <use x="190.869141" xlink:href="#DejaVuSans-53"/>
      </g>
     </g>
    </g>
    <g id="xtick_7">
     <g id="line2d_14">
      <g>
       <use style="stroke:#000000;stroke-width:0.8;" x="596.79686" xlink:href="#m4179ff9839" y="313.194375"/>
      </g>
     </g>
     <g id="text_16">
      <!-- 1990 -->
      <g transform="translate(584.07186 327.792812)scale(0.1 -0.1)">
       <use xlink:href="#DejaVuSans-49"/>
       <use x="63.623047" xlink:href="#DejaVuSans-57"/>
       <use x="127.246094" xlink:href="#DejaVuSans-57"/>
       <use x="190.869141" xlink:href="#DejaVuSans-48"/>
      </g>
     </g>
    </g>
    <g id="xtick_8">
     <g id="line2d_15">
      <g>
       <use style="stroke:#000000;stroke-width:0.8;" x="642.305777" xlink:href="#m4179ff9839" y="313.194375"/>
      </g>
     </g>
     <g id="text_17">
      <!-- 1995 -->
      <g transform="translate(629.580777 327.792812)scale(0.1 -0.1)">
       <use xlink:href="#DejaVuSans-49"/>
       <use x="63.623047" xlink:href="#DejaVuSans-57"/>
       <use x="127.246094" xlink:href="#DejaVuSans-57"/>
       <use x="190.869141" xlink:href="#DejaVuSans-53"/>
      </g>
     </g>
    </g>
    <g id="xtick_9">
     <g id="line2d_16">
      <g>
       <use style="stroke:#000000;stroke-width:0.8;" x="687.814694" xlink:href="#m4179ff9839" y="313.194375"/>
      </g>
     </g>
     <g id="text_18">
      <!-- 2000 -->
      <g transform="translate(675.089694 327.792812)scale(0.1 -0.1)">
       <use xlink:href="#DejaVuSans-50"/>
       <use x="63.623047" xlink:href="#DejaVuSans-48"/>
       <use x="127.246094" xlink:href="#DejaVuSans-48"/>
       <use x="190.869141" xlink:href="#DejaVuSans-48"/>
      </g>
     </g>
    </g>
    <g id="xtick_10">
     <g id="line2d_17">
      <g>
       <use style="stroke:#000000;stroke-width:0.8;" x="733.323611" xlink:href="#m4179ff9839" y="313.194375"/>
      </g>
     </g>
     <g id="text_19">
      <!-- 2005 -->
      <g transform="translate(720.598611 327.792812)scale(0.1 -0.1)">
       <use xlink:href="#DejaVuSans-50"/>
       <use x="63.623047" xlink:href="#DejaVuSans-48"/>
       <use x="127.246094" xlink:href="#DejaVuSans-48"/>
       <use x="190.869141" xlink:href="#DejaVuSans-53"/>
      </g>
     </g>
    </g>
    <g id="xtick_11">
     <g id="line2d_18">
      <g>
       <use style="stroke:#000000;stroke-width:0.8;" x="778.832528" xlink:href="#m4179ff9839" y="313.194375"/>
      </g>
     </g>
     <g id="text_20">
      <!-- 2010 -->
      <g transform="translate(766.107528 327.792812)scale(0.1 -0.1)">
       <use xlink:href="#DejaVuSans-50"/>
       <use x="63.623047" xlink:href="#DejaVuSans-48"/>
       <use x="127.246094" xlink:href="#DejaVuSans-49"/>
       <use x="190.869141" xlink:href="#DejaVuSans-48"/>
      </g>
     </g>
    </g>
    <g id="xtick_12">
     <g id="line2d_19">
      <g>
       <use style="stroke:#000000;stroke-width:0.8;" x="824.341445" xlink:href="#m4179ff9839" y="313.194375"/>
      </g>
     </g>
     <g id="text_21">
      <!-- 2015 -->
      <g transform="translate(811.616445 327.792812)scale(0.1 -0.1)">
       <use xlink:href="#DejaVuSans-50"/>
       <use x="63.623047" xlink:href="#DejaVuSans-48"/>
       <use x="127.246094" xlink:href="#DejaVuSans-49"/>
       <use x="190.869141" xlink:href="#DejaVuSans-53"/>
      </g>
     </g>
    </g>
    <g id="xtick_13">
     <g id="line2d_20">
      <g>
       <use style="stroke:#000000;stroke-width:0.8;" x="869.850362" xlink:href="#m4179ff9839" y="313.194375"/>
      </g>
     </g>
     <g id="text_22">
      <!-- 2020 -->
      <g transform="translate(857.125362 327.792812)scale(0.1 -0.1)">
       <use xlink:href="#DejaVuSans-50"/>
       <use x="63.623047" xlink:href="#DejaVuSans-48"/>
       <use x="127.246094" xlink:href="#DejaVuSans-50"/>
       <use x="190.869141" xlink:href="#DejaVuSans-48"/>
      </g>
     </g>
    </g>
    <g id="text_23">
     <!-- Production date -->
     <g transform="translate(657.453196 341.470937)scale(0.1 -0.1)">
      <use xlink:href="#DejaVuSans-80"/>
      <use x="58.552734" xlink:href="#DejaVuSans-114"/>
      <use x="97.416016" xlink:href="#DejaVuSans-111"/>
      <use x="158.597656" xlink:href="#DejaVuSans-100"/>
      <use x="222.074219" xlink:href="#DejaVuSans-117"/>
      <use x="285.453125" xlink:href="#DejaVuSans-99"/>
      <use x="340.433594" xlink:href="#DejaVuSans-116"/>
      <use x="379.642578" xlink:href="#DejaVuSans-105"/>
      <use x="407.425781" xlink:href="#DejaVuSans-111"/>
      <use x="468.607422" xlink:href="#DejaVuSans-110"/>
      <use x="531.986328" xlink:href="#DejaVuSans-32"/>
      <use x="563.773438" xlink:href="#DejaVuSans-100"/>
      <use x="627.25" xlink:href="#DejaVuSans-97"/>
      <use x="688.529297" xlink:href="#DejaVuSans-116"/>
      <use x="727.738281" xlink:href="#DejaVuSans-101"/>
     </g>
    </g>
   </g>
   <g id="matplotlib.axis_4">
    <g id="ytick_7">
     <g id="line2d_21">
      <g>
       <use style="stroke:#000000;stroke-width:0.8;" x="506.689205" xlink:href="#ma791e3b311" y="177.294375"/>
      </g>
     </g>
    </g>
   </g>
   <g id="line2d_22">
    <path clip-path="url(#pddfa8eb7ec)" d="M 769.730744 177.294375 
L 678.712911 177.294375 
" style="fill:none;stroke:#3f3f3f;stroke-linecap:square;stroke-width:1.5;"/>
   </g>
   <g id="line2d_23">
    <path clip-path="url(#pddfa8eb7ec)" d="M 833.443228 177.294375 
L 869.850362 177.294375 
" style="fill:none;stroke:#3f3f3f;stroke-linecap:square;stroke-width:1.5;"/>
   </g>
   <g id="line2d_24">
    <path clip-path="url(#pddfa8eb7ec)" d="M 678.712911 122.934375 
L 678.712911 231.654375 
" style="fill:none;stroke:#3f3f3f;stroke-linecap:square;stroke-width:1.5;"/>
   </g>
   <g id="line2d_25">
    <path clip-path="url(#pddfa8eb7ec)" d="M 869.850362 122.934375 
L 869.850362 231.654375 
" style="fill:none;stroke:#3f3f3f;stroke-linecap:square;stroke-width:1.5;"/>
   </g>
   <g id="line2d_26">
    <defs>
     <path d="M -0 3.535534 
L 2.12132 0 
L -0 -3.535534 
L -2.12132 -0 
z
" id="mdc7160937b" style="stroke:#3f3f3f;stroke-linejoin:miter;"/>
    </defs>
    <g clip-path="url(#pddfa8eb7ec)">
     <use style="fill:#3f3f3f;stroke:#3f3f3f;stroke-linejoin:miter;" x="551.287943" xlink:href="#mdc7160937b" y="177.294375"/>
     <use style="fill:#3f3f3f;stroke:#3f3f3f;stroke-linejoin:miter;" x="615.000427" xlink:href="#mdc7160937b" y="177.294375"/>
     <use style="fill:#3f3f3f;stroke:#3f3f3f;stroke-linejoin:miter;" x="633.203994" xlink:href="#mdc7160937b" y="177.294375"/>
     <use style="fill:#3f3f3f;stroke:#3f3f3f;stroke-linejoin:miter;" x="633.203994" xlink:href="#mdc7160937b" y="177.294375"/>
     <use style="fill:#3f3f3f;stroke:#3f3f3f;stroke-linejoin:miter;" x="660.509344" xlink:href="#mdc7160937b" y="177.294375"/>
     <use style="fill:#3f3f3f;stroke:#3f3f3f;stroke-linejoin:miter;" x="596.79686" xlink:href="#mdc7160937b" y="177.294375"/>
     <use style="fill:#3f3f3f;stroke:#3f3f3f;stroke-linejoin:miter;" x="660.509344" xlink:href="#mdc7160937b" y="177.294375"/>
     <use style="fill:#3f3f3f;stroke:#3f3f3f;stroke-linejoin:miter;" x="642.305777" xlink:href="#mdc7160937b" y="177.294375"/>
     <use style="fill:#3f3f3f;stroke:#3f3f3f;stroke-linejoin:miter;" x="560.389727" xlink:href="#mdc7160937b" y="177.294375"/>
     <use style="fill:#3f3f3f;stroke:#3f3f3f;stroke-linejoin:miter;" x="615.000427" xlink:href="#mdc7160937b" y="177.294375"/>
     <use style="fill:#3f3f3f;stroke:#3f3f3f;stroke-linejoin:miter;" x="615.000427" xlink:href="#mdc7160937b" y="177.294375"/>
     <use style="fill:#3f3f3f;stroke:#3f3f3f;stroke-linejoin:miter;" x="660.509344" xlink:href="#mdc7160937b" y="177.294375"/>
     <use style="fill:#3f3f3f;stroke:#3f3f3f;stroke-linejoin:miter;" x="660.509344" xlink:href="#mdc7160937b" y="177.294375"/>
     <use style="fill:#3f3f3f;stroke:#3f3f3f;stroke-linejoin:miter;" x="624.10221" xlink:href="#mdc7160937b" y="177.294375"/>
     <use style="fill:#3f3f3f;stroke:#3f3f3f;stroke-linejoin:miter;" x="624.10221" xlink:href="#mdc7160937b" y="177.294375"/>
     <use style="fill:#3f3f3f;stroke:#3f3f3f;stroke-linejoin:miter;" x="642.305777" xlink:href="#mdc7160937b" y="177.294375"/>
     <use style="fill:#3f3f3f;stroke:#3f3f3f;stroke-linejoin:miter;" x="578.593293" xlink:href="#mdc7160937b" y="177.294375"/>
     <use style="fill:#3f3f3f;stroke:#3f3f3f;stroke-linejoin:miter;" x="660.509344" xlink:href="#mdc7160937b" y="177.294375"/>
     <use style="fill:#3f3f3f;stroke:#3f3f3f;stroke-linejoin:miter;" x="651.40756" xlink:href="#mdc7160937b" y="177.294375"/>
     <use style="fill:#3f3f3f;stroke:#3f3f3f;stroke-linejoin:miter;" x="651.40756" xlink:href="#mdc7160937b" y="177.294375"/>
     <use style="fill:#3f3f3f;stroke:#3f3f3f;stroke-linejoin:miter;" x="660.509344" xlink:href="#mdc7160937b" y="177.294375"/>
     <use style="fill:#3f3f3f;stroke:#3f3f3f;stroke-linejoin:miter;" x="624.10221" xlink:href="#mdc7160937b" y="177.294375"/>
     <use style="fill:#3f3f3f;stroke:#3f3f3f;stroke-linejoin:miter;" x="615.000427" xlink:href="#mdc7160937b" y="177.294375"/>
     <use style="fill:#3f3f3f;stroke:#3f3f3f;stroke-linejoin:miter;" x="615.000427" xlink:href="#mdc7160937b" y="177.294375"/>
     <use style="fill:#3f3f3f;stroke:#3f3f3f;stroke-linejoin:miter;" x="651.40756" xlink:href="#mdc7160937b" y="177.294375"/>
     <use style="fill:#3f3f3f;stroke:#3f3f3f;stroke-linejoin:miter;" x="578.593293" xlink:href="#mdc7160937b" y="177.294375"/>
     <use style="fill:#3f3f3f;stroke:#3f3f3f;stroke-linejoin:miter;" x="615.000427" xlink:href="#mdc7160937b" y="177.294375"/>
     <use style="fill:#3f3f3f;stroke:#3f3f3f;stroke-linejoin:miter;" x="633.203994" xlink:href="#mdc7160937b" y="177.294375"/>
     <use style="fill:#3f3f3f;stroke:#3f3f3f;stroke-linejoin:miter;" x="596.79686" xlink:href="#mdc7160937b" y="177.294375"/>
     <use style="fill:#3f3f3f;stroke:#3f3f3f;stroke-linejoin:miter;" x="624.10221" xlink:href="#mdc7160937b" y="177.294375"/>
     <use style="fill:#3f3f3f;stroke:#3f3f3f;stroke-linejoin:miter;" x="642.305777" xlink:href="#mdc7160937b" y="177.294375"/>
     <use style="fill:#3f3f3f;stroke:#3f3f3f;stroke-linejoin:miter;" x="669.611127" xlink:href="#mdc7160937b" y="177.294375"/>
     <use style="fill:#3f3f3f;stroke:#3f3f3f;stroke-linejoin:miter;" x="651.40756" xlink:href="#mdc7160937b" y="177.294375"/>
     <use style="fill:#3f3f3f;stroke:#3f3f3f;stroke-linejoin:miter;" x="596.79686" xlink:href="#mdc7160937b" y="177.294375"/>
     <use style="fill:#3f3f3f;stroke:#3f3f3f;stroke-linejoin:miter;" x="578.593293" xlink:href="#mdc7160937b" y="177.294375"/>
     <use style="fill:#3f3f3f;stroke:#3f3f3f;stroke-linejoin:miter;" x="569.49151" xlink:href="#mdc7160937b" y="177.294375"/>
     <use style="fill:#3f3f3f;stroke:#3f3f3f;stroke-linejoin:miter;" x="642.305777" xlink:href="#mdc7160937b" y="177.294375"/>
     <use style="fill:#3f3f3f;stroke:#3f3f3f;stroke-linejoin:miter;" x="651.40756" xlink:href="#mdc7160937b" y="177.294375"/>
     <use style="fill:#3f3f3f;stroke:#3f3f3f;stroke-linejoin:miter;" x="651.40756" xlink:href="#mdc7160937b" y="177.294375"/>
     <use style="fill:#3f3f3f;stroke:#3f3f3f;stroke-linejoin:miter;" x="523.982593" xlink:href="#mdc7160937b" y="177.294375"/>
     <use style="fill:#3f3f3f;stroke:#3f3f3f;stroke-linejoin:miter;" x="669.611127" xlink:href="#mdc7160937b" y="177.294375"/>
     <use style="fill:#3f3f3f;stroke:#3f3f3f;stroke-linejoin:miter;" x="660.509344" xlink:href="#mdc7160937b" y="177.294375"/>
     <use style="fill:#3f3f3f;stroke:#3f3f3f;stroke-linejoin:miter;" x="615.000427" xlink:href="#mdc7160937b" y="177.294375"/>
     <use style="fill:#3f3f3f;stroke:#3f3f3f;stroke-linejoin:miter;" x="642.305777" xlink:href="#mdc7160937b" y="177.294375"/>
     <use style="fill:#3f3f3f;stroke:#3f3f3f;stroke-linejoin:miter;" x="596.79686" xlink:href="#mdc7160937b" y="177.294375"/>
     <use style="fill:#3f3f3f;stroke:#3f3f3f;stroke-linejoin:miter;" x="523.982593" xlink:href="#mdc7160937b" y="177.294375"/>
     <use style="fill:#3f3f3f;stroke:#3f3f3f;stroke-linejoin:miter;" x="660.509344" xlink:href="#mdc7160937b" y="177.294375"/>
     <use style="fill:#3f3f3f;stroke:#3f3f3f;stroke-linejoin:miter;" x="669.611127" xlink:href="#mdc7160937b" y="177.294375"/>
     <use style="fill:#3f3f3f;stroke:#3f3f3f;stroke-linejoin:miter;" x="633.203994" xlink:href="#mdc7160937b" y="177.294375"/>
     <use style="fill:#3f3f3f;stroke:#3f3f3f;stroke-linejoin:miter;" x="624.10221" xlink:href="#mdc7160937b" y="177.294375"/>
     <use style="fill:#3f3f3f;stroke:#3f3f3f;stroke-linejoin:miter;" x="615.000427" xlink:href="#mdc7160937b" y="177.294375"/>
     <use style="fill:#3f3f3f;stroke:#3f3f3f;stroke-linejoin:miter;" x="551.287943" xlink:href="#mdc7160937b" y="177.294375"/>
     <use style="fill:#3f3f3f;stroke:#3f3f3f;stroke-linejoin:miter;" x="596.79686" xlink:href="#mdc7160937b" y="177.294375"/>
     <use style="fill:#3f3f3f;stroke:#3f3f3f;stroke-linejoin:miter;" x="669.611127" xlink:href="#mdc7160937b" y="177.294375"/>
     <use style="fill:#3f3f3f;stroke:#3f3f3f;stroke-linejoin:miter;" x="642.305777" xlink:href="#mdc7160937b" y="177.294375"/>
     <use style="fill:#3f3f3f;stroke:#3f3f3f;stroke-linejoin:miter;" x="660.509344" xlink:href="#mdc7160937b" y="177.294375"/>
     <use style="fill:#3f3f3f;stroke:#3f3f3f;stroke-linejoin:miter;" x="624.10221" xlink:href="#mdc7160937b" y="177.294375"/>
     <use style="fill:#3f3f3f;stroke:#3f3f3f;stroke-linejoin:miter;" x="669.611127" xlink:href="#mdc7160937b" y="177.294375"/>
     <use style="fill:#3f3f3f;stroke:#3f3f3f;stroke-linejoin:miter;" x="533.084376" xlink:href="#mdc7160937b" y="177.294375"/>
     <use style="fill:#3f3f3f;stroke:#3f3f3f;stroke-linejoin:miter;" x="633.203994" xlink:href="#mdc7160937b" y="177.294375"/>
     <use style="fill:#3f3f3f;stroke:#3f3f3f;stroke-linejoin:miter;" x="560.389727" xlink:href="#mdc7160937b" y="177.294375"/>
     <use style="fill:#3f3f3f;stroke:#3f3f3f;stroke-linejoin:miter;" x="633.203994" xlink:href="#mdc7160937b" y="177.294375"/>
     <use style="fill:#3f3f3f;stroke:#3f3f3f;stroke-linejoin:miter;" x="651.40756" xlink:href="#mdc7160937b" y="177.294375"/>
     <use style="fill:#3f3f3f;stroke:#3f3f3f;stroke-linejoin:miter;" x="624.10221" xlink:href="#mdc7160937b" y="177.294375"/>
     <use style="fill:#3f3f3f;stroke:#3f3f3f;stroke-linejoin:miter;" x="669.611127" xlink:href="#mdc7160937b" y="177.294375"/>
     <use style="fill:#3f3f3f;stroke:#3f3f3f;stroke-linejoin:miter;" x="560.389727" xlink:href="#mdc7160937b" y="177.294375"/>
     <use style="fill:#3f3f3f;stroke:#3f3f3f;stroke-linejoin:miter;" x="669.611127" xlink:href="#mdc7160937b" y="177.294375"/>
     <use style="fill:#3f3f3f;stroke:#3f3f3f;stroke-linejoin:miter;" x="624.10221" xlink:href="#mdc7160937b" y="177.294375"/>
     <use style="fill:#3f3f3f;stroke:#3f3f3f;stroke-linejoin:miter;" x="642.305777" xlink:href="#mdc7160937b" y="177.294375"/>
     <use style="fill:#3f3f3f;stroke:#3f3f3f;stroke-linejoin:miter;" x="669.611127" xlink:href="#mdc7160937b" y="177.294375"/>
     <use style="fill:#3f3f3f;stroke:#3f3f3f;stroke-linejoin:miter;" x="633.203994" xlink:href="#mdc7160937b" y="177.294375"/>
     <use style="fill:#3f3f3f;stroke:#3f3f3f;stroke-linejoin:miter;" x="669.611127" xlink:href="#mdc7160937b" y="177.294375"/>
     <use style="fill:#3f3f3f;stroke:#3f3f3f;stroke-linejoin:miter;" x="669.611127" xlink:href="#mdc7160937b" y="177.294375"/>
     <use style="fill:#3f3f3f;stroke:#3f3f3f;stroke-linejoin:miter;" x="669.611127" xlink:href="#mdc7160937b" y="177.294375"/>
     <use style="fill:#3f3f3f;stroke:#3f3f3f;stroke-linejoin:miter;" x="642.305777" xlink:href="#mdc7160937b" y="177.294375"/>
     <use style="fill:#3f3f3f;stroke:#3f3f3f;stroke-linejoin:miter;" x="669.611127" xlink:href="#mdc7160937b" y="177.294375"/>
     <use style="fill:#3f3f3f;stroke:#3f3f3f;stroke-linejoin:miter;" x="660.509344" xlink:href="#mdc7160937b" y="177.294375"/>
     <use style="fill:#3f3f3f;stroke:#3f3f3f;stroke-linejoin:miter;" x="551.287943" xlink:href="#mdc7160937b" y="177.294375"/>
     <use style="fill:#3f3f3f;stroke:#3f3f3f;stroke-linejoin:miter;" x="633.203994" xlink:href="#mdc7160937b" y="177.294375"/>
     <use style="fill:#3f3f3f;stroke:#3f3f3f;stroke-linejoin:miter;" x="642.305777" xlink:href="#mdc7160937b" y="177.294375"/>
     <use style="fill:#3f3f3f;stroke:#3f3f3f;stroke-linejoin:miter;" x="651.40756" xlink:href="#mdc7160937b" y="177.294375"/>
     <use style="fill:#3f3f3f;stroke:#3f3f3f;stroke-linejoin:miter;" x="533.084376" xlink:href="#mdc7160937b" y="177.294375"/>
     <use style="fill:#3f3f3f;stroke:#3f3f3f;stroke-linejoin:miter;" x="596.79686" xlink:href="#mdc7160937b" y="177.294375"/>
     <use style="fill:#3f3f3f;stroke:#3f3f3f;stroke-linejoin:miter;" x="660.509344" xlink:href="#mdc7160937b" y="177.294375"/>
     <use style="fill:#3f3f3f;stroke:#3f3f3f;stroke-linejoin:miter;" x="669.611127" xlink:href="#mdc7160937b" y="177.294375"/>
     <use style="fill:#3f3f3f;stroke:#3f3f3f;stroke-linejoin:miter;" x="633.203994" xlink:href="#mdc7160937b" y="177.294375"/>
     <use style="fill:#3f3f3f;stroke:#3f3f3f;stroke-linejoin:miter;" x="542.18616" xlink:href="#mdc7160937b" y="177.294375"/>
     <use style="fill:#3f3f3f;stroke:#3f3f3f;stroke-linejoin:miter;" x="587.695077" xlink:href="#mdc7160937b" y="177.294375"/>
     <use style="fill:#3f3f3f;stroke:#3f3f3f;stroke-linejoin:miter;" x="669.611127" xlink:href="#mdc7160937b" y="177.294375"/>
     <use style="fill:#3f3f3f;stroke:#3f3f3f;stroke-linejoin:miter;" x="669.611127" xlink:href="#mdc7160937b" y="177.294375"/>
     <use style="fill:#3f3f3f;stroke:#3f3f3f;stroke-linejoin:miter;" x="633.203994" xlink:href="#mdc7160937b" y="177.294375"/>
     <use style="fill:#3f3f3f;stroke:#3f3f3f;stroke-linejoin:miter;" x="542.18616" xlink:href="#mdc7160937b" y="177.294375"/>
     <use style="fill:#3f3f3f;stroke:#3f3f3f;stroke-linejoin:miter;" x="669.611127" xlink:href="#mdc7160937b" y="177.294375"/>
     <use style="fill:#3f3f3f;stroke:#3f3f3f;stroke-linejoin:miter;" x="669.611127" xlink:href="#mdc7160937b" y="177.294375"/>
     <use style="fill:#3f3f3f;stroke:#3f3f3f;stroke-linejoin:miter;" x="669.611127" xlink:href="#mdc7160937b" y="177.294375"/>
     <use style="fill:#3f3f3f;stroke:#3f3f3f;stroke-linejoin:miter;" x="642.305777" xlink:href="#mdc7160937b" y="177.294375"/>
     <use style="fill:#3f3f3f;stroke:#3f3f3f;stroke-linejoin:miter;" x="660.509344" xlink:href="#mdc7160937b" y="177.294375"/>
     <use style="fill:#3f3f3f;stroke:#3f3f3f;stroke-linejoin:miter;" x="624.10221" xlink:href="#mdc7160937b" y="177.294375"/>
     <use style="fill:#3f3f3f;stroke:#3f3f3f;stroke-linejoin:miter;" x="660.509344" xlink:href="#mdc7160937b" y="177.294375"/>
     <use style="fill:#3f3f3f;stroke:#3f3f3f;stroke-linejoin:miter;" x="651.40756" xlink:href="#mdc7160937b" y="177.294375"/>
     <use style="fill:#3f3f3f;stroke:#3f3f3f;stroke-linejoin:miter;" x="660.509344" xlink:href="#mdc7160937b" y="177.294375"/>
     <use style="fill:#3f3f3f;stroke:#3f3f3f;stroke-linejoin:miter;" x="633.203994" xlink:href="#mdc7160937b" y="177.294375"/>
     <use style="fill:#3f3f3f;stroke:#3f3f3f;stroke-linejoin:miter;" x="642.305777" xlink:href="#mdc7160937b" y="177.294375"/>
     <use style="fill:#3f3f3f;stroke:#3f3f3f;stroke-linejoin:miter;" x="642.305777" xlink:href="#mdc7160937b" y="177.294375"/>
     <use style="fill:#3f3f3f;stroke:#3f3f3f;stroke-linejoin:miter;" x="578.593293" xlink:href="#mdc7160937b" y="177.294375"/>
     <use style="fill:#3f3f3f;stroke:#3f3f3f;stroke-linejoin:miter;" x="651.40756" xlink:href="#mdc7160937b" y="177.294375"/>
    </g>
   </g>
   <g id="line2d_27">
    <path clip-path="url(#pddfa8eb7ec)" d="M 806.137878 68.574375 
L 806.137878 286.014375 
" style="fill:none;stroke:#3f3f3f;stroke-linecap:square;stroke-width:1.5;"/>
   </g>
   <g id="patch_109">
    <path d="M 506.689205 313.194375 
L 506.689205 41.394375 
" style="fill:none;stroke:#000000;stroke-linecap:square;stroke-linejoin:miter;stroke-width:0.8;"/>
   </g>
   <g id="patch_110">
    <path d="M 887.14375 313.194375 
L 887.14375 41.394375 
" style="fill:none;stroke:#000000;stroke-linecap:square;stroke-linejoin:miter;stroke-width:0.8;"/>
   </g>
   <g id="patch_111">
    <path d="M 506.689205 313.194375 
L 887.14375 313.194375 
" style="fill:none;stroke:#000000;stroke-linecap:square;stroke-linejoin:miter;stroke-width:0.8;"/>
   </g>
   <g id="patch_112">
    <path d="M 506.689205 41.394375 
L 887.14375 41.394375 
" style="fill:none;stroke:#000000;stroke-linecap:square;stroke-linejoin:miter;stroke-width:0.8;"/>
   </g>
   <g id="text_24">
    <!-- Box Plot for Production date -->
    <defs>
     <path d="M 19.671875 34.8125 
L 19.671875 8.109375 
L 35.5 8.109375 
Q 43.453125 8.109375 47.28125 11.40625 
Q 51.125 14.703125 51.125 21.484375 
Q 51.125 28.328125 47.28125 31.5625 
Q 43.453125 34.8125 35.5 34.8125 
z
M 19.671875 64.796875 
L 19.671875 42.828125 
L 34.28125 42.828125 
Q 41.5 42.828125 45.03125 45.53125 
Q 48.578125 48.25 48.578125 53.8125 
Q 48.578125 59.328125 45.03125 62.0625 
Q 41.5 64.796875 34.28125 64.796875 
z
M 9.8125 72.90625 
L 35.015625 72.90625 
Q 46.296875 72.90625 52.390625 68.21875 
Q 58.5 63.53125 58.5 54.890625 
Q 58.5 48.1875 55.375 44.234375 
Q 52.25 40.28125 46.1875 39.3125 
Q 53.46875 37.75 57.5 32.78125 
Q 61.53125 27.828125 61.53125 20.40625 
Q 61.53125 10.640625 54.890625 5.3125 
Q 48.25 0 35.984375 0 
L 9.8125 0 
z
" id="DejaVuSans-66"/>
     <path d="M 54.890625 54.6875 
L 35.109375 28.078125 
L 55.90625 0 
L 45.3125 0 
L 29.390625 21.484375 
L 13.484375 0 
L 2.875 0 
L 24.125 28.609375 
L 4.6875 54.6875 
L 15.28125 54.6875 
L 29.78125 35.203125 
L 44.28125 54.6875 
z
" id="DejaVuSans-120"/>
     <path d="M 9.421875 75.984375 
L 18.40625 75.984375 
L 18.40625 0 
L 9.421875 0 
z
" id="DejaVuSans-108"/>
    </defs>
    <g transform="translate(592.183665 18.597656)scale(0.15 -0.15)">
     <use xlink:href="#DejaVuSans-66"/>
     <use x="68.603516" xlink:href="#DejaVuSans-111"/>
     <use x="126.660156" xlink:href="#DejaVuSans-120"/>
     <use x="185.839844" xlink:href="#DejaVuSans-32"/>
     <use x="217.626953" xlink:href="#DejaVuSans-80"/>
     <use x="277.929688" xlink:href="#DejaVuSans-108"/>
     <use x="305.712891" xlink:href="#DejaVuSans-111"/>
     <use x="366.894531" xlink:href="#DejaVuSans-116"/>
     <use x="406.103516" xlink:href="#DejaVuSans-32"/>
     <use x="437.890625" xlink:href="#DejaVuSans-102"/>
     <use x="473.095703" xlink:href="#DejaVuSans-111"/>
     <use x="534.277344" xlink:href="#DejaVuSans-114"/>
     <use x="575.390625" xlink:href="#DejaVuSans-32"/>
     <use x="607.177734" xlink:href="#DejaVuSans-80"/>
     <use x="665.730469" xlink:href="#DejaVuSans-114"/>
     <use x="704.59375" xlink:href="#DejaVuSans-111"/>
     <use x="765.775391" xlink:href="#DejaVuSans-100"/>
     <use x="829.251953" xlink:href="#DejaVuSans-117"/>
     <use x="892.630859" xlink:href="#DejaVuSans-99"/>
     <use x="947.611328" xlink:href="#DejaVuSans-116"/>
     <use x="986.820312" xlink:href="#DejaVuSans-105"/>
     <use x="1014.603516" xlink:href="#DejaVuSans-111"/>
     <use x="1075.785156" xlink:href="#DejaVuSans-110"/>
     <use x="1139.164062" xlink:href="#DejaVuSans-32"/>
     <use x="1170.951172" xlink:href="#DejaVuSans-100"/>
     <use x="1234.427734" xlink:href="#DejaVuSans-97"/>
     <use x="1295.707031" xlink:href="#DejaVuSans-116"/>
     <use x="1334.916016" xlink:href="#DejaVuSans-101"/>
    </g>
    <!--  -->
    <g transform="translate(696.916477 35.394375)scale(0.15 -0.15)"/>
   </g>
  </g>
 </g>
 <defs>
  <clipPath id="p80ab5fd195">
   <rect height="271.8" width="380.454545" x="50.14375" y="41.394375"/>
  </clipPath>
  <clipPath id="pddfa8eb7ec">
   <rect height="271.8" width="380.454545" x="506.689205" y="41.394375"/>
  </clipPath>
 </defs>
</svg>
